0
SECTION
2
HEADER
9
$INSUNITS
70
4
0
ENDSEC
0
SECTION
2
TABLES
0
TABLE
2
LTYPE
0
LTYPE
72
65
70
0
2
CONTINUOUS
3
______
73
0
40
0
0
LTYPE
72
65
70
0
2
DASHED
3
_ _ _ 
73
2
40
7.5
49
5
49
-2.5
0
LTYPE
72
65
70
0
2
DOTTED
3
. . . 
73
2
40
1.5
49
0.5
49
-1
0
ENDTAB
0
TABLE
2
LAYER
0
ENDTAB
0
ENDSEC
0
SECTION
2
ENTITIES
0
LINE
8
0
6
CONTINUOUS
10
90.5
20
-211.5
11
128.5
21
-211.5
0
LINE
8
0
6
CONTINUOUS
10
88.5
20
-209.5
11
88.5
21
-114.5
0
LINE
8
0
6
CONTINUOUS
10
90.5
20
-112.5
11
126.5
21
-112.5
0
LINE
8
0
6
CONTINUOUS
10
130.5
20
-209.5
11
130.5
21
-208.5
0
LINE
8
0
6
CONTINUOUS
10
130.5
20
-208.5
11
147.5
21
-208.5
0
LINE
8
0
6
CONTINUOUS
10
149.5
20
-206.5
11
149.5
21
-205.5
0
LINE
8
0
6
CONTINUOUS
10
145.5
20
-109.5
11
128.5
21
-109.5
0
LINE
8
0
6
CONTINUOUS
10
126.5
20
-111.5
11
126.5
21
-112.5
0
LINE
8
0
6
CONTINUOUS
10
149.5
20
-205.5
11
166.5
21
-205.5
0
LINE
8
0
6
CONTINUOUS
10
168.5
20
-203.5
11
168.5
21
-202.5
0
LINE
8
0
6
CONTINUOUS
10
162.5
20
-106.5
11
147.5
21
-106.5
0
LINE
8
0
6
CONTINUOUS
10
145.5
20
-108.5
11
145.5
21
-109.5
0
LINE
8
0
6
CONTINUOUS
10
170.5
20
-200.5
11
181.5
21
-200.5
0
LINE
8
0
6
CONTINUOUS
10
187.5
20
-104.5
11
187.5
21
-103.5
0
LINE
8
0
6
CONTINUOUS
10
185.5
20
-101.5
11
166.5
21
-101.5
0
LINE
8
0
6
CONTINUOUS
10
164.5
20
-103.5
11
164.5
21
-104.5
0
LINE
8
0
6
CONTINUOUS
10
185.5
20
-205.5
11
200.5
21
-205.5
0
LINE
8
0
6
CONTINUOUS
10
183.5
20
-202.5
11
183.5
21
-203.5
0
LINE
8
0
6
CONTINUOUS
10
206.5
20
-110.5
11
206.5
21
-108.5
0
LINE
8
0
6
CONTINUOUS
10
204.5
20
-106.5
11
189.5
21
-106.5
0
LINE
8
0
6
CONTINUOUS
10
204.5
20
-211.5
11
223.5
21
-211.5
0
LINE
8
0
6
CONTINUOUS
10
225.5
20
-209.5
11
225.5
21
-114.5
0
LINE
8
0
6
CONTINUOUS
10
202.5
20
-207.5
11
202.5
21
-209.5
0
LINE
8
0
6
CONTINUOUS
10
223.5
20
-112.5
11
208.5
21
-112.5
0
LINE
8
0
6
CONTINUOUS
10
335.5
20
-211.5
11
375.5
21
-211.5
0
LINE
8
0
6
CONTINUOUS
10
377.5
20
-209.5
11
377.5
21
-114.5
0
LINE
8
0
6
CONTINUOUS
10
341.5
20
-112.5
11
375.5
21
-112.5
0
LINE
8
0
6
CONTINUOUS
10
335.5
20
-210.5
11
335.5
21
-211.5
0
LINE
8
0
6
CONTINUOUS
10
316.5
20
-208.5
11
333.5
21
-208.5
0
LINE
8
0
6
CONTINUOUS
10
316.5
20
-207.5
11
316.5
21
-208.5
0
LINE
8
0
6
CONTINUOUS
10
339.5
20
-110.5
11
339.5
21
-109.5
0
LINE
8
0
6
CONTINUOUS
10
339.5
20
-109.5
11
322.5
21
-109.5
0
LINE
8
0
6
CONTINUOUS
10
299.5
20
-205.5
11
314.5
21
-205.5
0
LINE
8
0
6
CONTINUOUS
10
297.5
20
-202.5
11
297.5
21
-203.5
0
LINE
8
0
6
CONTINUOUS
10
320.5
20
-107.5
11
320.5
21
-106.5
0
LINE
8
0
6
CONTINUOUS
10
320.5
20
-106.5
11
303.5
21
-106.5
0
LINE
8
0
6
CONTINUOUS
10
284.5
20
-200.5
11
295.5
21
-200.5
0
LINE
8
0
6
CONTINUOUS
10
301.5
20
-104.5
11
301.5
21
-103.5
0
LINE
8
0
6
CONTINUOUS
10
299.5
20
-101.5
11
280.5
21
-101.5
0
LINE
8
0
6
CONTINUOUS
10
278.5
20
-103.5
11
278.5
21
-104.5
0
LINE
8
0
6
CONTINUOUS
10
265.5
20
-205.5
11
280.5
21
-205.5
0
LINE
8
0
6
CONTINUOUS
10
282.5
20
-203.5
11
282.5
21
-202.5
0
LINE
8
0
6
CONTINUOUS
10
276.5
20
-106.5
11
261.5
21
-106.5
0
LINE
8
0
6
CONTINUOUS
10
259.5
20
-108.5
11
259.5
21
-110.5
0
LINE
8
0
6
CONTINUOUS
10
242.5
20
-211.5
11
261.5
21
-211.5
0
LINE
8
0
6
CONTINUOUS
10
263.5
20
-209.5
11
263.5
21
-207.5
0
LINE
8
0
6
CONTINUOUS
10
240.5
20
-209.5
11
240.5
21
-114.5
0
LINE
8
0
6
CONTINUOUS
10
257.5
20
-112.5
11
242.5
21
-112.5
0
ARC
8
0
6
CONTINUOUS
10
128.5
20
-209.5
40
2
50
270
51
0
0
ARC
8
0
6
CONTINUOUS
10
147.5
20
-206.5
40
2
50
270
51
0
0
ARC
8
0
6
CONTINUOUS
10
166.5
20
-203.5
40
2
50
270
51
0
0
ARC
8
0
6
CONTINUOUS
10
170.5
20
-202.5
40
2
50
90
51
180
0
ARC
8
0
6
CONTINUOUS
10
181.5
20
-202.5
40
2
50
0
51
90
0
ARC
8
0
6
CONTINUOUS
10
185.5
20
-203.5
40
2
50
180
51
270
0
ARC
8
0
6
CONTINUOUS
10
200.5
20
-207.5
40
2
50
0
51
90
0
ARC
8
0
6
CONTINUOUS
10
204.5
20
-209.5
40
2
50
180
51
270
0
ARC
8
0
6
CONTINUOUS
10
223.5
20
-209.5
40
2
50
270
51
0
0
ARC
8
0
6
CONTINUOUS
10
223.5
20
-114.5
40
2
50
0
51
90
0
ARC
8
0
6
CONTINUOUS
10
208.5
20
-110.5
40
2
50
180
51
270
0
ARC
8
0
6
CONTINUOUS
10
204.5
20
-108.5
40
2
50
0
51
90
0
ARC
8
0
6
CONTINUOUS
10
189.5
20
-104.5
40
2
50
180
51
270
0
ARC
8
0
6
CONTINUOUS
10
185.5
20
-103.5
40
2
50
0
51
90
0
ARC
8
0
6
CONTINUOUS
10
166.5
20
-103.5
40
2
50
90
51
180
0
ARC
8
0
6
CONTINUOUS
10
162.5
20
-104.5
40
2
50
270
51
0
0
ARC
8
0
6
CONTINUOUS
10
147.5
20
-108.5
40
2
50
90
51
180
0
ARC
8
0
6
CONTINUOUS
10
128.5
20
-111.5
40
2
50
90
51
180
0
ARC
8
0
6
CONTINUOUS
10
90.5
20
-114.5
40
2
50
90
51
180
0
ARC
8
0
6
CONTINUOUS
10
90.5
20
-209.5
40
2
50
180
51
270
0
ARC
8
0
6
CONTINUOUS
10
375.5
20
-209.5
40
2
50
270
51
0
0
ARC
8
0
6
CONTINUOUS
10
375.5
20
-114.5
40
2
50
0
51
90
0
ARC
8
0
6
CONTINUOUS
10
341.5
20
-110.5
40
2
50
180
51
270
0
ARC
8
0
6
CONTINUOUS
10
322.5
20
-107.5
40
2
50
180
51
270
0
ARC
8
0
6
CONTINUOUS
10
303.5
20
-104.5
40
2
50
180
51
270
0
ARC
8
0
6
CONTINUOUS
10
299.5
20
-103.5
40
2
50
0
51
90
0
ARC
8
0
6
CONTINUOUS
10
280.5
20
-103.5
40
2
50
90
51
180
0
ARC
8
0
6
CONTINUOUS
10
276.5
20
-104.5
40
2
50
270
51
0
0
ARC
8
0
6
CONTINUOUS
10
261.5
20
-108.5
40
2
50
90
51
180
0
ARC
8
0
6
CONTINUOUS
10
257.5
20
-110.5
40
2
50
270
51
0
0
ARC
8
0
6
CONTINUOUS
10
242.5
20
-114.5
40
2
50
90
51
180
0
ARC
8
0
6
CONTINUOUS
10
242.5
20
-209.5
40
2
50
180
51
270
0
ARC
8
0
6
CONTINUOUS
10
261.5
20
-209.5
40
2
50
270
51
0
0
ARC
8
0
6
CONTINUOUS
10
265.5
20
-207.5
40
2
50
90
51
180
0
ARC
8
0
6
CONTINUOUS
10
280.5
20
-203.5
40
2
50
270
51
0
0
ARC
8
0
6
CONTINUOUS
10
284.5
20
-202.5
40
2
50
90
51
180
0
ARC
8
0
6
CONTINUOUS
10
295.5
20
-202.5
40
2
50
0
51
90
0
ARC
8
0
6
CONTINUOUS
10
299.5
20
-203.5
40
2
50
180
51
270
0
ARC
8
0
6
CONTINUOUS
10
314.5
20
-207.5
40
2
50
0
51
90
0
ARC
8
0
6
CONTINUOUS
10
333.5
20
-210.5
40
2
50
0
51
90
0
ENDSEC
0
EOF