0
SECTION
2
HEADER
9
$INSUNITS
70
4
0
ENDSEC
0
SECTION
2
TABLES
0
TABLE
2
LTYPE
0
LTYPE
72
65
70
0
2
CONTINUOUS
3
______
73
0
40
0
0
LTYPE
72
65
70
0
2
DASHED
3
_ _ _ 
73
2
40
7.5
49
5
49
-2.5
0
LTYPE
72
65
70
0
2
DOTTED
3
. . . 
73
2
40
1.5
49
0.5
49
-1
0
ENDTAB
0
TABLE
2
LAYER
0
ENDTAB
0
ENDSEC
0
SECTION
2
ENTITIES
0
LINE
8
0
6
CONTINUOUS
10
93
20
-207
11
107
21
-207
0
LINE
8
0
6
CONTINUOUS
10
107
20
-207
11
107
21
-193
0
LINE
8
0
6
CONTINUOUS
10
107
20
-193
11
93
21
-193
0
LINE
8
0
6
CONTINUOUS
10
93
20
-193
11
93
21
-207
0
LINE
8
0
6
CONTINUOUS
10
93
20
-188
11
107
21
-188
0
LINE
8
0
6
CONTINUOUS
10
107
20
-188
11
107
21
-174
0
LINE
8
0
6
CONTINUOUS
10
107
20
-174
11
93
21
-174
0
LINE
8
0
6
CONTINUOUS
10
93
20
-174
11
93
21
-188
0
LINE
8
0
6
CONTINUOUS
10
93
20
-169
11
107
21
-169
0
LINE
8
0
6
CONTINUOUS
10
107
20
-169
11
107
21
-155
0
LINE
8
0
6
CONTINUOUS
10
107
20
-155
11
93
21
-155
0
LINE
8
0
6
CONTINUOUS
10
93
20
-155
11
93
21
-169
0
LINE
8
0
6
CONTINUOUS
10
93
20
-150
11
107
21
-150
0
LINE
8
0
6
CONTINUOUS
10
107
20
-150
11
107
21
-136
0
LINE
8
0
6
CONTINUOUS
10
107
20
-136
11
93
21
-136
0
LINE
8
0
6
CONTINUOUS
10
93
20
-136
11
93
21
-150
0
LINE
8
0
6
CONTINUOUS
10
93
20
-131
11
107
21
-131
0
LINE
8
0
6
CONTINUOUS
10
107
20
-131
11
107
21
-117
0
LINE
8
0
6
CONTINUOUS
10
107
20
-117
11
93
21
-117
0
LINE
8
0
6
CONTINUOUS
10
93
20
-117
11
93
21
-131
0
LINE
8
0
6
CONTINUOUS
10
112
20
-207
11
126
21
-207
0
LINE
8
0
6
CONTINUOUS
10
126
20
-207
11
126
21
-193
0
LINE
8
0
6
CONTINUOUS
10
126
20
-193
11
112
21
-193
0
LINE
8
0
6
CONTINUOUS
10
112
20
-193
11
112
21
-207
0
LINE
8
0
6
CONTINUOUS
10
112
20
-188
11
126
21
-188
0
LINE
8
0
6
CONTINUOUS
10
126
20
-188
11
126
21
-174
0
LINE
8
0
6
CONTINUOUS
10
126
20
-174
11
112
21
-174
0
LINE
8
0
6
CONTINUOUS
10
112
20
-174
11
112
21
-188
0
LINE
8
0
6
CONTINUOUS
10
112
20
-169
11
126
21
-169
0
LINE
8
0
6
CONTINUOUS
10
126
20
-169
11
126
21
-155
0
LINE
8
0
6
CONTINUOUS
10
126
20
-155
11
112
21
-155
0
LINE
8
0
6
CONTINUOUS
10
112
20
-155
11
112
21
-169
0
LINE
8
0
6
CONTINUOUS
10
112
20
-150
11
126
21
-150
0
LINE
8
0
6
CONTINUOUS
10
126
20
-150
11
126
21
-136
0
LINE
8
0
6
CONTINUOUS
10
126
20
-136
11
112
21
-136
0
LINE
8
0
6
CONTINUOUS
10
112
20
-136
11
112
21
-150
0
LINE
8
0
6
CONTINUOUS
10
112
20
-131
11
126
21
-131
0
LINE
8
0
6
CONTINUOUS
10
126
20
-131
11
126
21
-117
0
LINE
8
0
6
CONTINUOUS
10
126
20
-117
11
112
21
-117
0
LINE
8
0
6
CONTINUOUS
10
112
20
-117
11
112
21
-131
0
LINE
8
0
6
CONTINUOUS
10
131
20
-204
11
145
21
-204
0
LINE
8
0
6
CONTINUOUS
10
145
20
-204
11
145
21
-190
0
LINE
8
0
6
CONTINUOUS
10
145
20
-190
11
131
21
-190
0
LINE
8
0
6
CONTINUOUS
10
131
20
-190
11
131
21
-204
0
LINE
8
0
6
CONTINUOUS
10
131
20
-185
11
145
21
-185
0
LINE
8
0
6
CONTINUOUS
10
145
20
-185
11
145
21
-171
0
LINE
8
0
6
CONTINUOUS
10
145
20
-171
11
131
21
-171
0
LINE
8
0
6
CONTINUOUS
10
131
20
-171
11
131
21
-185
0
LINE
8
0
6
CONTINUOUS
10
131
20
-166
11
145
21
-166
0
LINE
8
0
6
CONTINUOUS
10
145
20
-166
11
145
21
-152
0
LINE
8
0
6
CONTINUOUS
10
145
20
-152
11
131
21
-152
0
LINE
8
0
6
CONTINUOUS
10
131
20
-152
11
131
21
-166
0
LINE
8
0
6
CONTINUOUS
10
131
20
-147
11
145
21
-147
0
LINE
8
0
6
CONTINUOUS
10
145
20
-147
11
145
21
-133
0
LINE
8
0
6
CONTINUOUS
10
145
20
-133
11
131
21
-133
0
LINE
8
0
6
CONTINUOUS
10
131
20
-133
11
131
21
-147
0
LINE
8
0
6
CONTINUOUS
10
131
20
-128
11
145
21
-128
0
LINE
8
0
6
CONTINUOUS
10
145
20
-128
11
145
21
-114
0
LINE
8
0
6
CONTINUOUS
10
145
20
-114
11
131
21
-114
0
LINE
8
0
6
CONTINUOUS
10
131
20
-114
11
131
21
-128
0
LINE
8
0
6
CONTINUOUS
10
150
20
-201
11
164
21
-201
0
LINE
8
0
6
CONTINUOUS
10
164
20
-201
11
164
21
-187
0
LINE
8
0
6
CONTINUOUS
10
164
20
-187
11
150
21
-187
0
LINE
8
0
6
CONTINUOUS
10
150
20
-187
11
150
21
-201
0
LINE
8
0
6
CONTINUOUS
10
150
20
-182
11
164
21
-182
0
LINE
8
0
6
CONTINUOUS
10
164
20
-182
11
164
21
-168
0
LINE
8
0
6
CONTINUOUS
10
164
20
-168
11
150
21
-168
0
LINE
8
0
6
CONTINUOUS
10
150
20
-168
11
150
21
-182
0
LINE
8
0
6
CONTINUOUS
10
150
20
-163
11
164
21
-163
0
LINE
8
0
6
CONTINUOUS
10
164
20
-163
11
164
21
-149
0
LINE
8
0
6
CONTINUOUS
10
164
20
-149
11
150
21
-149
0
LINE
8
0
6
CONTINUOUS
10
150
20
-149
11
150
21
-163
0
LINE
8
0
6
CONTINUOUS
10
150
20
-144
11
164
21
-144
0
LINE
8
0
6
CONTINUOUS
10
164
20
-144
11
164
21
-130
0
LINE
8
0
6
CONTINUOUS
10
164
20
-130
11
150
21
-130
0
LINE
8
0
6
CONTINUOUS
10
150
20
-130
11
150
21
-144
0
LINE
8
0
6
CONTINUOUS
10
150
20
-125
11
164
21
-125
0
LINE
8
0
6
CONTINUOUS
10
164
20
-125
11
164
21
-111
0
LINE
8
0
6
CONTINUOUS
10
164
20
-111
11
150
21
-111
0
LINE
8
0
6
CONTINUOUS
10
150
20
-111
11
150
21
-125
0
LINE
8
0
6
CONTINUOUS
10
169
20
-196
11
183
21
-196
0
LINE
8
0
6
CONTINUOUS
10
183
20
-196
11
183
21
-182
0
LINE
8
0
6
CONTINUOUS
10
183
20
-182
11
169
21
-182
0
LINE
8
0
6
CONTINUOUS
10
169
20
-182
11
169
21
-196
0
LINE
8
0
6
CONTINUOUS
10
169
20
-177
11
183
21
-177
0
LINE
8
0
6
CONTINUOUS
10
183
20
-177
11
183
21
-163
0
LINE
8
0
6
CONTINUOUS
10
183
20
-163
11
169
21
-163
0
LINE
8
0
6
CONTINUOUS
10
169
20
-163
11
169
21
-177
0
LINE
8
0
6
CONTINUOUS
10
169
20
-158
11
183
21
-158
0
LINE
8
0
6
CONTINUOUS
10
183
20
-158
11
183
21
-144
0
LINE
8
0
6
CONTINUOUS
10
183
20
-144
11
169
21
-144
0
LINE
8
0
6
CONTINUOUS
10
169
20
-144
11
169
21
-158
0
LINE
8
0
6
CONTINUOUS
10
169
20
-139
11
183
21
-139
0
LINE
8
0
6
CONTINUOUS
10
183
20
-139
11
183
21
-125
0
LINE
8
0
6
CONTINUOUS
10
183
20
-125
11
169
21
-125
0
LINE
8
0
6
CONTINUOUS
10
169
20
-125
11
169
21
-139
0
LINE
8
0
6
CONTINUOUS
10
169
20
-120
11
183
21
-120
0
LINE
8
0
6
CONTINUOUS
10
183
20
-120
11
183
21
-106
0
LINE
8
0
6
CONTINUOUS
10
183
20
-106
11
169
21
-106
0
LINE
8
0
6
CONTINUOUS
10
169
20
-106
11
169
21
-120
0
LINE
8
0
6
CONTINUOUS
10
188
20
-201
11
202
21
-201
0
LINE
8
0
6
CONTINUOUS
10
202
20
-201
11
202
21
-187
0
LINE
8
0
6
CONTINUOUS
10
202
20
-187
11
188
21
-187
0
LINE
8
0
6
CONTINUOUS
10
188
20
-187
11
188
21
-201
0
LINE
8
0
6
CONTINUOUS
10
188
20
-182
11
202
21
-182
0
LINE
8
0
6
CONTINUOUS
10
202
20
-182
11
202
21
-168
0
LINE
8
0
6
CONTINUOUS
10
202
20
-168
11
188
21
-168
0
LINE
8
0
6
CONTINUOUS
10
188
20
-168
11
188
21
-182
0
LINE
8
0
6
CONTINUOUS
10
188
20
-163
11
202
21
-163
0
LINE
8
0
6
CONTINUOUS
10
202
20
-163
11
202
21
-149
0
LINE
8
0
6
CONTINUOUS
10
202
20
-149
11
188
21
-149
0
LINE
8
0
6
CONTINUOUS
10
188
20
-149
11
188
21
-163
0
LINE
8
0
6
CONTINUOUS
10
188
20
-144
11
202
21
-144
0
LINE
8
0
6
CONTINUOUS
10
202
20
-144
11
202
21
-130
0
LINE
8
0
6
CONTINUOUS
10
202
20
-130
11
188
21
-130
0
LINE
8
0
6
CONTINUOUS
10
188
20
-130
11
188
21
-144
0
LINE
8
0
6
CONTINUOUS
10
188
20
-125
11
202
21
-125
0
LINE
8
0
6
CONTINUOUS
10
202
20
-125
11
202
21
-111
0
LINE
8
0
6
CONTINUOUS
10
202
20
-111
11
188
21
-111
0
LINE
8
0
6
CONTINUOUS
10
188
20
-111
11
188
21
-125
0
LINE
8
0
6
CONTINUOUS
10
207
20
-207
11
221
21
-207
0
LINE
8
0
6
CONTINUOUS
10
221
20
-207
11
221
21
-193
0
LINE
8
0
6
CONTINUOUS
10
221
20
-193
11
207
21
-193
0
LINE
8
0
6
CONTINUOUS
10
207
20
-193
11
207
21
-207
0
LINE
8
0
6
CONTINUOUS
10
207
20
-188
11
221
21
-188
0
LINE
8
0
6
CONTINUOUS
10
221
20
-188
11
221
21
-174
0
LINE
8
0
6
CONTINUOUS
10
221
20
-174
11
207
21
-174
0
LINE
8
0
6
CONTINUOUS
10
207
20
-174
11
207
21
-188
0
LINE
8
0
6
CONTINUOUS
10
207
20
-169
11
221
21
-169
0
LINE
8
0
6
CONTINUOUS
10
221
20
-169
11
221
21
-155
0
LINE
8
0
6
CONTINUOUS
10
221
20
-155
11
207
21
-155
0
LINE
8
0
6
CONTINUOUS
10
207
20
-155
11
207
21
-169
0
LINE
8
0
6
CONTINUOUS
10
207
20
-150
11
221
21
-150
0
LINE
8
0
6
CONTINUOUS
10
221
20
-150
11
221
21
-136
0
LINE
8
0
6
CONTINUOUS
10
221
20
-136
11
207
21
-136
0
LINE
8
0
6
CONTINUOUS
10
207
20
-136
11
207
21
-150
0
LINE
8
0
6
CONTINUOUS
10
207
20
-131
11
221
21
-131
0
LINE
8
0
6
CONTINUOUS
10
221
20
-131
11
221
21
-117
0
LINE
8
0
6
CONTINUOUS
10
221
20
-117
11
207
21
-117
0
LINE
8
0
6
CONTINUOUS
10
207
20
-117
11
207
21
-131
0
LINE
8
0
6
CONTINUOUS
10
359
20
-207
11
373
21
-207
0
LINE
8
0
6
CONTINUOUS
10
373
20
-207
11
373
21
-193
0
LINE
8
0
6
CONTINUOUS
10
373
20
-193
11
359
21
-193
0
LINE
8
0
6
CONTINUOUS
10
359
20
-193
11
359
21
-207
0
LINE
8
0
6
CONTINUOUS
10
359
20
-188
11
373
21
-188
0
LINE
8
0
6
CONTINUOUS
10
373
20
-188
11
373
21
-174
0
LINE
8
0
6
CONTINUOUS
10
373
20
-174
11
359
21
-174
0
LINE
8
0
6
CONTINUOUS
10
359
20
-174
11
359
21
-188
0
LINE
8
0
6
CONTINUOUS
10
359
20
-169
11
373
21
-169
0
LINE
8
0
6
CONTINUOUS
10
373
20
-169
11
373
21
-155
0
LINE
8
0
6
CONTINUOUS
10
373
20
-155
11
359
21
-155
0
LINE
8
0
6
CONTINUOUS
10
359
20
-155
11
359
21
-169
0
LINE
8
0
6
CONTINUOUS
10
359
20
-150
11
373
21
-150
0
LINE
8
0
6
CONTINUOUS
10
373
20
-150
11
373
21
-136
0
LINE
8
0
6
CONTINUOUS
10
373
20
-136
11
359
21
-136
0
LINE
8
0
6
CONTINUOUS
10
359
20
-136
11
359
21
-150
0
LINE
8
0
6
CONTINUOUS
10
359
20
-131
11
373
21
-131
0
LINE
8
0
6
CONTINUOUS
10
373
20
-131
11
373
21
-117
0
LINE
8
0
6
CONTINUOUS
10
373
20
-117
11
359
21
-117
0
LINE
8
0
6
CONTINUOUS
10
359
20
-117
11
359
21
-131
0
LINE
8
0
6
CONTINUOUS
10
340
20
-207
11
354
21
-207
0
LINE
8
0
6
CONTINUOUS
10
354
20
-207
11
354
21
-193
0
LINE
8
0
6
CONTINUOUS
10
354
20
-193
11
340
21
-193
0
LINE
8
0
6
CONTINUOUS
10
340
20
-193
11
340
21
-207
0
LINE
8
0
6
CONTINUOUS
10
340
20
-188
11
354
21
-188
0
LINE
8
0
6
CONTINUOUS
10
354
20
-188
11
354
21
-174
0
LINE
8
0
6
CONTINUOUS
10
354
20
-174
11
340
21
-174
0
LINE
8
0
6
CONTINUOUS
10
340
20
-174
11
340
21
-188
0
LINE
8
0
6
CONTINUOUS
10
340
20
-169
11
354
21
-169
0
LINE
8
0
6
CONTINUOUS
10
354
20
-169
11
354
21
-155
0
LINE
8
0
6
CONTINUOUS
10
354
20
-155
11
340
21
-155
0
LINE
8
0
6
CONTINUOUS
10
340
20
-155
11
340
21
-169
0
LINE
8
0
6
CONTINUOUS
10
340
20
-150
11
354
21
-150
0
LINE
8
0
6
CONTINUOUS
10
354
20
-150
11
354
21
-136
0
LINE
8
0
6
CONTINUOUS
10
354
20
-136
11
340
21
-136
0
LINE
8
0
6
CONTINUOUS
10
340
20
-136
11
340
21
-150
0
LINE
8
0
6
CONTINUOUS
10
340
20
-131
11
354
21
-131
0
LINE
8
0
6
CONTINUOUS
10
354
20
-131
11
354
21
-117
0
LINE
8
0
6
CONTINUOUS
10
354
20
-117
11
340
21
-117
0
LINE
8
0
6
CONTINUOUS
10
340
20
-117
11
340
21
-131
0
LINE
8
0
6
CONTINUOUS
10
321
20
-204
11
335
21
-204
0
LINE
8
0
6
CONTINUOUS
10
335
20
-204
11
335
21
-190
0
LINE
8
0
6
CONTINUOUS
10
335
20
-190
11
321
21
-190
0
LINE
8
0
6
CONTINUOUS
10
321
20
-190
11
321
21
-204
0
LINE
8
0
6
CONTINUOUS
10
321
20
-185
11
335
21
-185
0
LINE
8
0
6
CONTINUOUS
10
335
20
-185
11
335
21
-171
0
LINE
8
0
6
CONTINUOUS
10
335
20
-171
11
321
21
-171
0
LINE
8
0
6
CONTINUOUS
10
321
20
-171
11
321
21
-185
0
LINE
8
0
6
CONTINUOUS
10
321
20
-166
11
335
21
-166
0
LINE
8
0
6
CONTINUOUS
10
335
20
-166
11
335
21
-152
0
LINE
8
0
6
CONTINUOUS
10
335
20
-152
11
321
21
-152
0
LINE
8
0
6
CONTINUOUS
10
321
20
-152
11
321
21
-166
0
LINE
8
0
6
CONTINUOUS
10
321
20
-147
11
335
21
-147
0
LINE
8
0
6
CONTINUOUS
10
335
20
-147
11
335
21
-133
0
LINE
8
0
6
CONTINUOUS
10
335
20
-133
11
321
21
-133
0
LINE
8
0
6
CONTINUOUS
10
321
20
-133
11
321
21
-147
0
LINE
8
0
6
CONTINUOUS
10
321
20
-128
11
335
21
-128
0
LINE
8
0
6
CONTINUOUS
10
335
20
-128
11
335
21
-114
0
LINE
8
0
6
CONTINUOUS
10
335
20
-114
11
321
21
-114
0
LINE
8
0
6
CONTINUOUS
10
321
20
-114
11
321
21
-128
0
LINE
8
0
6
CONTINUOUS
10
302
20
-201
11
316
21
-201
0
LINE
8
0
6
CONTINUOUS
10
316
20
-201
11
316
21
-187
0
LINE
8
0
6
CONTINUOUS
10
316
20
-187
11
302
21
-187
0
LINE
8
0
6
CONTINUOUS
10
302
20
-187
11
302
21
-201
0
LINE
8
0
6
CONTINUOUS
10
302
20
-182
11
316
21
-182
0
LINE
8
0
6
CONTINUOUS
10
316
20
-182
11
316
21
-168
0
LINE
8
0
6
CONTINUOUS
10
316
20
-168
11
302
21
-168
0
LINE
8
0
6
CONTINUOUS
10
302
20
-168
11
302
21
-182
0
LINE
8
0
6
CONTINUOUS
10
302
20
-163
11
316
21
-163
0
LINE
8
0
6
CONTINUOUS
10
316
20
-163
11
316
21
-149
0
LINE
8
0
6
CONTINUOUS
10
316
20
-149
11
302
21
-149
0
LINE
8
0
6
CONTINUOUS
10
302
20
-149
11
302
21
-163
0
LINE
8
0
6
CONTINUOUS
10
302
20
-144
11
316
21
-144
0
LINE
8
0
6
CONTINUOUS
10
316
20
-144
11
316
21
-130
0
LINE
8
0
6
CONTINUOUS
10
316
20
-130
11
302
21
-130
0
LINE
8
0
6
CONTINUOUS
10
302
20
-130
11
302
21
-144
0
LINE
8
0
6
CONTINUOUS
10
302
20
-125
11
316
21
-125
0
LINE
8
0
6
CONTINUOUS
10
316
20
-125
11
316
21
-111
0
LINE
8
0
6
CONTINUOUS
10
316
20
-111
11
302
21
-111
0
LINE
8
0
6
CONTINUOUS
10
302
20
-111
11
302
21
-125
0
LINE
8
0
6
CONTINUOUS
10
283
20
-196
11
297
21
-196
0
LINE
8
0
6
CONTINUOUS
10
297
20
-196
11
297
21
-182
0
LINE
8
0
6
CONTINUOUS
10
297
20
-182
11
283
21
-182
0
LINE
8
0
6
CONTINUOUS
10
283
20
-182
11
283
21
-196
0
LINE
8
0
6
CONTINUOUS
10
283
20
-177
11
297
21
-177
0
LINE
8
0
6
CONTINUOUS
10
297
20
-177
11
297
21
-163
0
LINE
8
0
6
CONTINUOUS
10
297
20
-163
11
283
21
-163
0
LINE
8
0
6
CONTINUOUS
10
283
20
-163
11
283
21
-177
0
LINE
8
0
6
CONTINUOUS
10
283
20
-158
11
297
21
-158
0
LINE
8
0
6
CONTINUOUS
10
297
20
-158
11
297
21
-144
0
LINE
8
0
6
CONTINUOUS
10
297
20
-144
11
283
21
-144
0
LINE
8
0
6
CONTINUOUS
10
283
20
-144
11
283
21
-158
0
LINE
8
0
6
CONTINUOUS
10
283
20
-139
11
297
21
-139
0
LINE
8
0
6
CONTINUOUS
10
297
20
-139
11
297
21
-125
0
LINE
8
0
6
CONTINUOUS
10
297
20
-125
11
283
21
-125
0
LINE
8
0
6
CONTINUOUS
10
283
20
-125
11
283
21
-139
0
LINE
8
0
6
CONTINUOUS
10
283
20
-120
11
297
21
-120
0
LINE
8
0
6
CONTINUOUS
10
297
20
-120
11
297
21
-106
0
LINE
8
0
6
CONTINUOUS
10
297
20
-106
11
283
21
-106
0
LINE
8
0
6
CONTINUOUS
10
283
20
-106
11
283
21
-120
0
LINE
8
0
6
CONTINUOUS
10
264
20
-201
11
278
21
-201
0
LINE
8
0
6
CONTINUOUS
10
278
20
-201
11
278
21
-187
0
LINE
8
0
6
CONTINUOUS
10
278
20
-187
11
264
21
-187
0
LINE
8
0
6
CONTINUOUS
10
264
20
-187
11
264
21
-201
0
LINE
8
0
6
CONTINUOUS
10
264
20
-182
11
278
21
-182
0
LINE
8
0
6
CONTINUOUS
10
278
20
-182
11
278
21
-168
0
LINE
8
0
6
CONTINUOUS
10
278
20
-168
11
264
21
-168
0
LINE
8
0
6
CONTINUOUS
10
264
20
-168
11
264
21
-182
0
LINE
8
0
6
CONTINUOUS
10
264
20
-163
11
278
21
-163
0
LINE
8
0
6
CONTINUOUS
10
278
20
-163
11
278
21
-149
0
LINE
8
0
6
CONTINUOUS
10
278
20
-149
11
264
21
-149
0
LINE
8
0
6
CONTINUOUS
10
264
20
-149
11
264
21
-163
0
LINE
8
0
6
CONTINUOUS
10
264
20
-144
11
278
21
-144
0
LINE
8
0
6
CONTINUOUS
10
278
20
-144
11
278
21
-130
0
LINE
8
0
6
CONTINUOUS
10
278
20
-130
11
264
21
-130
0
LINE
8
0
6
CONTINUOUS
10
264
20
-130
11
264
21
-144
0
LINE
8
0
6
CONTINUOUS
10
264
20
-125
11
278
21
-125
0
LINE
8
0
6
CONTINUOUS
10
278
20
-125
11
278
21
-111
0
LINE
8
0
6
CONTINUOUS
10
278
20
-111
11
264
21
-111
0
LINE
8
0
6
CONTINUOUS
10
264
20
-111
11
264
21
-125
0
LINE
8
0
6
CONTINUOUS
10
245
20
-207
11
259
21
-207
0
LINE
8
0
6
CONTINUOUS
10
259
20
-207
11
259
21
-193
0
LINE
8
0
6
CONTINUOUS
10
259
20
-193
11
245
21
-193
0
LINE
8
0
6
CONTINUOUS
10
245
20
-193
11
245
21
-207
0
LINE
8
0
6
CONTINUOUS
10
245
20
-188
11
259
21
-188
0
LINE
8
0
6
CONTINUOUS
10
259
20
-188
11
259
21
-174
0
LINE
8
0
6
CONTINUOUS
10
259
20
-174
11
245
21
-174
0
LINE
8
0
6
CONTINUOUS
10
245
20
-174
11
245
21
-188
0
LINE
8
0
6
CONTINUOUS
10
245
20
-169
11
259
21
-169
0
LINE
8
0
6
CONTINUOUS
10
259
20
-169
11
259
21
-155
0
LINE
8
0
6
CONTINUOUS
10
259
20
-155
11
245
21
-155
0
LINE
8
0
6
CONTINUOUS
10
245
20
-155
11
245
21
-169
0
LINE
8
0
6
CONTINUOUS
10
245
20
-150
11
259
21
-150
0
LINE
8
0
6
CONTINUOUS
10
259
20
-150
11
259
21
-136
0
LINE
8
0
6
CONTINUOUS
10
259
20
-136
11
245
21
-136
0
LINE
8
0
6
CONTINUOUS
10
245
20
-136
11
245
21
-150
0
LINE
8
0
6
CONTINUOUS
10
245
20
-131
11
259
21
-131
0
LINE
8
0
6
CONTINUOUS
10
259
20
-131
11
259
21
-117
0
LINE
8
0
6
CONTINUOUS
10
259
20
-117
11
245
21
-117
0
LINE
8
0
6
CONTINUOUS
10
245
20
-117
11
245
21
-131
0
ENDSEC
0
EOF