0
SECTION
2
HEADER
9
$INSUNITS
70
4
0
ENDSEC
0
SECTION
2
TABLES
0
TABLE
2
LTYPE
0
LTYPE
72
65
70
0
2
CONTINUOUS
3
______
73
0
40
0
0
LTYPE
72
65
70
0
2
DASHED
3
_ _ _ 
73
2
40
7.5
49
5
49
-2.5
0
LTYPE
72
65
70
0
2
DOTTED
3
. . . 
73
2
40
1.5
49
0.5
49
-1
0
ENDTAB
0
TABLE
2
LAYER
0
ENDTAB
0
ENDSEC
0
SECTION
2
ENTITIES
0
LINE
8
0
6
CONTINUOUS
10
88.5
20
-209.5
11
88.5
21
-114.5
0
LINE
8
0
6
CONTINUOUS
10
90.5
20
-112.5
11
126.2300114
21
-112.5
0
LINE
8
0
6
CONTINUOUS
10
126.7603244
20
-112.4284108
11
166.2396756
21
-101.5715892
0
LINE
8
0
6
CONTINUOUS
10
166.7699886
20
-101.5
11
185.2300114
21
-101.5
0
LINE
8
0
6
CONTINUOUS
10
185.7603244
20
-101.5715892
11
224.030313
21
-112.0958361
0
LINE
8
0
6
CONTINUOUS
10
225.5
20
-114.0242469
11
225.5
21
-209.5
0
LINE
8
0
6
CONTINUOUS
10
90.5
20
-211.5
11
223.5
21
-211.5
0
ARC
8
0
6
CONTINUOUS
10
90.5
20
-114.5
40
2
50
90
51
180
0
ARC
8
0
6
CONTINUOUS
10
126.2300114
20
-110.5
40
2
50
270
51
285.3762521
0
ARC
8
0
6
CONTINUOUS
10
166.7699886
20
-103.5
40
2
50
90
51
105.3762521
0
ARC
8
0
6
CONTINUOUS
10
185.2300114
20
-103.5
40
2
50
74.6237479
51
90
0
ARC
8
0
6
CONTINUOUS
10
223.5
20
-114.0242469
40
2
50
0
51
74.6237479
0
ARC
8
0
6
CONTINUOUS
10
223.5
20
-209.5
40
2
50
270
51
0
0
ARC
8
0
6
CONTINUOUS
10
90.5
20
-209.5
40
2
50
180
51
270
0
LINE
8
0
6
CONTINUOUS
10
93
20
-207
11
107
21
-207
0
LINE
8
0
6
CONTINUOUS
10
107
20
-207
11
107
21
-193
0
LINE
8
0
6
CONTINUOUS
10
107
20
-193
11
93
21
-193
0
LINE
8
0
6
CONTINUOUS
10
93
20
-193
11
93
21
-207
0
LINE
8
0
6
CONTINUOUS
10
93
20
-188
11
107
21
-188
0
LINE
8
0
6
CONTINUOUS
10
107
20
-188
11
107
21
-174
0
LINE
8
0
6
CONTINUOUS
10
107
20
-174
11
93
21
-174
0
LINE
8
0
6
CONTINUOUS
10
93
20
-174
11
93
21
-188
0
LINE
8
0
6
CONTINUOUS
10
93
20
-169
11
107
21
-169
0
LINE
8
0
6
CONTINUOUS
10
107
20
-169
11
107
21
-155
0
LINE
8
0
6
CONTINUOUS
10
107
20
-155
11
93
21
-155
0
LINE
8
0
6
CONTINUOUS
10
93
20
-155
11
93
21
-169
0
LINE
8
0
6
CONTINUOUS
10
93
20
-150
11
107
21
-150
0
LINE
8
0
6
CONTINUOUS
10
107
20
-150
11
107
21
-136
0
LINE
8
0
6
CONTINUOUS
10
107
20
-136
11
93
21
-136
0
LINE
8
0
6
CONTINUOUS
10
93
20
-136
11
93
21
-150
0
LINE
8
0
6
CONTINUOUS
10
93
20
-131
11
107
21
-131
0
LINE
8
0
6
CONTINUOUS
10
107
20
-131
11
107
21
-117
0
LINE
8
0
6
CONTINUOUS
10
107
20
-117
11
93
21
-117
0
LINE
8
0
6
CONTINUOUS
10
93
20
-117
11
93
21
-131
0
LINE
8
0
6
CONTINUOUS
10
112
20
-207
11
126
21
-207
0
LINE
8
0
6
CONTINUOUS
10
126
20
-207
11
126
21
-193
0
LINE
8
0
6
CONTINUOUS
10
126
20
-193
11
112
21
-193
0
LINE
8
0
6
CONTINUOUS
10
112
20
-193
11
112
21
-207
0
LINE
8
0
6
CONTINUOUS
10
112
20
-188
11
126
21
-188
0
LINE
8
0
6
CONTINUOUS
10
126
20
-188
11
126
21
-174
0
LINE
8
0
6
CONTINUOUS
10
126
20
-174
11
112
21
-174
0
LINE
8
0
6
CONTINUOUS
10
112
20
-174
11
112
21
-188
0
LINE
8
0
6
CONTINUOUS
10
112
20
-169
11
126
21
-169
0
LINE
8
0
6
CONTINUOUS
10
126
20
-169
11
126
21
-155
0
LINE
8
0
6
CONTINUOUS
10
126
20
-155
11
112
21
-155
0
LINE
8
0
6
CONTINUOUS
10
112
20
-155
11
112
21
-169
0
LINE
8
0
6
CONTINUOUS
10
112
20
-150
11
126
21
-150
0
LINE
8
0
6
CONTINUOUS
10
126
20
-150
11
126
21
-136
0
LINE
8
0
6
CONTINUOUS
10
126
20
-136
11
112
21
-136
0
LINE
8
0
6
CONTINUOUS
10
112
20
-136
11
112
21
-150
0
LINE
8
0
6
CONTINUOUS
10
112
20
-131
11
126
21
-131
0
LINE
8
0
6
CONTINUOUS
10
126
20
-131
11
126
21
-117
0
LINE
8
0
6
CONTINUOUS
10
126
20
-117
11
112
21
-117
0
LINE
8
0
6
CONTINUOUS
10
112
20
-117
11
112
21
-131
0
LINE
8
0
6
CONTINUOUS
10
131
20
-204
11
145
21
-204
0
LINE
8
0
6
CONTINUOUS
10
145
20
-204
11
145
21
-190
0
LINE
8
0
6
CONTINUOUS
10
145
20
-190
11
131
21
-190
0
LINE
8
0
6
CONTINUOUS
10
131
20
-190
11
131
21
-204
0
LINE
8
0
6
CONTINUOUS
10
131
20
-185
11
145
21
-185
0
LINE
8
0
6
CONTINUOUS
10
145
20
-185
11
145
21
-171
0
LINE
8
0
6
CONTINUOUS
10
145
20
-171
11
131
21
-171
0
LINE
8
0
6
CONTINUOUS
10
131
20
-171
11
131
21
-185
0
LINE
8
0
6
CONTINUOUS
10
131
20
-166
11
145
21
-166
0
LINE
8
0
6
CONTINUOUS
10
145
20
-166
11
145
21
-152
0
LINE
8
0
6
CONTINUOUS
10
145
20
-152
11
131
21
-152
0
LINE
8
0
6
CONTINUOUS
10
131
20
-152
11
131
21
-166
0
LINE
8
0
6
CONTINUOUS
10
131
20
-147
11
145
21
-147
0
LINE
8
0
6
CONTINUOUS
10
145
20
-147
11
145
21
-133
0
LINE
8
0
6
CONTINUOUS
10
145
20
-133
11
131
21
-133
0
LINE
8
0
6
CONTINUOUS
10
131
20
-133
11
131
21
-147
0
LINE
8
0
6
CONTINUOUS
10
131
20
-128
11
145
21
-128
0
LINE
8
0
6
CONTINUOUS
10
145
20
-128
11
145
21
-114
0
LINE
8
0
6
CONTINUOUS
10
145
20
-114
11
131
21
-114
0
LINE
8
0
6
CONTINUOUS
10
131
20
-114
11
131
21
-128
0
LINE
8
0
6
CONTINUOUS
10
150
20
-201
11
164
21
-201
0
LINE
8
0
6
CONTINUOUS
10
164
20
-201
11
164
21
-187
0
LINE
8
0
6
CONTINUOUS
10
164
20
-187
11
150
21
-187
0
LINE
8
0
6
CONTINUOUS
10
150
20
-187
11
150
21
-201
0
LINE
8
0
6
CONTINUOUS
10
150
20
-182
11
164
21
-182
0
LINE
8
0
6
CONTINUOUS
10
164
20
-182
11
164
21
-168
0
LINE
8
0
6
CONTINUOUS
10
164
20
-168
11
150
21
-168
0
LINE
8
0
6
CONTINUOUS
10
150
20
-168
11
150
21
-182
0
LINE
8
0
6
CONTINUOUS
10
150
20
-163
11
164
21
-163
0
LINE
8
0
6
CONTINUOUS
10
164
20
-163
11
164
21
-149
0
LINE
8
0
6
CONTINUOUS
10
164
20
-149
11
150
21
-149
0
LINE
8
0
6
CONTINUOUS
10
150
20
-149
11
150
21
-163
0
LINE
8
0
6
CONTINUOUS
10
150
20
-144
11
164
21
-144
0
LINE
8
0
6
CONTINUOUS
10
164
20
-144
11
164
21
-130
0
LINE
8
0
6
CONTINUOUS
10
164
20
-130
11
150
21
-130
0
LINE
8
0
6
CONTINUOUS
10
150
20
-130
11
150
21
-144
0
LINE
8
0
6
CONTINUOUS
10
150
20
-125
11
164
21
-125
0
LINE
8
0
6
CONTINUOUS
10
164
20
-125
11
164
21
-111
0
LINE
8
0
6
CONTINUOUS
10
164
20
-111
11
150
21
-111
0
LINE
8
0
6
CONTINUOUS
10
150
20
-111
11
150
21
-125
0
LINE
8
0
6
CONTINUOUS
10
169
20
-196
11
183
21
-196
0
LINE
8
0
6
CONTINUOUS
10
183
20
-196
11
183
21
-182
0
LINE
8
0
6
CONTINUOUS
10
183
20
-182
11
169
21
-182
0
LINE
8
0
6
CONTINUOUS
10
169
20
-182
11
169
21
-196
0
LINE
8
0
6
CONTINUOUS
10
169
20
-177
11
183
21
-177
0
LINE
8
0
6
CONTINUOUS
10
183
20
-177
11
183
21
-163
0
LINE
8
0
6
CONTINUOUS
10
183
20
-163
11
169
21
-163
0
LINE
8
0
6
CONTINUOUS
10
169
20
-163
11
169
21
-177
0
LINE
8
0
6
CONTINUOUS
10
169
20
-158
11
183
21
-158
0
LINE
8
0
6
CONTINUOUS
10
183
20
-158
11
183
21
-144
0
LINE
8
0
6
CONTINUOUS
10
183
20
-144
11
169
21
-144
0
LINE
8
0
6
CONTINUOUS
10
169
20
-144
11
169
21
-158
0
LINE
8
0
6
CONTINUOUS
10
169
20
-139
11
183
21
-139
0
LINE
8
0
6
CONTINUOUS
10
183
20
-139
11
183
21
-125
0
LINE
8
0
6
CONTINUOUS
10
183
20
-125
11
169
21
-125
0
LINE
8
0
6
CONTINUOUS
10
169
20
-125
11
169
21
-139
0
LINE
8
0
6
CONTINUOUS
10
169
20
-120
11
183
21
-120
0
LINE
8
0
6
CONTINUOUS
10
183
20
-120
11
183
21
-106
0
LINE
8
0
6
CONTINUOUS
10
183
20
-106
11
169
21
-106
0
LINE
8
0
6
CONTINUOUS
10
169
20
-106
11
169
21
-120
0
LINE
8
0
6
CONTINUOUS
10
188
20
-201
11
202
21
-201
0
LINE
8
0
6
CONTINUOUS
10
202
20
-201
11
202
21
-187
0
LINE
8
0
6
CONTINUOUS
10
202
20
-187
11
188
21
-187
0
LINE
8
0
6
CONTINUOUS
10
188
20
-187
11
188
21
-201
0
LINE
8
0
6
CONTINUOUS
10
188
20
-182
11
202
21
-182
0
LINE
8
0
6
CONTINUOUS
10
202
20
-182
11
202
21
-168
0
LINE
8
0
6
CONTINUOUS
10
202
20
-168
11
188
21
-168
0
LINE
8
0
6
CONTINUOUS
10
188
20
-168
11
188
21
-182
0
LINE
8
0
6
CONTINUOUS
10
188
20
-163
11
202
21
-163
0
LINE
8
0
6
CONTINUOUS
10
202
20
-163
11
202
21
-149
0
LINE
8
0
6
CONTINUOUS
10
202
20
-149
11
188
21
-149
0
LINE
8
0
6
CONTINUOUS
10
188
20
-149
11
188
21
-163
0
LINE
8
0
6
CONTINUOUS
10
188
20
-144
11
202
21
-144
0
LINE
8
0
6
CONTINUOUS
10
202
20
-144
11
202
21
-130
0
LINE
8
0
6
CONTINUOUS
10
202
20
-130
11
188
21
-130
0
LINE
8
0
6
CONTINUOUS
10
188
20
-130
11
188
21
-144
0
LINE
8
0
6
CONTINUOUS
10
188
20
-125
11
202
21
-125
0
LINE
8
0
6
CONTINUOUS
10
202
20
-125
11
202
21
-111
0
LINE
8
0
6
CONTINUOUS
10
202
20
-111
11
188
21
-111
0
LINE
8
0
6
CONTINUOUS
10
188
20
-111
11
188
21
-125
0
LINE
8
0
6
CONTINUOUS
10
207
20
-207
11
221
21
-207
0
LINE
8
0
6
CONTINUOUS
10
221
20
-207
11
221
21
-193
0
LINE
8
0
6
CONTINUOUS
10
221
20
-193
11
207
21
-193
0
LINE
8
0
6
CONTINUOUS
10
207
20
-193
11
207
21
-207
0
LINE
8
0
6
CONTINUOUS
10
207
20
-188
11
221
21
-188
0
LINE
8
0
6
CONTINUOUS
10
221
20
-188
11
221
21
-174
0
LINE
8
0
6
CONTINUOUS
10
221
20
-174
11
207
21
-174
0
LINE
8
0
6
CONTINUOUS
10
207
20
-174
11
207
21
-188
0
LINE
8
0
6
CONTINUOUS
10
207
20
-169
11
221
21
-169
0
LINE
8
0
6
CONTINUOUS
10
221
20
-169
11
221
21
-155
0
LINE
8
0
6
CONTINUOUS
10
221
20
-155
11
207
21
-155
0
LINE
8
0
6
CONTINUOUS
10
207
20
-155
11
207
21
-169
0
LINE
8
0
6
CONTINUOUS
10
207
20
-150
11
221
21
-150
0
LINE
8
0
6
CONTINUOUS
10
221
20
-150
11
221
21
-136
0
LINE
8
0
6
CONTINUOUS
10
221
20
-136
11
207
21
-136
0
LINE
8
0
6
CONTINUOUS
10
207
20
-136
11
207
21
-150
0
LINE
8
0
6
CONTINUOUS
10
207
20
-131
11
221
21
-131
0
LINE
8
0
6
CONTINUOUS
10
221
20
-131
11
221
21
-117
0
LINE
8
0
6
CONTINUOUS
10
221
20
-117
11
207
21
-117
0
LINE
8
0
6
CONTINUOUS
10
207
20
-117
11
207
21
-131
0
ENDSEC
0
EOF