0
SECTION
2
HEADER
9
$INSUNITS
70
4
0
ENDSEC
0
SECTION
2
TABLES
0
TABLE
2
LTYPE
0
LTYPE
72
65
70
0
2
CONTINUOUS
3
______
73
0
40
0
0
LTYPE
72
65
70
0
2
DASHED
3
_ _ _ 
73
2
40
7.5
49
5
49
-2.5
0
LTYPE
72
65
70
0
2
DOTTED
3
. . . 
73
2
40
1.5
49
0.5
49
-1
0
ENDTAB
0
TABLE
2
LAYER
0
ENDTAB
0
ENDSEC
0
SECTION
2
ENTITIES
0
LINE
8
0
6
CONTINUOUS
10
-9.5
20
-11.5
11
28.5
21
-11.5
0
LINE
8
0
6
CONTINUOUS
10
-11.5
20
-9.5
11
-11.5
21
85.5
0
LINE
8
0
6
CONTINUOUS
10
-9.5
20
87.5
11
26.5
21
87.5
0
LINE
8
0
6
CONTINUOUS
10
30.5
20
-9.5
11
30.5
21
-8.5
0
LINE
8
0
6
CONTINUOUS
10
30.5
20
-8.5
11
47.5
21
-8.5
0
LINE
8
0
6
CONTINUOUS
10
49.5
20
-6.5
11
49.5
21
11.5
0
LINE
8
0
6
CONTINUOUS
10
43.5
20
90.5
11
28.5
21
90.5
0
LINE
8
0
6
CONTINUOUS
10
26.5
20
88.5
11
26.5
21
87.5
0
LINE
8
0
6
CONTINUOUS
10
51.5
20
13.5
11
66.5
21
13.5
0
LINE
8
0
6
CONTINUOUS
10
68.5
20
15.5
11
68.5
21
16.5
0
LINE
8
0
6
CONTINUOUS
10
45.5
20
92.5
11
45.5
21
110.5
0
LINE
8
0
6
CONTINUOUS
10
62.5
20
112.5
11
47.5
21
112.5
0
LINE
8
0
6
CONTINUOUS
10
70.5
20
18.5
11
81.5
21
18.5
0
LINE
8
0
6
CONTINUOUS
10
87.5
20
114.5
11
87.5
21
115.5
0
LINE
8
0
6
CONTINUOUS
10
85.5
20
117.5
11
66.5
21
117.5
0
LINE
8
0
6
CONTINUOUS
10
64.5
20
115.5
11
64.5
21
114.5
0
LINE
8
0
6
CONTINUOUS
10
85.5
20
13.5
11
100.5
21
13.5
0
LINE
8
0
6
CONTINUOUS
10
83.5
20
16.5
11
83.5
21
15.5
0
LINE
8
0
6
CONTINUOUS
10
106.5
20
108.5
11
106.5
21
110.5
0
LINE
8
0
6
CONTINUOUS
10
104.5
20
112.5
11
89.5
21
112.5
0
LINE
8
0
6
CONTINUOUS
10
104.5
20
7.5
11
123.5
21
7.5
0
LINE
8
0
6
CONTINUOUS
10
125.5
20
9.5
11
125.5
21
104.5
0
LINE
8
0
6
CONTINUOUS
10
102.5
20
11.5
11
102.5
21
9.5
0
LINE
8
0
6
CONTINUOUS
10
123.5
20
106.5
11
108.5
21
106.5
0
ARC
8
0
6
CONTINUOUS
10
28.5
20
-9.5
40
2
50
270
51
0
0
ARC
8
0
6
CONTINUOUS
10
47.5
20
-6.5
40
2
50
270
51
0
0
ARC
8
0
6
CONTINUOUS
10
51.5
20
11.5
40
2
50
90
51
180
0
ARC
8
0
6
CONTINUOUS
10
66.5
20
15.5
40
2
50
270
51
0
0
ARC
8
0
6
CONTINUOUS
10
70.5
20
16.5
40
2
50
90
51
180
0
ARC
8
0
6
CONTINUOUS
10
81.5
20
16.5
40
2
50
0
51
90
0
ARC
8
0
6
CONTINUOUS
10
85.5
20
15.5
40
2
50
180
51
270
0
ARC
8
0
6
CONTINUOUS
10
100.5
20
11.5
40
2
50
0
51
90
0
ARC
8
0
6
CONTINUOUS
10
104.5
20
9.5
40
2
50
180
51
270
0
ARC
8
0
6
CONTINUOUS
10
123.5
20
9.5
40
2
50
270
51
0
0
ARC
8
0
6
CONTINUOUS
10
123.5
20
104.5
40
2
50
0
51
90
0
ARC
8
0
6
CONTINUOUS
10
108.5
20
108.5
40
2
50
180
51
270
0
ARC
8
0
6
CONTINUOUS
10
104.5
20
110.5
40
2
50
0
51
90
0
ARC
8
0
6
CONTINUOUS
10
89.5
20
114.5
40
2
50
180
51
270
0
ARC
8
0
6
CONTINUOUS
10
85.5
20
115.5
40
2
50
0
51
90
0
ARC
8
0
6
CONTINUOUS
10
66.5
20
115.5
40
2
50
90
51
180
0
ARC
8
0
6
CONTINUOUS
10
62.5
20
114.5
40
2
50
270
51
0
0
ARC
8
0
6
CONTINUOUS
10
47.5
20
110.5
40
2
50
90
51
180
0
ARC
8
0
6
CONTINUOUS
10
43.5
20
92.5
40
2
50
270
51
0
0
ARC
8
0
6
CONTINUOUS
10
28.5
20
88.5
40
2
50
90
51
180
0
ARC
8
0
6
CONTINUOUS
10
-9.5
20
85.5
40
2
50
90
51
180
0
ARC
8
0
6
CONTINUOUS
10
-9.5
20
-9.5
40
2
50
180
51
270
0
ENDSEC
0
EOF