0
SECTION
2
HEADER
9
$INSUNITS
70
4
0
ENDSEC
0
SECTION
2
TABLES
0
TABLE
2
LTYPE
0
LTYPE
72
65
70
0
2
CONTINUOUS
3
______
73
0
40
0
0
LTYPE
72
65
70
0
2
DASHED
3
_ _ _ 
73
2
40
7.5
49
5
49
-2.5
0
LTYPE
72
65
70
0
2
DOTTED
3
. . . 
73
2
40
1.5
49
0.5
49
-1
0
ENDTAB
0
TABLE
2
LAYER
0
ENDTAB
0
ENDSEC
0
SECTION
2
ENTITIES
0
LINE
8
0
6
CONTINUOUS
10
-8.5
20
-10.5
11
27.5
21
-10.5
0
LINE
8
0
6
CONTINUOUS
10
-10.5
20
-8.5
11
-10.5
21
84.5
0
LINE
8
0
6
CONTINUOUS
10
-8.5
20
86.5
11
27.5
21
86.5
0
LINE
8
0
6
CONTINUOUS
10
29.5
20
-8.5
11
29.5
21
-7.5
0
LINE
8
0
6
CONTINUOUS
10
29.5
20
-7.5
11
46.5
21
-7.5
0
LINE
8
0
6
CONTINUOUS
10
48.5
20
-5.5
11
48.5
21
-4.5
0
LINE
8
0
6
CONTINUOUS
10
46.5
20
89.5
11
29.5
21
89.5
0
LINE
8
0
6
CONTINUOUS
10
27.5
20
87.5
11
27.5
21
86.5
0
LINE
8
0
6
CONTINUOUS
10
48.5
20
-4.5
11
65.5
21
-4.5
0
LINE
8
0
6
CONTINUOUS
10
67.5
20
-2.5
11
67.5
21
-1.5
0
LINE
8
0
6
CONTINUOUS
10
63.5
20
92.5
11
48.5
21
92.5
0
LINE
8
0
6
CONTINUOUS
10
46.5
20
90.5
11
46.5
21
89.5
0
LINE
8
0
6
CONTINUOUS
10
69.5
20
0.5
11
82.5
21
0.5
0
LINE
8
0
6
CONTINUOUS
10
86.5
20
94.5
11
86.5
21
95.5
0
LINE
8
0
6
CONTINUOUS
10
84.5
20
97.5
11
67.5
21
97.5
0
LINE
8
0
6
CONTINUOUS
10
65.5
20
95.5
11
65.5
21
94.5
0
LINE
8
0
6
CONTINUOUS
10
86.5
20
-4.5
11
101.5
21
-4.5
0
LINE
8
0
6
CONTINUOUS
10
84.5
20
-1.5
11
84.5
21
-2.5
0
LINE
8
0
6
CONTINUOUS
10
105.5
20
88.5
11
105.5
21
90.5
0
LINE
8
0
6
CONTINUOUS
10
103.5
20
92.5
11
88.5
21
92.5
0
LINE
8
0
6
CONTINUOUS
10
105.5
20
-10.5
11
122.5
21
-10.5
0
LINE
8
0
6
CONTINUOUS
10
124.5
20
-8.5
11
124.5
21
84.5
0
LINE
8
0
6
CONTINUOUS
10
103.5
20
-6.5
11
103.5
21
-8.5
0
LINE
8
0
6
CONTINUOUS
10
122.5
20
86.5
11
107.5
21
86.5
0
LINE
8
0
6
CONTINUOUS
10
228.5
20
-10.5
11
266.5
21
-10.5
0
LINE
8
0
6
CONTINUOUS
10
268.5
20
-8.5
11
268.5
21
84.5
0
LINE
8
0
6
CONTINUOUS
10
232.5
20
86.5
11
266.5
21
86.5
0
LINE
8
0
6
CONTINUOUS
10
228.5
20
-9.5
11
228.5
21
-10.5
0
LINE
8
0
6
CONTINUOUS
10
209.5
20
-7.5
11
226.5
21
-7.5
0
LINE
8
0
6
CONTINUOUS
10
209.5
20
-6.5
11
209.5
21
-7.5
0
LINE
8
0
6
CONTINUOUS
10
230.5
20
88.5
11
230.5
21
89.5
0
LINE
8
0
6
CONTINUOUS
10
230.5
20
89.5
11
213.5
21
89.5
0
LINE
8
0
6
CONTINUOUS
10
192.5
20
-4.5
11
207.5
21
-4.5
0
LINE
8
0
6
CONTINUOUS
10
190.5
20
-1.5
11
190.5
21
-2.5
0
LINE
8
0
6
CONTINUOUS
10
211.5
20
91.5
11
211.5
21
92.5
0
LINE
8
0
6
CONTINUOUS
10
211.5
20
92.5
11
194.5
21
92.5
0
LINE
8
0
6
CONTINUOUS
10
175.5
20
0.5
11
188.5
21
0.5
0
LINE
8
0
6
CONTINUOUS
10
192.5
20
94.5
11
192.5
21
95.5
0
LINE
8
0
6
CONTINUOUS
10
190.5
20
97.5
11
173.5
21
97.5
0
LINE
8
0
6
CONTINUOUS
10
171.5
20
95.5
11
171.5
21
94.5
0
LINE
8
0
6
CONTINUOUS
10
156.5
20
-4.5
11
171.5
21
-4.5
0
LINE
8
0
6
CONTINUOUS
10
173.5
20
-2.5
11
173.5
21
-1.5
0
LINE
8
0
6
CONTINUOUS
10
169.5
20
92.5
11
154.5
21
92.5
0
LINE
8
0
6
CONTINUOUS
10
152.5
20
90.5
11
152.5
21
88.5
0
LINE
8
0
6
CONTINUOUS
10
135.5
20
-10.5
11
152.5
21
-10.5
0
LINE
8
0
6
CONTINUOUS
10
154.5
20
-8.5
11
154.5
21
-6.5
0
LINE
8
0
6
CONTINUOUS
10
133.5
20
-8.5
11
133.5
21
84.5
0
LINE
8
0
6
CONTINUOUS
10
150.5
20
86.5
11
135.5
21
86.5
0
ARC
8
0
6
CONTINUOUS
10
27.5
20
-8.5
40
2
50
270
51
0
0
ARC
8
0
6
CONTINUOUS
10
46.5
20
-5.5
40
2
50
270
51
0
0
ARC
8
0
6
CONTINUOUS
10
65.5
20
-2.5
40
2
50
270
51
0
0
ARC
8
0
6
CONTINUOUS
10
69.5
20
-1.5
40
2
50
90
51
180
0
ARC
8
0
6
CONTINUOUS
10
82.5
20
-1.5
40
2
50
0
51
90
0
ARC
8
0
6
CONTINUOUS
10
86.5
20
-2.5
40
2
50
180
51
270
0
ARC
8
0
6
CONTINUOUS
10
101.5
20
-6.5
40
2
50
0
51
90
0
ARC
8
0
6
CONTINUOUS
10
105.5
20
-8.5
40
2
50
180
51
270
0
ARC
8
0
6
CONTINUOUS
10
122.5
20
-8.5
40
2
50
270
51
0
0
ARC
8
0
6
CONTINUOUS
10
122.5
20
84.5
40
2
50
0
51
90
0
ARC
8
0
6
CONTINUOUS
10
107.5
20
88.5
40
2
50
180
51
270
0
ARC
8
0
6
CONTINUOUS
10
103.5
20
90.5
40
2
50
0
51
90
0
ARC
8
0
6
CONTINUOUS
10
88.5
20
94.5
40
2
50
180
51
270
0
ARC
8
0
6
CONTINUOUS
10
84.5
20
95.5
40
2
50
0
51
90
0
ARC
8
0
6
CONTINUOUS
10
67.5
20
95.5
40
2
50
90
51
180
0
ARC
8
0
6
CONTINUOUS
10
63.5
20
94.5
40
2
50
270
51
0
0
ARC
8
0
6
CONTINUOUS
10
48.5
20
90.5
40
2
50
90
51
180
0
ARC
8
0
6
CONTINUOUS
10
29.5
20
87.5
40
2
50
90
51
180
0
ARC
8
0
6
CONTINUOUS
10
-8.5
20
84.5
40
2
50
90
51
180
0
ARC
8
0
6
CONTINUOUS
10
-8.5
20
-8.5
40
2
50
180
51
270
0
ARC
8
0
6
CONTINUOUS
10
266.5
20
-8.5
40
2
50
270
51
0
0
ARC
8
0
6
CONTINUOUS
10
266.5
20
84.5
40
2
50
0
51
90
0
ARC
8
0
6
CONTINUOUS
10
232.5
20
88.5
40
2
50
180
51
270
0
ARC
8
0
6
CONTINUOUS
10
213.5
20
91.5
40
2
50
180
51
270
0
ARC
8
0
6
CONTINUOUS
10
194.5
20
94.5
40
2
50
180
51
270
0
ARC
8
0
6
CONTINUOUS
10
190.5
20
95.5
40
2
50
0
51
90
0
ARC
8
0
6
CONTINUOUS
10
173.5
20
95.5
40
2
50
90
51
180
0
ARC
8
0
6
CONTINUOUS
10
169.5
20
94.5
40
2
50
270
51
0
0
ARC
8
0
6
CONTINUOUS
10
154.5
20
90.5
40
2
50
90
51
180
0
ARC
8
0
6
CONTINUOUS
10
150.5
20
88.5
40
2
50
270
51
0
0
ARC
8
0
6
CONTINUOUS
10
135.5
20
84.5
40
2
50
90
51
180
0
ARC
8
0
6
CONTINUOUS
10
135.5
20
-8.5
40
2
50
180
51
270
0
ARC
8
0
6
CONTINUOUS
10
152.5
20
-8.5
40
2
50
270
51
0
0
ARC
8
0
6
CONTINUOUS
10
156.5
20
-6.5
40
2
50
90
51
180
0
ARC
8
0
6
CONTINUOUS
10
171.5
20
-2.5
40
2
50
270
51
0
0
ARC
8
0
6
CONTINUOUS
10
175.5
20
-1.5
40
2
50
90
51
180
0
ARC
8
0
6
CONTINUOUS
10
188.5
20
-1.5
40
2
50
0
51
90
0
ARC
8
0
6
CONTINUOUS
10
192.5
20
-2.5
40
2
50
180
51
270
0
ARC
8
0
6
CONTINUOUS
10
207.5
20
-6.5
40
2
50
0
51
90
0
ARC
8
0
6
CONTINUOUS
10
226.5
20
-9.5
40
2
50
0
51
90
0
ENDSEC
0
EOF