0
SECTION
2
HEADER
9
$INSUNITS
70
4
0
ENDSEC
0
SECTION
2
TABLES
0
TABLE
2
LTYPE
0
LTYPE
72
65
70
0
2
CONTINUOUS
3
______
73
0
40
0
0
LTYPE
72
65
70
0
2
DASHED
3
_ _ _ 
73
2
40
7.5
49
5
49
-2.5
0
LTYPE
72
65
70
0
2
DOTTED
3
. . . 
73
2
40
1.5
49
0.5
49
-1
0
ENDTAB
0
TABLE
2
LAYER
0
ENDTAB
0
ENDSEC
0
SECTION
2
ENTITIES
0
LINE
8
0
6
CONTINUOUS
10
32.6760594
20
-227.7164359
11
69.3812407
21
-237.5515595
0
LINE
8
0
6
CONTINUOUS
10
31.2618457
20
-225.2669462
11
55.8496549
21
-133.5039928
0
LINE
8
0
6
CONTINUOUS
10
58.2991446
20
-132.0897791
11
93.0724745
21
-141.4072647
0
LINE
8
0
6
CONTINUOUS
10
71.8307304
20
-236.1373458
11
72.0895494
21
-235.1714202
0
LINE
8
0
6
CONTINUOUS
10
72.0895494
20
-235.1714202
11
88.5102885
21
-239.5713439
0
LINE
8
0
6
CONTINUOUS
10
90.9597782
20
-238.1571302
11
95.618521
21
-220.7704656
0
LINE
8
0
6
CONTINUOUS
10
110.2696707
20
-142.9094109
11
95.7807832
21
-139.0271253
0
LINE
8
0
6
CONTINUOUS
10
93.3312935
20
-140.441339
11
93.0724745
21
-141.4072647
0
LINE
8
0
6
CONTINUOUS
10
98.0680107
20
-219.356252
11
112.5568982
21
-223.2385376
0
LINE
8
0
6
CONTINUOUS
10
115.0063879
20
-221.8243239
11
115.2652069
21
-220.8583983
0
LINE
8
0
6
CONTINUOUS
10
112.7191604
20
-141.4951973
11
117.3779032
21
-124.1085327
0
LINE
8
0
6
CONTINUOUS
10
134.3162804
20
-126.5766046
11
119.8273929
21
-122.694319
0
LINE
8
0
6
CONTINUOUS
10
117.7146967
20
-219.4441846
11
128.3398807
21
-222.2911941
0
LINE
8
0
6
CONTINUOUS
10
158.982064
20
-131.1152291
11
159.2408831
21
-130.1493032
0
LINE
8
0
6
CONTINUOUS
10
157.8266694
20
-127.6998135
11
139.4740788
21
-122.7822517
0
LINE
8
0
6
CONTINUOUS
10
137.0245891
20
-124.1964654
11
136.7657701
21
-125.162391
0
LINE
8
0
6
CONTINUOUS
10
130.909489
20
-228.1560995
11
145.3983762
21
-232.0383851
0
LINE
8
0
6
CONTINUOUS
10
129.7540944
20
-224.7406838
11
129.4952753
21
-225.7066098
0
LINE
8
0
6
CONTINUOUS
10
175.7817405
20
-141.8283459
11
176.2993786
21
-139.8964942
0
LINE
8
0
6
CONTINUOUS
10
174.8851649
20
-137.4470045
11
160.3962777
21
-133.5647189
0
LINE
8
0
6
CONTINUOUS
10
147.7091655
20
-238.8692163
11
166.0617561
21
-243.7867781
0
LINE
8
0
6
CONTINUOUS
10
168.5112458
20
-242.3725644
11
193.099055
21
-150.609611
0
LINE
8
0
6
CONTINUOUS
10
146.8125899
20
-234.4878749
11
146.2949518
21
-236.4197266
0
LINE
8
0
6
CONTINUOUS
10
191.6848413
20
-148.1601213
11
177.1959542
21
-144.2778357
0
LINE
8
0
6
CONTINUOUS
10
325.7511619
20
-238.0691976
11
364.3881948
21
-227.7164359
0
LINE
8
0
6
CONTINUOUS
10
341.2145993
20
-133.5039928
11
365.8024085
21
-225.2669462
0
LINE
8
0
6
CONTINUOUS
10
305.9236314
20
-140.8896266
11
338.7651096
21
-132.0897791
0
LINE
8
0
6
CONTINUOUS
10
325.4923429
20
-237.1032719
11
325.7511619
21
-238.0691976
0
LINE
8
0
6
CONTINUOUS
10
308.5539657
20
-239.5713439
11
323.0428531
21
-235.6890583
0
LINE
8
0
6
CONTINUOUS
10
301.4457332
20
-220.7704656
11
306.104476
21
-238.1571302
0
LINE
8
0
6
CONTINUOUS
10
303.4741416
20
-139.4754129
11
303.2153226
21
-138.5094872
0
LINE
8
0
6
CONTINUOUS
10
303.2153226
20
-138.5094872
11
286.7945835
21
-142.9094109
0
LINE
8
0
6
CONTINUOUS
10
284.507356
20
-223.2385376
11
298.9962435
21
-219.356252
0
LINE
8
0
6
CONTINUOUS
10
281.7990473
20
-220.8583983
11
282.0578663
21
-221.8243239
0
LINE
8
0
6
CONTINUOUS
10
279.686351
20
-124.1085327
11
284.3450938
21
-141.4951973
0
LINE
8
0
6
CONTINUOUS
10
277.2368613
20
-122.694319
11
262.7479738
21
-126.5766046
0
LINE
8
0
6
CONTINUOUS
10
268.7243735
20
-222.2911941
11
279.3495575
21
-219.4441846
0
LINE
8
0
6
CONTINUOUS
10
260.2984841
20
-125.162391
11
260.0396651
21
-124.1964654
0
LINE
8
0
6
CONTINUOUS
10
257.5901754
20
-122.7822517
11
239.2375848
21
-127.6998135
0
LINE
8
0
6
CONTINUOUS
10
237.8233711
20
-130.1493032
11
238.0821902
21
-131.1152291
0
LINE
8
0
6
CONTINUOUS
10
251.665878
20
-232.0383851
11
266.1547652
21
-228.1560995
0
LINE
8
0
6
CONTINUOUS
10
267.5689789
20
-225.7066098
11
267.3101598
21
-224.7406838
0
LINE
8
0
6
CONTINUOUS
10
236.6679765
20
-133.5647189
11
222.1790893
21
-137.4470045
0
LINE
8
0
6
CONTINUOUS
10
220.7648756
20
-139.8964942
11
221.2825137
21
-141.8283459
0
LINE
8
0
6
CONTINUOUS
10
231.0024981
20
-243.7867781
11
249.3550887
21
-238.8692163
0
LINE
8
0
6
CONTINUOUS
10
250.7693024
20
-236.4197266
11
250.2516643
21
-234.4878749
0
LINE
8
0
6
CONTINUOUS
10
203.9651992
20
-150.609611
11
228.5530084
21
-242.3725644
0
LINE
8
0
6
CONTINUOUS
10
219.8683
20
-144.2778357
11
205.3794129
21
-148.1601213
0
ARC
8
0
6
CONTINUOUS
10
69.8988787
20
-235.6197078
40
2
50
255.0000021
51
345.0000021
0
ARC
8
0
6
CONTINUOUS
10
89.0279265
20
-237.6394922
40
2
50
255.0000021
51
345.0000021
0
ARC
8
0
6
CONTINUOUS
10
97.5503727
20
-221.2881037
40
2
50
75.0000021
51
165.0000021
0
ARC
8
0
6
CONTINUOUS
10
113.0745362
20
-221.3066859
40
2
50
255.0000021
51
345.0000021
0
ARC
8
0
6
CONTINUOUS
10
117.1970586
20
-221.3760364
40
2
50
75.0000021
51
165.0000021
0
ARC
8
0
6
CONTINUOUS
10
127.8222426
20
-224.2230458
40
2
50
345.0000021
51
75.0000021
0
ARC
8
0
6
CONTINUOUS
10
131.427127
20
-226.2242478
40
2
50
165.0000021
51
255.0000021
0
ARC
8
0
6
CONTINUOUS
10
144.8807382
20
-233.9702368
40
2
50
345.0000021
51
75.0000021
0
ARC
8
0
6
CONTINUOUS
10
148.2268035
20
-236.9373646
40
2
50
165.0000021
51
255.0000021
0
ARC
8
0
6
CONTINUOUS
10
166.5793941
20
-241.8549264
40
2
50
255.0000021
51
345.0000021
0
ARC
8
0
6
CONTINUOUS
10
191.1672033
20
-150.091973
40
2
50
345.0000021
51
75.0000021
0
ARC
8
0
6
CONTINUOUS
10
177.7135922
20
-142.345984
40
2
50
165.0000021
51
255.0000021
0
ARC
8
0
6
CONTINUOUS
10
174.3675269
20
-139.3788562
40
2
50
345.0000021
51
75.0000021
0
ARC
8
0
6
CONTINUOUS
10
160.9139158
20
-131.6328672
40
2
50
165.0000021
51
255.0000021
0
ARC
8
0
6
CONTINUOUS
10
157.3090314
20
-129.6316652
40
2
50
345.0000021
51
75.0000021
0
ARC
8
0
6
CONTINUOUS
10
138.9564408
20
-124.7141034
40
2
50
75.0000021
51
165.0000021
0
ARC
8
0
6
CONTINUOUS
10
134.8339184
20
-124.6447529
40
2
50
255.0000021
51
345.0000021
0
ARC
8
0
6
CONTINUOUS
10
119.3097549
20
-124.6261707
40
2
50
75.0000021
51
165.0000021
0
ARC
8
0
6
CONTINUOUS
10
110.7873087
20
-140.9775592
40
2
50
255.0000021
51
345.0000021
0
ARC
8
0
6
CONTINUOUS
10
95.2631452
20
-140.958977
40
2
50
75.0000021
51
165.0000021
0
ARC
8
0
6
CONTINUOUS
10
57.7815066
20
-134.0216308
40
2
50
75.0000021
51
165.0000021
0
ARC
8
0
6
CONTINUOUS
10
33.1936974
20
-225.7845842
40
2
50
165.0000021
51
255.0000021
0
ARC
8
0
6
CONTINUOUS
10
363.8705568
20
-225.7845842
40
2
50
284.9999979
51
14.9999979
0
ARC
8
0
6
CONTINUOUS
10
339.2827476
20
-134.0216308
40
2
50
14.9999979
51
104.9999979
0
ARC
8
0
6
CONTINUOUS
10
305.4059933
20
-138.9577749
40
2
50
194.9999979
51
284.9999979
0
ARC
8
0
6
CONTINUOUS
10
286.2769455
20
-140.9775592
40
2
50
194.9999979
51
284.9999979
0
ARC
8
0
6
CONTINUOUS
10
277.7544993
20
-124.6261707
40
2
50
14.9999979
51
104.9999979
0
ARC
8
0
6
CONTINUOUS
10
262.2303358
20
-124.6447529
40
2
50
194.9999979
51
284.9999979
0
ARC
8
0
6
CONTINUOUS
10
258.1078134
20
-124.7141034
40
2
50
14.9999979
51
104.9999979
0
ARC
8
0
6
CONTINUOUS
10
239.7552228
20
-129.6316652
40
2
50
104.9999979
51
194.9999979
0
ARC
8
0
6
CONTINUOUS
10
236.1503384
20
-131.6328672
40
2
50
284.9999979
51
14.9999979
0
ARC
8
0
6
CONTINUOUS
10
222.6967273
20
-139.3788562
40
2
50
104.9999979
51
194.9999979
0
ARC
8
0
6
CONTINUOUS
10
219.350662
20
-142.345984
40
2
50
284.9999979
51
14.9999979
0
ARC
8
0
6
CONTINUOUS
10
205.8970509
20
-150.091973
40
2
50
104.9999979
51
194.9999979
0
ARC
8
0
6
CONTINUOUS
10
230.4848601
20
-241.8549264
40
2
50
194.9999979
51
284.9999979
0
ARC
8
0
6
CONTINUOUS
10
248.8374507
20
-236.9373646
40
2
50
284.9999979
51
14.9999979
0
ARC
8
0
6
CONTINUOUS
10
252.183516
20
-233.9702368
40
2
50
104.9999979
51
194.9999979
0
ARC
8
0
6
CONTINUOUS
10
265.6371272
20
-226.2242478
40
2
50
284.9999979
51
14.9999979
0
ARC
8
0
6
CONTINUOUS
10
269.2420116
20
-224.2230458
40
2
50
104.9999979
51
194.9999979
0
ARC
8
0
6
CONTINUOUS
10
279.8671956
20
-221.3760364
40
2
50
14.9999979
51
104.9999979
0
ARC
8
0
6
CONTINUOUS
10
283.989718
20
-221.3066859
40
2
50
194.9999979
51
284.9999979
0
ARC
8
0
6
CONTINUOUS
10
299.5138815
20
-221.2881037
40
2
50
14.9999979
51
104.9999979
0
ARC
8
0
6
CONTINUOUS
10
308.0363277
20
-237.6394922
40
2
50
194.9999979
51
284.9999979
0
ARC
8
0
6
CONTINUOUS
10
323.5604912
20
-237.62091
40
2
50
14.9999979
51
104.9999979
0
ENDSEC
0
EOF