0
SECTION
2
HEADER
9
$INSUNITS
70
4
0
ENDSEC
0
SECTION
2
TABLES
0
TABLE
2
LTYPE
0
LTYPE
72
65
70
0
2
CONTINUOUS
3
______
73
0
40
0
0
LTYPE
72
65
70
0
2
DASHED
3
_ _ _ 
73
2
40
7.5
49
5
49
-2.5
0
LTYPE
72
65
70
0
2
DOTTED
3
. . . 
73
2
40
1.5
49
0.5
49
-1
0
ENDTAB
0
TABLE
2
LAYER
0
ENDTAB
0
ENDSEC
0
SECTION
2
ENTITIES
0
LINE
8
0
6
CONTINUOUS
10
-9.5
20
-11.5
11
28.5
21
-11.5
0
LINE
8
0
6
CONTINUOUS
10
-11.5
20
-9.5
11
-11.5
21
85.5
0
LINE
8
0
6
CONTINUOUS
10
-9.5
20
87.5
11
26.5
21
87.5
0
LINE
8
0
6
CONTINUOUS
10
30.5
20
-9.5
11
30.5
21
-8.5
0
LINE
8
0
6
CONTINUOUS
10
30.5
20
-8.5
11
47.5
21
-8.5
0
LINE
8
0
6
CONTINUOUS
10
49.5
20
-6.5
11
49.5
21
11.5
0
LINE
8
0
6
CONTINUOUS
10
43.5
20
90.5
11
28.5
21
90.5
0
LINE
8
0
6
CONTINUOUS
10
26.5
20
88.5
11
26.5
21
87.5
0
LINE
8
0
6
CONTINUOUS
10
51.5
20
13.5
11
66.5
21
13.5
0
LINE
8
0
6
CONTINUOUS
10
68.5
20
15.5
11
68.5
21
16.5
0
LINE
8
0
6
CONTINUOUS
10
45.5
20
92.5
11
45.5
21
110.5
0
LINE
8
0
6
CONTINUOUS
10
62.5
20
112.5
11
47.5
21
112.5
0
LINE
8
0
6
CONTINUOUS
10
70.5
20
18.5
11
81.5
21
18.5
0
LINE
8
0
6
CONTINUOUS
10
87.5
20
114.5
11
87.5
21
115.5
0
LINE
8
0
6
CONTINUOUS
10
85.5
20
117.5
11
66.5
21
117.5
0
LINE
8
0
6
CONTINUOUS
10
64.5
20
115.5
11
64.5
21
114.5
0
LINE
8
0
6
CONTINUOUS
10
85.5
20
13.5
11
100.5
21
13.5
0
LINE
8
0
6
CONTINUOUS
10
83.5
20
16.5
11
83.5
21
15.5
0
LINE
8
0
6
CONTINUOUS
10
106.5
20
108.5
11
106.5
21
110.5
0
LINE
8
0
6
CONTINUOUS
10
104.5
20
112.5
11
89.5
21
112.5
0
LINE
8
0
6
CONTINUOUS
10
104.5
20
7.5
11
123.5
21
7.5
0
LINE
8
0
6
CONTINUOUS
10
125.5
20
9.5
11
125.5
21
104.5
0
LINE
8
0
6
CONTINUOUS
10
102.5
20
11.5
11
102.5
21
9.5
0
LINE
8
0
6
CONTINUOUS
10
123.5
20
106.5
11
108.5
21
106.5
0
ARC
8
0
6
CONTINUOUS
10
28.5
20
-9.5
40
2
50
270
51
0
0
ARC
8
0
6
CONTINUOUS
10
47.5
20
-6.5
40
2
50
270
51
0
0
ARC
8
0
6
CONTINUOUS
10
51.5
20
11.5
40
2
50
90
51
180
0
ARC
8
0
6
CONTINUOUS
10
66.5
20
15.5
40
2
50
270
51
0
0
ARC
8
0
6
CONTINUOUS
10
70.5
20
16.5
40
2
50
90
51
180
0
ARC
8
0
6
CONTINUOUS
10
81.5
20
16.5
40
2
50
0
51
90
0
ARC
8
0
6
CONTINUOUS
10
85.5
20
15.5
40
2
50
180
51
270
0
ARC
8
0
6
CONTINUOUS
10
100.5
20
11.5
40
2
50
0
51
90
0
ARC
8
0
6
CONTINUOUS
10
104.5
20
9.5
40
2
50
180
51
270
0
ARC
8
0
6
CONTINUOUS
10
123.5
20
9.5
40
2
50
270
51
0
0
ARC
8
0
6
CONTINUOUS
10
123.5
20
104.5
40
2
50
0
51
90
0
ARC
8
0
6
CONTINUOUS
10
108.5
20
108.5
40
2
50
180
51
270
0
ARC
8
0
6
CONTINUOUS
10
104.5
20
110.5
40
2
50
0
51
90
0
ARC
8
0
6
CONTINUOUS
10
89.5
20
114.5
40
2
50
180
51
270
0
ARC
8
0
6
CONTINUOUS
10
85.5
20
115.5
40
2
50
0
51
90
0
ARC
8
0
6
CONTINUOUS
10
66.5
20
115.5
40
2
50
90
51
180
0
ARC
8
0
6
CONTINUOUS
10
62.5
20
114.5
40
2
50
270
51
0
0
ARC
8
0
6
CONTINUOUS
10
47.5
20
110.5
40
2
50
90
51
180
0
ARC
8
0
6
CONTINUOUS
10
43.5
20
92.5
40
2
50
270
51
0
0
ARC
8
0
6
CONTINUOUS
10
28.5
20
88.5
40
2
50
90
51
180
0
ARC
8
0
6
CONTINUOUS
10
-9.5
20
85.5
40
2
50
90
51
180
0
ARC
8
0
6
CONTINUOUS
10
-9.5
20
-9.5
40
2
50
180
51
270
0
LINE
8
0
6
CONTINUOUS
10
-7
20
-7
11
7
21
-7
0
LINE
8
0
6
CONTINUOUS
10
7
20
-7
11
7
21
7
0
LINE
8
0
6
CONTINUOUS
10
7
20
7
11
-7
21
7
0
LINE
8
0
6
CONTINUOUS
10
-7
20
7
11
-7
21
-7
0
LINE
8
0
6
CONTINUOUS
10
-7
20
12
11
7
21
12
0
LINE
8
0
6
CONTINUOUS
10
7
20
12
11
7
21
26
0
LINE
8
0
6
CONTINUOUS
10
7
20
26
11
-7
21
26
0
LINE
8
0
6
CONTINUOUS
10
-7
20
26
11
-7
21
12
0
LINE
8
0
6
CONTINUOUS
10
-7
20
31
11
7
21
31
0
LINE
8
0
6
CONTINUOUS
10
7
20
31
11
7
21
45
0
LINE
8
0
6
CONTINUOUS
10
7
20
45
11
-7
21
45
0
LINE
8
0
6
CONTINUOUS
10
-7
20
45
11
-7
21
31
0
LINE
8
0
6
CONTINUOUS
10
-7
20
50
11
7
21
50
0
LINE
8
0
6
CONTINUOUS
10
7
20
50
11
7
21
64
0
LINE
8
0
6
CONTINUOUS
10
7
20
64
11
-7
21
64
0
LINE
8
0
6
CONTINUOUS
10
-7
20
64
11
-7
21
50
0
LINE
8
0
6
CONTINUOUS
10
-7
20
69
11
7
21
69
0
LINE
8
0
6
CONTINUOUS
10
7
20
69
11
7
21
83
0
LINE
8
0
6
CONTINUOUS
10
7
20
83
11
-7
21
83
0
LINE
8
0
6
CONTINUOUS
10
-7
20
83
11
-7
21
69
0
LINE
8
0
6
CONTINUOUS
10
12
20
-7
11
26
21
-7
0
LINE
8
0
6
CONTINUOUS
10
26
20
-7
11
26
21
7
0
LINE
8
0
6
CONTINUOUS
10
26
20
7
11
12
21
7
0
LINE
8
0
6
CONTINUOUS
10
12
20
7
11
12
21
-7
0
LINE
8
0
6
CONTINUOUS
10
12
20
12
11
26
21
12
0
LINE
8
0
6
CONTINUOUS
10
26
20
12
11
26
21
26
0
LINE
8
0
6
CONTINUOUS
10
26
20
26
11
12
21
26
0
LINE
8
0
6
CONTINUOUS
10
12
20
26
11
12
21
12
0
LINE
8
0
6
CONTINUOUS
10
12
20
31
11
26
21
31
0
LINE
8
0
6
CONTINUOUS
10
26
20
31
11
26
21
45
0
LINE
8
0
6
CONTINUOUS
10
26
20
45
11
12
21
45
0
LINE
8
0
6
CONTINUOUS
10
12
20
45
11
12
21
31
0
LINE
8
0
6
CONTINUOUS
10
12
20
50
11
26
21
50
0
LINE
8
0
6
CONTINUOUS
10
26
20
50
11
26
21
64
0
LINE
8
0
6
CONTINUOUS
10
26
20
64
11
12
21
64
0
LINE
8
0
6
CONTINUOUS
10
12
20
64
11
12
21
50
0
LINE
8
0
6
CONTINUOUS
10
12
20
69
11
26
21
69
0
LINE
8
0
6
CONTINUOUS
10
26
20
69
11
26
21
83
0
LINE
8
0
6
CONTINUOUS
10
26
20
83
11
12
21
83
0
LINE
8
0
6
CONTINUOUS
10
12
20
83
11
12
21
69
0
LINE
8
0
6
CONTINUOUS
10
31
20
-4
11
45
21
-4
0
LINE
8
0
6
CONTINUOUS
10
45
20
-4
11
45
21
10
0
LINE
8
0
6
CONTINUOUS
10
45
20
10
11
31
21
10
0
LINE
8
0
6
CONTINUOUS
10
31
20
10
11
31
21
-4
0
LINE
8
0
6
CONTINUOUS
10
31
20
15
11
45
21
15
0
LINE
8
0
6
CONTINUOUS
10
45
20
15
11
45
21
29
0
LINE
8
0
6
CONTINUOUS
10
45
20
29
11
31
21
29
0
LINE
8
0
6
CONTINUOUS
10
31
20
29
11
31
21
15
0
LINE
8
0
6
CONTINUOUS
10
31
20
34
11
45
21
34
0
LINE
8
0
6
CONTINUOUS
10
45
20
34
11
45
21
48
0
LINE
8
0
6
CONTINUOUS
10
45
20
48
11
31
21
48
0
LINE
8
0
6
CONTINUOUS
10
31
20
48
11
31
21
34
0
LINE
8
0
6
CONTINUOUS
10
31
20
53
11
45
21
53
0
LINE
8
0
6
CONTINUOUS
10
45
20
53
11
45
21
67
0
LINE
8
0
6
CONTINUOUS
10
45
20
67
11
31
21
67
0
LINE
8
0
6
CONTINUOUS
10
31
20
67
11
31
21
53
0
LINE
8
0
6
CONTINUOUS
10
31
20
72
11
45
21
72
0
LINE
8
0
6
CONTINUOUS
10
45
20
72
11
45
21
86
0
LINE
8
0
6
CONTINUOUS
10
45
20
86
11
31
21
86
0
LINE
8
0
6
CONTINUOUS
10
31
20
86
11
31
21
72
0
LINE
8
0
6
CONTINUOUS
10
50
20
18
11
64
21
18
0
LINE
8
0
6
CONTINUOUS
10
64
20
18
11
64
21
32
0
LINE
8
0
6
CONTINUOUS
10
64
20
32
11
50
21
32
0
LINE
8
0
6
CONTINUOUS
10
50
20
32
11
50
21
18
0
LINE
8
0
6
CONTINUOUS
10
50
20
37
11
64
21
37
0
LINE
8
0
6
CONTINUOUS
10
64
20
37
11
64
21
51
0
LINE
8
0
6
CONTINUOUS
10
64
20
51
11
50
21
51
0
LINE
8
0
6
CONTINUOUS
10
50
20
51
11
50
21
37
0
LINE
8
0
6
CONTINUOUS
10
50
20
56
11
64
21
56
0
LINE
8
0
6
CONTINUOUS
10
64
20
56
11
64
21
70
0
LINE
8
0
6
CONTINUOUS
10
64
20
70
11
50
21
70
0
LINE
8
0
6
CONTINUOUS
10
50
20
70
11
50
21
56
0
LINE
8
0
6
CONTINUOUS
10
50
20
75
11
64
21
75
0
LINE
8
0
6
CONTINUOUS
10
64
20
75
11
64
21
89
0
LINE
8
0
6
CONTINUOUS
10
64
20
89
11
50
21
89
0
LINE
8
0
6
CONTINUOUS
10
50
20
89
11
50
21
75
0
LINE
8
0
6
CONTINUOUS
10
50
20
94
11
64
21
94
0
LINE
8
0
6
CONTINUOUS
10
64
20
94
11
64
21
108
0
LINE
8
0
6
CONTINUOUS
10
64
20
108
11
50
21
108
0
LINE
8
0
6
CONTINUOUS
10
50
20
108
11
50
21
94
0
LINE
8
0
6
CONTINUOUS
10
69
20
23
11
83
21
23
0
LINE
8
0
6
CONTINUOUS
10
83
20
23
11
83
21
37
0
LINE
8
0
6
CONTINUOUS
10
83
20
37
11
69
21
37
0
LINE
8
0
6
CONTINUOUS
10
69
20
37
11
69
21
23
0
LINE
8
0
6
CONTINUOUS
10
69
20
42
11
83
21
42
0
LINE
8
0
6
CONTINUOUS
10
83
20
42
11
83
21
56
0
LINE
8
0
6
CONTINUOUS
10
83
20
56
11
69
21
56
0
LINE
8
0
6
CONTINUOUS
10
69
20
56
11
69
21
42
0
LINE
8
0
6
CONTINUOUS
10
69
20
61
11
83
21
61
0
LINE
8
0
6
CONTINUOUS
10
83
20
61
11
83
21
75
0
LINE
8
0
6
CONTINUOUS
10
83
20
75
11
69
21
75
0
LINE
8
0
6
CONTINUOUS
10
69
20
75
11
69
21
61
0
LINE
8
0
6
CONTINUOUS
10
69
20
80
11
83
21
80
0
LINE
8
0
6
CONTINUOUS
10
83
20
80
11
83
21
94
0
LINE
8
0
6
CONTINUOUS
10
83
20
94
11
69
21
94
0
LINE
8
0
6
CONTINUOUS
10
69
20
94
11
69
21
80
0
LINE
8
0
6
CONTINUOUS
10
69
20
99
11
83
21
99
0
LINE
8
0
6
CONTINUOUS
10
83
20
99
11
83
21
113
0
LINE
8
0
6
CONTINUOUS
10
83
20
113
11
69
21
113
0
LINE
8
0
6
CONTINUOUS
10
69
20
113
11
69
21
99
0
LINE
8
0
6
CONTINUOUS
10
88
20
18
11
102
21
18
0
LINE
8
0
6
CONTINUOUS
10
102
20
18
11
102
21
32
0
LINE
8
0
6
CONTINUOUS
10
102
20
32
11
88
21
32
0
LINE
8
0
6
CONTINUOUS
10
88
20
32
11
88
21
18
0
LINE
8
0
6
CONTINUOUS
10
88
20
37
11
102
21
37
0
LINE
8
0
6
CONTINUOUS
10
102
20
37
11
102
21
51
0
LINE
8
0
6
CONTINUOUS
10
102
20
51
11
88
21
51
0
LINE
8
0
6
CONTINUOUS
10
88
20
51
11
88
21
37
0
LINE
8
0
6
CONTINUOUS
10
88
20
56
11
102
21
56
0
LINE
8
0
6
CONTINUOUS
10
102
20
56
11
102
21
70
0
LINE
8
0
6
CONTINUOUS
10
102
20
70
11
88
21
70
0
LINE
8
0
6
CONTINUOUS
10
88
20
70
11
88
21
56
0
LINE
8
0
6
CONTINUOUS
10
88
20
75
11
102
21
75
0
LINE
8
0
6
CONTINUOUS
10
102
20
75
11
102
21
89
0
LINE
8
0
6
CONTINUOUS
10
102
20
89
11
88
21
89
0
LINE
8
0
6
CONTINUOUS
10
88
20
89
11
88
21
75
0
LINE
8
0
6
CONTINUOUS
10
88
20
94
11
102
21
94
0
LINE
8
0
6
CONTINUOUS
10
102
20
94
11
102
21
108
0
LINE
8
0
6
CONTINUOUS
10
102
20
108
11
88
21
108
0
LINE
8
0
6
CONTINUOUS
10
88
20
108
11
88
21
94
0
LINE
8
0
6
CONTINUOUS
10
107
20
12
11
121
21
12
0
LINE
8
0
6
CONTINUOUS
10
121
20
12
11
121
21
26
0
LINE
8
0
6
CONTINUOUS
10
121
20
26
11
107
21
26
0
LINE
8
0
6
CONTINUOUS
10
107
20
26
11
107
21
12
0
LINE
8
0
6
CONTINUOUS
10
107
20
31
11
121
21
31
0
LINE
8
0
6
CONTINUOUS
10
121
20
31
11
121
21
45
0
LINE
8
0
6
CONTINUOUS
10
121
20
45
11
107
21
45
0
LINE
8
0
6
CONTINUOUS
10
107
20
45
11
107
21
31
0
LINE
8
0
6
CONTINUOUS
10
107
20
50
11
121
21
50
0
LINE
8
0
6
CONTINUOUS
10
121
20
50
11
121
21
64
0
LINE
8
0
6
CONTINUOUS
10
121
20
64
11
107
21
64
0
LINE
8
0
6
CONTINUOUS
10
107
20
64
11
107
21
50
0
LINE
8
0
6
CONTINUOUS
10
107
20
69
11
121
21
69
0
LINE
8
0
6
CONTINUOUS
10
121
20
69
11
121
21
83
0
LINE
8
0
6
CONTINUOUS
10
121
20
83
11
107
21
83
0
LINE
8
0
6
CONTINUOUS
10
107
20
83
11
107
21
69
0
LINE
8
0
6
CONTINUOUS
10
107
20
88
11
121
21
88
0
LINE
8
0
6
CONTINUOUS
10
121
20
88
11
121
21
102
0
LINE
8
0
6
CONTINUOUS
10
121
20
102
11
107
21
102
0
LINE
8
0
6
CONTINUOUS
10
107
20
102
11
107
21
88
0
ENDSEC
0
EOF