0
SECTION
2
HEADER
9
$INSUNITS
70
4
0
ENDSEC
0
SECTION
2
TABLES
0
TABLE
2
LTYPE
0
LTYPE
72
65
70
0
2
CONTINUOUS
3
______
73
0
40
0
0
LTYPE
72
65
70
0
2
DASHED
3
_ _ _ 
73
2
40
7.5
49
5
49
-2.5
0
LTYPE
72
65
70
0
2
DOTTED
3
. . . 
73
2
40
1.5
49
0.5
49
-1
0
ENDTAB
0
TABLE
2
LAYER
0
ENDTAB
0
ENDSEC
0
SECTION
2
ENTITIES
0
LINE
8
0
6
CONTINUOUS
10
-8.5
20
-10.5
11
27.5
21
-10.5
0
LINE
8
0
6
CONTINUOUS
10
-10.5
20
-8.5
11
-10.5
21
84.5
0
LINE
8
0
6
CONTINUOUS
10
-8.5
20
86.5
11
27.5
21
86.5
0
LINE
8
0
6
CONTINUOUS
10
29.5
20
-8.5
11
29.5
21
-7.5
0
LINE
8
0
6
CONTINUOUS
10
29.5
20
-7.5
11
46.5
21
-7.5
0
LINE
8
0
6
CONTINUOUS
10
48.5
20
-5.5
11
48.5
21
-4.5
0
LINE
8
0
6
CONTINUOUS
10
46.5
20
89.5
11
29.5
21
89.5
0
LINE
8
0
6
CONTINUOUS
10
27.5
20
87.5
11
27.5
21
86.5
0
LINE
8
0
6
CONTINUOUS
10
48.5
20
-4.5
11
65.5
21
-4.5
0
LINE
8
0
6
CONTINUOUS
10
67.5
20
-2.5
11
67.5
21
-1.5
0
LINE
8
0
6
CONTINUOUS
10
63.5
20
92.5
11
48.5
21
92.5
0
LINE
8
0
6
CONTINUOUS
10
46.5
20
90.5
11
46.5
21
89.5
0
LINE
8
0
6
CONTINUOUS
10
69.5
20
0.5
11
82.5
21
0.5
0
LINE
8
0
6
CONTINUOUS
10
86.5
20
94.5
11
86.5
21
95.5
0
LINE
8
0
6
CONTINUOUS
10
84.5
20
97.5
11
67.5
21
97.5
0
LINE
8
0
6
CONTINUOUS
10
65.5
20
95.5
11
65.5
21
94.5
0
LINE
8
0
6
CONTINUOUS
10
86.5
20
-4.5
11
101.5
21
-4.5
0
LINE
8
0
6
CONTINUOUS
10
84.5
20
-1.5
11
84.5
21
-2.5
0
LINE
8
0
6
CONTINUOUS
10
105.5
20
88.5
11
105.5
21
90.5
0
LINE
8
0
6
CONTINUOUS
10
103.5
20
92.5
11
88.5
21
92.5
0
LINE
8
0
6
CONTINUOUS
10
105.5
20
-10.5
11
122.5
21
-10.5
0
LINE
8
0
6
CONTINUOUS
10
124.5
20
-8.5
11
124.5
21
84.5
0
LINE
8
0
6
CONTINUOUS
10
103.5
20
-6.5
11
103.5
21
-8.5
0
LINE
8
0
6
CONTINUOUS
10
122.5
20
86.5
11
107.5
21
86.5
0
LINE
8
0
6
CONTINUOUS
10
228.5
20
-10.5
11
266.5
21
-10.5
0
LINE
8
0
6
CONTINUOUS
10
268.5
20
-8.5
11
268.5
21
84.5
0
LINE
8
0
6
CONTINUOUS
10
232.5
20
86.5
11
266.5
21
86.5
0
LINE
8
0
6
CONTINUOUS
10
228.5
20
-9.5
11
228.5
21
-10.5
0
LINE
8
0
6
CONTINUOUS
10
209.5
20
-7.5
11
226.5
21
-7.5
0
LINE
8
0
6
CONTINUOUS
10
209.5
20
-6.5
11
209.5
21
-7.5
0
LINE
8
0
6
CONTINUOUS
10
230.5
20
88.5
11
230.5
21
89.5
0
LINE
8
0
6
CONTINUOUS
10
230.5
20
89.5
11
213.5
21
89.5
0
LINE
8
0
6
CONTINUOUS
10
192.5
20
-4.5
11
207.5
21
-4.5
0
LINE
8
0
6
CONTINUOUS
10
190.5
20
-1.5
11
190.5
21
-2.5
0
LINE
8
0
6
CONTINUOUS
10
211.5
20
91.5
11
211.5
21
92.5
0
LINE
8
0
6
CONTINUOUS
10
211.5
20
92.5
11
194.5
21
92.5
0
LINE
8
0
6
CONTINUOUS
10
175.5
20
0.5
11
188.5
21
0.5
0
LINE
8
0
6
CONTINUOUS
10
192.5
20
94.5
11
192.5
21
95.5
0
LINE
8
0
6
CONTINUOUS
10
190.5
20
97.5
11
173.5
21
97.5
0
LINE
8
0
6
CONTINUOUS
10
171.5
20
95.5
11
171.5
21
94.5
0
LINE
8
0
6
CONTINUOUS
10
156.5
20
-4.5
11
171.5
21
-4.5
0
LINE
8
0
6
CONTINUOUS
10
173.5
20
-2.5
11
173.5
21
-1.5
0
LINE
8
0
6
CONTINUOUS
10
169.5
20
92.5
11
154.5
21
92.5
0
LINE
8
0
6
CONTINUOUS
10
152.5
20
90.5
11
152.5
21
88.5
0
LINE
8
0
6
CONTINUOUS
10
135.5
20
-10.5
11
152.5
21
-10.5
0
LINE
8
0
6
CONTINUOUS
10
154.5
20
-8.5
11
154.5
21
-6.5
0
LINE
8
0
6
CONTINUOUS
10
133.5
20
-8.5
11
133.5
21
84.5
0
LINE
8
0
6
CONTINUOUS
10
150.5
20
86.5
11
135.5
21
86.5
0
ARC
8
0
6
CONTINUOUS
10
27.5
20
-8.5
40
2
50
270
51
0
0
ARC
8
0
6
CONTINUOUS
10
46.5
20
-5.5
40
2
50
270
51
0
0
ARC
8
0
6
CONTINUOUS
10
65.5
20
-2.5
40
2
50
270
51
0
0
ARC
8
0
6
CONTINUOUS
10
69.5
20
-1.5
40
2
50
90
51
180
0
ARC
8
0
6
CONTINUOUS
10
82.5
20
-1.5
40
2
50
0
51
90
0
ARC
8
0
6
CONTINUOUS
10
86.5
20
-2.5
40
2
50
180
51
270
0
ARC
8
0
6
CONTINUOUS
10
101.5
20
-6.5
40
2
50
0
51
90
0
ARC
8
0
6
CONTINUOUS
10
105.5
20
-8.5
40
2
50
180
51
270
0
ARC
8
0
6
CONTINUOUS
10
122.5
20
-8.5
40
2
50
270
51
0
0
ARC
8
0
6
CONTINUOUS
10
122.5
20
84.5
40
2
50
0
51
90
0
ARC
8
0
6
CONTINUOUS
10
107.5
20
88.5
40
2
50
180
51
270
0
ARC
8
0
6
CONTINUOUS
10
103.5
20
90.5
40
2
50
0
51
90
0
ARC
8
0
6
CONTINUOUS
10
88.5
20
94.5
40
2
50
180
51
270
0
ARC
8
0
6
CONTINUOUS
10
84.5
20
95.5
40
2
50
0
51
90
0
ARC
8
0
6
CONTINUOUS
10
67.5
20
95.5
40
2
50
90
51
180
0
ARC
8
0
6
CONTINUOUS
10
63.5
20
94.5
40
2
50
270
51
0
0
ARC
8
0
6
CONTINUOUS
10
48.5
20
90.5
40
2
50
90
51
180
0
ARC
8
0
6
CONTINUOUS
10
29.5
20
87.5
40
2
50
90
51
180
0
ARC
8
0
6
CONTINUOUS
10
-8.5
20
84.5
40
2
50
90
51
180
0
ARC
8
0
6
CONTINUOUS
10
-8.5
20
-8.5
40
2
50
180
51
270
0
ARC
8
0
6
CONTINUOUS
10
266.5
20
-8.5
40
2
50
270
51
0
0
ARC
8
0
6
CONTINUOUS
10
266.5
20
84.5
40
2
50
0
51
90
0
ARC
8
0
6
CONTINUOUS
10
232.5
20
88.5
40
2
50
180
51
270
0
ARC
8
0
6
CONTINUOUS
10
213.5
20
91.5
40
2
50
180
51
270
0
ARC
8
0
6
CONTINUOUS
10
194.5
20
94.5
40
2
50
180
51
270
0
ARC
8
0
6
CONTINUOUS
10
190.5
20
95.5
40
2
50
0
51
90
0
ARC
8
0
6
CONTINUOUS
10
173.5
20
95.5
40
2
50
90
51
180
0
ARC
8
0
6
CONTINUOUS
10
169.5
20
94.5
40
2
50
270
51
0
0
ARC
8
0
6
CONTINUOUS
10
154.5
20
90.5
40
2
50
90
51
180
0
ARC
8
0
6
CONTINUOUS
10
150.5
20
88.5
40
2
50
270
51
0
0
ARC
8
0
6
CONTINUOUS
10
135.5
20
84.5
40
2
50
90
51
180
0
ARC
8
0
6
CONTINUOUS
10
135.5
20
-8.5
40
2
50
180
51
270
0
ARC
8
0
6
CONTINUOUS
10
152.5
20
-8.5
40
2
50
270
51
0
0
ARC
8
0
6
CONTINUOUS
10
156.5
20
-6.5
40
2
50
90
51
180
0
ARC
8
0
6
CONTINUOUS
10
171.5
20
-2.5
40
2
50
270
51
0
0
ARC
8
0
6
CONTINUOUS
10
175.5
20
-1.5
40
2
50
90
51
180
0
ARC
8
0
6
CONTINUOUS
10
188.5
20
-1.5
40
2
50
0
51
90
0
ARC
8
0
6
CONTINUOUS
10
192.5
20
-2.5
40
2
50
180
51
270
0
ARC
8
0
6
CONTINUOUS
10
207.5
20
-6.5
40
2
50
0
51
90
0
ARC
8
0
6
CONTINUOUS
10
226.5
20
-9.5
40
2
50
0
51
90
0
LINE
8
0
6
CONTINUOUS
10
-7
20
-7
11
7
21
-7
0
LINE
8
0
6
CONTINUOUS
10
7
20
-7
11
7
21
7
0
LINE
8
0
6
CONTINUOUS
10
7
20
7
11
-7
21
7
0
LINE
8
0
6
CONTINUOUS
10
-7
20
7
11
-7
21
-7
0
LINE
8
0
6
CONTINUOUS
10
-7
20
12
11
7
21
12
0
LINE
8
0
6
CONTINUOUS
10
7
20
12
11
7
21
26
0
LINE
8
0
6
CONTINUOUS
10
7
20
26
11
-7
21
26
0
LINE
8
0
6
CONTINUOUS
10
-7
20
26
11
-7
21
12
0
LINE
8
0
6
CONTINUOUS
10
-7
20
31
11
7
21
31
0
LINE
8
0
6
CONTINUOUS
10
7
20
31
11
7
21
45
0
LINE
8
0
6
CONTINUOUS
10
7
20
45
11
-7
21
45
0
LINE
8
0
6
CONTINUOUS
10
-7
20
45
11
-7
21
31
0
LINE
8
0
6
CONTINUOUS
10
-7
20
50
11
7
21
50
0
LINE
8
0
6
CONTINUOUS
10
7
20
50
11
7
21
64
0
LINE
8
0
6
CONTINUOUS
10
7
20
64
11
-7
21
64
0
LINE
8
0
6
CONTINUOUS
10
-7
20
64
11
-7
21
50
0
LINE
8
0
6
CONTINUOUS
10
-7
20
69
11
7
21
69
0
LINE
8
0
6
CONTINUOUS
10
7
20
69
11
7
21
83
0
LINE
8
0
6
CONTINUOUS
10
7
20
83
11
-7
21
83
0
LINE
8
0
6
CONTINUOUS
10
-7
20
83
11
-7
21
69
0
LINE
8
0
6
CONTINUOUS
10
12
20
-7
11
26
21
-7
0
LINE
8
0
6
CONTINUOUS
10
26
20
-7
11
26
21
7
0
LINE
8
0
6
CONTINUOUS
10
26
20
7
11
12
21
7
0
LINE
8
0
6
CONTINUOUS
10
12
20
7
11
12
21
-7
0
LINE
8
0
6
CONTINUOUS
10
12
20
12
11
26
21
12
0
LINE
8
0
6
CONTINUOUS
10
26
20
12
11
26
21
26
0
LINE
8
0
6
CONTINUOUS
10
26
20
26
11
12
21
26
0
LINE
8
0
6
CONTINUOUS
10
12
20
26
11
12
21
12
0
LINE
8
0
6
CONTINUOUS
10
12
20
31
11
26
21
31
0
LINE
8
0
6
CONTINUOUS
10
26
20
31
11
26
21
45
0
LINE
8
0
6
CONTINUOUS
10
26
20
45
11
12
21
45
0
LINE
8
0
6
CONTINUOUS
10
12
20
45
11
12
21
31
0
LINE
8
0
6
CONTINUOUS
10
12
20
50
11
26
21
50
0
LINE
8
0
6
CONTINUOUS
10
26
20
50
11
26
21
64
0
LINE
8
0
6
CONTINUOUS
10
26
20
64
11
12
21
64
0
LINE
8
0
6
CONTINUOUS
10
12
20
64
11
12
21
50
0
LINE
8
0
6
CONTINUOUS
10
12
20
69
11
26
21
69
0
LINE
8
0
6
CONTINUOUS
10
26
20
69
11
26
21
83
0
LINE
8
0
6
CONTINUOUS
10
26
20
83
11
12
21
83
0
LINE
8
0
6
CONTINUOUS
10
12
20
83
11
12
21
69
0
LINE
8
0
6
CONTINUOUS
10
31
20
-4
11
45
21
-4
0
LINE
8
0
6
CONTINUOUS
10
45
20
-4
11
45
21
10
0
LINE
8
0
6
CONTINUOUS
10
45
20
10
11
31
21
10
0
LINE
8
0
6
CONTINUOUS
10
31
20
10
11
31
21
-4
0
LINE
8
0
6
CONTINUOUS
10
31
20
15
11
45
21
15
0
LINE
8
0
6
CONTINUOUS
10
45
20
15
11
45
21
29
0
LINE
8
0
6
CONTINUOUS
10
45
20
29
11
31
21
29
0
LINE
8
0
6
CONTINUOUS
10
31
20
29
11
31
21
15
0
LINE
8
0
6
CONTINUOUS
10
31
20
34
11
45
21
34
0
LINE
8
0
6
CONTINUOUS
10
45
20
34
11
45
21
48
0
LINE
8
0
6
CONTINUOUS
10
45
20
48
11
31
21
48
0
LINE
8
0
6
CONTINUOUS
10
31
20
48
11
31
21
34
0
LINE
8
0
6
CONTINUOUS
10
31
20
53
11
45
21
53
0
LINE
8
0
6
CONTINUOUS
10
45
20
53
11
45
21
67
0
LINE
8
0
6
CONTINUOUS
10
45
20
67
11
31
21
67
0
LINE
8
0
6
CONTINUOUS
10
31
20
67
11
31
21
53
0
LINE
8
0
6
CONTINUOUS
10
31
20
72
11
45
21
72
0
LINE
8
0
6
CONTINUOUS
10
45
20
72
11
45
21
86
0
LINE
8
0
6
CONTINUOUS
10
45
20
86
11
31
21
86
0
LINE
8
0
6
CONTINUOUS
10
31
20
86
11
31
21
72
0
LINE
8
0
6
CONTINUOUS
10
50
20
-1
11
64
21
-1
0
LINE
8
0
6
CONTINUOUS
10
64
20
-1
11
64
21
13
0
LINE
8
0
6
CONTINUOUS
10
64
20
13
11
50
21
13
0
LINE
8
0
6
CONTINUOUS
10
50
20
13
11
50
21
-1
0
LINE
8
0
6
CONTINUOUS
10
50
20
18
11
64
21
18
0
LINE
8
0
6
CONTINUOUS
10
64
20
18
11
64
21
32
0
LINE
8
0
6
CONTINUOUS
10
64
20
32
11
50
21
32
0
LINE
8
0
6
CONTINUOUS
10
50
20
32
11
50
21
18
0
LINE
8
0
6
CONTINUOUS
10
50
20
37
11
64
21
37
0
LINE
8
0
6
CONTINUOUS
10
64
20
37
11
64
21
51
0
LINE
8
0
6
CONTINUOUS
10
64
20
51
11
50
21
51
0
LINE
8
0
6
CONTINUOUS
10
50
20
51
11
50
21
37
0
LINE
8
0
6
CONTINUOUS
10
50
20
56
11
64
21
56
0
LINE
8
0
6
CONTINUOUS
10
64
20
56
11
64
21
70
0
LINE
8
0
6
CONTINUOUS
10
64
20
70
11
50
21
70
0
LINE
8
0
6
CONTINUOUS
10
50
20
70
11
50
21
56
0
LINE
8
0
6
CONTINUOUS
10
50
20
75
11
64
21
75
0
LINE
8
0
6
CONTINUOUS
10
64
20
75
11
64
21
89
0
LINE
8
0
6
CONTINUOUS
10
64
20
89
11
50
21
89
0
LINE
8
0
6
CONTINUOUS
10
50
20
89
11
50
21
75
0
LINE
8
0
6
CONTINUOUS
10
69
20
4
11
83
21
4
0
LINE
8
0
6
CONTINUOUS
10
83
20
4
11
83
21
18
0
LINE
8
0
6
CONTINUOUS
10
83
20
18
11
69
21
18
0
LINE
8
0
6
CONTINUOUS
10
69
20
18
11
69
21
4
0
LINE
8
0
6
CONTINUOUS
10
69
20
23
11
83
21
23
0
LINE
8
0
6
CONTINUOUS
10
83
20
23
11
83
21
37
0
LINE
8
0
6
CONTINUOUS
10
83
20
37
11
69
21
37
0
LINE
8
0
6
CONTINUOUS
10
69
20
37
11
69
21
23
0
LINE
8
0
6
CONTINUOUS
10
69
20
42
11
83
21
42
0
LINE
8
0
6
CONTINUOUS
10
83
20
42
11
83
21
56
0
LINE
8
0
6
CONTINUOUS
10
83
20
56
11
69
21
56
0
LINE
8
0
6
CONTINUOUS
10
69
20
56
11
69
21
42
0
LINE
8
0
6
CONTINUOUS
10
69
20
61
11
83
21
61
0
LINE
8
0
6
CONTINUOUS
10
83
20
61
11
83
21
75
0
LINE
8
0
6
CONTINUOUS
10
83
20
75
11
69
21
75
0
LINE
8
0
6
CONTINUOUS
10
69
20
75
11
69
21
61
0
LINE
8
0
6
CONTINUOUS
10
69
20
80
11
83
21
80
0
LINE
8
0
6
CONTINUOUS
10
83
20
80
11
83
21
94
0
LINE
8
0
6
CONTINUOUS
10
83
20
94
11
69
21
94
0
LINE
8
0
6
CONTINUOUS
10
69
20
94
11
69
21
80
0
LINE
8
0
6
CONTINUOUS
10
88
20
-1
11
102
21
-1
0
LINE
8
0
6
CONTINUOUS
10
102
20
-1
11
102
21
13
0
LINE
8
0
6
CONTINUOUS
10
102
20
13
11
88
21
13
0
LINE
8
0
6
CONTINUOUS
10
88
20
13
11
88
21
-1
0
LINE
8
0
6
CONTINUOUS
10
88
20
18
11
102
21
18
0
LINE
8
0
6
CONTINUOUS
10
102
20
18
11
102
21
32
0
LINE
8
0
6
CONTINUOUS
10
102
20
32
11
88
21
32
0
LINE
8
0
6
CONTINUOUS
10
88
20
32
11
88
21
18
0
LINE
8
0
6
CONTINUOUS
10
88
20
37
11
102
21
37
0
LINE
8
0
6
CONTINUOUS
10
102
20
37
11
102
21
51
0
LINE
8
0
6
CONTINUOUS
10
102
20
51
11
88
21
51
0
LINE
8
0
6
CONTINUOUS
10
88
20
51
11
88
21
37
0
LINE
8
0
6
CONTINUOUS
10
88
20
56
11
102
21
56
0
LINE
8
0
6
CONTINUOUS
10
102
20
56
11
102
21
70
0
LINE
8
0
6
CONTINUOUS
10
102
20
70
11
88
21
70
0
LINE
8
0
6
CONTINUOUS
10
88
20
70
11
88
21
56
0
LINE
8
0
6
CONTINUOUS
10
88
20
75
11
102
21
75
0
LINE
8
0
6
CONTINUOUS
10
102
20
75
11
102
21
89
0
LINE
8
0
6
CONTINUOUS
10
102
20
89
11
88
21
89
0
LINE
8
0
6
CONTINUOUS
10
88
20
89
11
88
21
75
0
LINE
8
0
6
CONTINUOUS
10
107
20
-7
11
121
21
-7
0
LINE
8
0
6
CONTINUOUS
10
121
20
-7
11
121
21
7
0
LINE
8
0
6
CONTINUOUS
10
121
20
7
11
107
21
7
0
LINE
8
0
6
CONTINUOUS
10
107
20
7
11
107
21
-7
0
LINE
8
0
6
CONTINUOUS
10
107
20
12
11
121
21
12
0
LINE
8
0
6
CONTINUOUS
10
121
20
12
11
121
21
26
0
LINE
8
0
6
CONTINUOUS
10
121
20
26
11
107
21
26
0
LINE
8
0
6
CONTINUOUS
10
107
20
26
11
107
21
12
0
LINE
8
0
6
CONTINUOUS
10
107
20
31
11
121
21
31
0
LINE
8
0
6
CONTINUOUS
10
121
20
31
11
121
21
45
0
LINE
8
0
6
CONTINUOUS
10
121
20
45
11
107
21
45
0
LINE
8
0
6
CONTINUOUS
10
107
20
45
11
107
21
31
0
LINE
8
0
6
CONTINUOUS
10
107
20
50
11
121
21
50
0
LINE
8
0
6
CONTINUOUS
10
121
20
50
11
121
21
64
0
LINE
8
0
6
CONTINUOUS
10
121
20
64
11
107
21
64
0
LINE
8
0
6
CONTINUOUS
10
107
20
64
11
107
21
50
0
LINE
8
0
6
CONTINUOUS
10
107
20
69
11
121
21
69
0
LINE
8
0
6
CONTINUOUS
10
121
20
69
11
121
21
83
0
LINE
8
0
6
CONTINUOUS
10
121
20
83
11
107
21
83
0
LINE
8
0
6
CONTINUOUS
10
107
20
83
11
107
21
69
0
LINE
8
0
6
CONTINUOUS
10
251
20
-7
11
265
21
-7
0
LINE
8
0
6
CONTINUOUS
10
265
20
-7
11
265
21
7
0
LINE
8
0
6
CONTINUOUS
10
265
20
7
11
251
21
7
0
LINE
8
0
6
CONTINUOUS
10
251
20
7
11
251
21
-7
0
LINE
8
0
6
CONTINUOUS
10
251
20
12
11
265
21
12
0
LINE
8
0
6
CONTINUOUS
10
265
20
12
11
265
21
26
0
LINE
8
0
6
CONTINUOUS
10
265
20
26
11
251
21
26
0
LINE
8
0
6
CONTINUOUS
10
251
20
26
11
251
21
12
0
LINE
8
0
6
CONTINUOUS
10
251
20
31
11
265
21
31
0
LINE
8
0
6
CONTINUOUS
10
265
20
31
11
265
21
45
0
LINE
8
0
6
CONTINUOUS
10
265
20
45
11
251
21
45
0
LINE
8
0
6
CONTINUOUS
10
251
20
45
11
251
21
31
0
LINE
8
0
6
CONTINUOUS
10
251
20
50
11
265
21
50
0
LINE
8
0
6
CONTINUOUS
10
265
20
50
11
265
21
64
0
LINE
8
0
6
CONTINUOUS
10
265
20
64
11
251
21
64
0
LINE
8
0
6
CONTINUOUS
10
251
20
64
11
251
21
50
0
LINE
8
0
6
CONTINUOUS
10
251
20
69
11
265
21
69
0
LINE
8
0
6
CONTINUOUS
10
265
20
69
11
265
21
83
0
LINE
8
0
6
CONTINUOUS
10
265
20
83
11
251
21
83
0
LINE
8
0
6
CONTINUOUS
10
251
20
83
11
251
21
69
0
LINE
8
0
6
CONTINUOUS
10
232
20
-7
11
246
21
-7
0
LINE
8
0
6
CONTINUOUS
10
246
20
-7
11
246
21
7
0
LINE
8
0
6
CONTINUOUS
10
246
20
7
11
232
21
7
0
LINE
8
0
6
CONTINUOUS
10
232
20
7
11
232
21
-7
0
LINE
8
0
6
CONTINUOUS
10
232
20
12
11
246
21
12
0
LINE
8
0
6
CONTINUOUS
10
246
20
12
11
246
21
26
0
LINE
8
0
6
CONTINUOUS
10
246
20
26
11
232
21
26
0
LINE
8
0
6
CONTINUOUS
10
232
20
26
11
232
21
12
0
LINE
8
0
6
CONTINUOUS
10
232
20
31
11
246
21
31
0
LINE
8
0
6
CONTINUOUS
10
246
20
31
11
246
21
45
0
LINE
8
0
6
CONTINUOUS
10
246
20
45
11
232
21
45
0
LINE
8
0
6
CONTINUOUS
10
232
20
45
11
232
21
31
0
LINE
8
0
6
CONTINUOUS
10
232
20
50
11
246
21
50
0
LINE
8
0
6
CONTINUOUS
10
246
20
50
11
246
21
64
0
LINE
8
0
6
CONTINUOUS
10
246
20
64
11
232
21
64
0
LINE
8
0
6
CONTINUOUS
10
232
20
64
11
232
21
50
0
LINE
8
0
6
CONTINUOUS
10
232
20
69
11
246
21
69
0
LINE
8
0
6
CONTINUOUS
10
246
20
69
11
246
21
83
0
LINE
8
0
6
CONTINUOUS
10
246
20
83
11
232
21
83
0
LINE
8
0
6
CONTINUOUS
10
232
20
83
11
232
21
69
0
LINE
8
0
6
CONTINUOUS
10
213
20
-4
11
227
21
-4
0
LINE
8
0
6
CONTINUOUS
10
227
20
-4
11
227
21
10
0
LINE
8
0
6
CONTINUOUS
10
227
20
10
11
213
21
10
0
LINE
8
0
6
CONTINUOUS
10
213
20
10
11
213
21
-4
0
LINE
8
0
6
CONTINUOUS
10
213
20
15
11
227
21
15
0
LINE
8
0
6
CONTINUOUS
10
227
20
15
11
227
21
29
0
LINE
8
0
6
CONTINUOUS
10
227
20
29
11
213
21
29
0
LINE
8
0
6
CONTINUOUS
10
213
20
29
11
213
21
15
0
LINE
8
0
6
CONTINUOUS
10
213
20
34
11
227
21
34
0
LINE
8
0
6
CONTINUOUS
10
227
20
34
11
227
21
48
0
LINE
8
0
6
CONTINUOUS
10
227
20
48
11
213
21
48
0
LINE
8
0
6
CONTINUOUS
10
213
20
48
11
213
21
34
0
LINE
8
0
6
CONTINUOUS
10
213
20
53
11
227
21
53
0
LINE
8
0
6
CONTINUOUS
10
227
20
53
11
227
21
67
0
LINE
8
0
6
CONTINUOUS
10
227
20
67
11
213
21
67
0
LINE
8
0
6
CONTINUOUS
10
213
20
67
11
213
21
53
0
LINE
8
0
6
CONTINUOUS
10
213
20
72
11
227
21
72
0
LINE
8
0
6
CONTINUOUS
10
227
20
72
11
227
21
86
0
LINE
8
0
6
CONTINUOUS
10
227
20
86
11
213
21
86
0
LINE
8
0
6
CONTINUOUS
10
213
20
86
11
213
21
72
0
LINE
8
0
6
CONTINUOUS
10
194
20
-1
11
208
21
-1
0
LINE
8
0
6
CONTINUOUS
10
208
20
-1
11
208
21
13
0
LINE
8
0
6
CONTINUOUS
10
208
20
13
11
194
21
13
0
LINE
8
0
6
CONTINUOUS
10
194
20
13
11
194
21
-1
0
LINE
8
0
6
CONTINUOUS
10
194
20
18
11
208
21
18
0
LINE
8
0
6
CONTINUOUS
10
208
20
18
11
208
21
32
0
LINE
8
0
6
CONTINUOUS
10
208
20
32
11
194
21
32
0
LINE
8
0
6
CONTINUOUS
10
194
20
32
11
194
21
18
0
LINE
8
0
6
CONTINUOUS
10
194
20
37
11
208
21
37
0
LINE
8
0
6
CONTINUOUS
10
208
20
37
11
208
21
51
0
LINE
8
0
6
CONTINUOUS
10
208
20
51
11
194
21
51
0
LINE
8
0
6
CONTINUOUS
10
194
20
51
11
194
21
37
0
LINE
8
0
6
CONTINUOUS
10
194
20
56
11
208
21
56
0
LINE
8
0
6
CONTINUOUS
10
208
20
56
11
208
21
70
0
LINE
8
0
6
CONTINUOUS
10
208
20
70
11
194
21
70
0
LINE
8
0
6
CONTINUOUS
10
194
20
70
11
194
21
56
0
LINE
8
0
6
CONTINUOUS
10
194
20
75
11
208
21
75
0
LINE
8
0
6
CONTINUOUS
10
208
20
75
11
208
21
89
0
LINE
8
0
6
CONTINUOUS
10
208
20
89
11
194
21
89
0
LINE
8
0
6
CONTINUOUS
10
194
20
89
11
194
21
75
0
LINE
8
0
6
CONTINUOUS
10
175
20
4
11
189
21
4
0
LINE
8
0
6
CONTINUOUS
10
189
20
4
11
189
21
18
0
LINE
8
0
6
CONTINUOUS
10
189
20
18
11
175
21
18
0
LINE
8
0
6
CONTINUOUS
10
175
20
18
11
175
21
4
0
LINE
8
0
6
CONTINUOUS
10
175
20
23
11
189
21
23
0
LINE
8
0
6
CONTINUOUS
10
189
20
23
11
189
21
37
0
LINE
8
0
6
CONTINUOUS
10
189
20
37
11
175
21
37
0
LINE
8
0
6
CONTINUOUS
10
175
20
37
11
175
21
23
0
LINE
8
0
6
CONTINUOUS
10
175
20
42
11
189
21
42
0
LINE
8
0
6
CONTINUOUS
10
189
20
42
11
189
21
56
0
LINE
8
0
6
CONTINUOUS
10
189
20
56
11
175
21
56
0
LINE
8
0
6
CONTINUOUS
10
175
20
56
11
175
21
42
0
LINE
8
0
6
CONTINUOUS
10
175
20
61
11
189
21
61
0
LINE
8
0
6
CONTINUOUS
10
189
20
61
11
189
21
75
0
LINE
8
0
6
CONTINUOUS
10
189
20
75
11
175
21
75
0
LINE
8
0
6
CONTINUOUS
10
175
20
75
11
175
21
61
0
LINE
8
0
6
CONTINUOUS
10
175
20
80
11
189
21
80
0
LINE
8
0
6
CONTINUOUS
10
189
20
80
11
189
21
94
0
LINE
8
0
6
CONTINUOUS
10
189
20
94
11
175
21
94
0
LINE
8
0
6
CONTINUOUS
10
175
20
94
11
175
21
80
0
LINE
8
0
6
CONTINUOUS
10
156
20
-1
11
170
21
-1
0
LINE
8
0
6
CONTINUOUS
10
170
20
-1
11
170
21
13
0
LINE
8
0
6
CONTINUOUS
10
170
20
13
11
156
21
13
0
LINE
8
0
6
CONTINUOUS
10
156
20
13
11
156
21
-1
0
LINE
8
0
6
CONTINUOUS
10
156
20
18
11
170
21
18
0
LINE
8
0
6
CONTINUOUS
10
170
20
18
11
170
21
32
0
LINE
8
0
6
CONTINUOUS
10
170
20
32
11
156
21
32
0
LINE
8
0
6
CONTINUOUS
10
156
20
32
11
156
21
18
0
LINE
8
0
6
CONTINUOUS
10
156
20
37
11
170
21
37
0
LINE
8
0
6
CONTINUOUS
10
170
20
37
11
170
21
51
0
LINE
8
0
6
CONTINUOUS
10
170
20
51
11
156
21
51
0
LINE
8
0
6
CONTINUOUS
10
156
20
51
11
156
21
37
0
LINE
8
0
6
CONTINUOUS
10
156
20
56
11
170
21
56
0
LINE
8
0
6
CONTINUOUS
10
170
20
56
11
170
21
70
0
LINE
8
0
6
CONTINUOUS
10
170
20
70
11
156
21
70
0
LINE
8
0
6
CONTINUOUS
10
156
20
70
11
156
21
56
0
LINE
8
0
6
CONTINUOUS
10
156
20
75
11
170
21
75
0
LINE
8
0
6
CONTINUOUS
10
170
20
75
11
170
21
89
0
LINE
8
0
6
CONTINUOUS
10
170
20
89
11
156
21
89
0
LINE
8
0
6
CONTINUOUS
10
156
20
89
11
156
21
75
0
LINE
8
0
6
CONTINUOUS
10
137
20
-7
11
151
21
-7
0
LINE
8
0
6
CONTINUOUS
10
151
20
-7
11
151
21
7
0
LINE
8
0
6
CONTINUOUS
10
151
20
7
11
137
21
7
0
LINE
8
0
6
CONTINUOUS
10
137
20
7
11
137
21
-7
0
LINE
8
0
6
CONTINUOUS
10
137
20
12
11
151
21
12
0
LINE
8
0
6
CONTINUOUS
10
151
20
12
11
151
21
26
0
LINE
8
0
6
CONTINUOUS
10
151
20
26
11
137
21
26
0
LINE
8
0
6
CONTINUOUS
10
137
20
26
11
137
21
12
0
LINE
8
0
6
CONTINUOUS
10
137
20
31
11
151
21
31
0
LINE
8
0
6
CONTINUOUS
10
151
20
31
11
151
21
45
0
LINE
8
0
6
CONTINUOUS
10
151
20
45
11
137
21
45
0
LINE
8
0
6
CONTINUOUS
10
137
20
45
11
137
21
31
0
LINE
8
0
6
CONTINUOUS
10
137
20
50
11
151
21
50
0
LINE
8
0
6
CONTINUOUS
10
151
20
50
11
151
21
64
0
LINE
8
0
6
CONTINUOUS
10
151
20
64
11
137
21
64
0
LINE
8
0
6
CONTINUOUS
10
137
20
64
11
137
21
50
0
LINE
8
0
6
CONTINUOUS
10
137
20
69
11
151
21
69
0
LINE
8
0
6
CONTINUOUS
10
151
20
69
11
151
21
83
0
LINE
8
0
6
CONTINUOUS
10
151
20
83
11
137
21
83
0
LINE
8
0
6
CONTINUOUS
10
137
20
83
11
137
21
69
0
ENDSEC
0
EOF