0
SECTION
2
HEADER
9
$INSUNITS
70
4
0
ENDSEC
0
SECTION
2
TABLES
0
TABLE
2
LTYPE
0
LTYPE
72
65
70
0
2
CONTINUOUS
3
______
73
0
40
0
0
LTYPE
72
65
70
0
2
DASHED
3
_ _ _ 
73
2
40
7.5
49
5
49
-2.5
0
LTYPE
72
65
70
0
2
DOTTED
3
. . . 
73
2
40
1.5
49
0.5
49
-1
0
ENDTAB
0
TABLE
2
LAYER
0
ENDTAB
0
ENDSEC
0
SECTION
2
ENTITIES
0
LINE
8
0
6
CONTINUOUS
10
377.5
20
-209.5
11
377.5
21
-114.5
0
LINE
8
0
6
CONTINUOUS
10
375.5
20
-112.5
11
341.5
21
-112.5
0
LINE
8
0
6
CONTINUOUS
10
339.5
20
-110.5
11
339.5
21
-109.5
0
LINE
8
0
6
CONTINUOUS
10
339.5
20
-109.5
11
322.5
21
-109.5
0
LINE
8
0
6
CONTINUOUS
10
320.5
20
-107.5
11
320.5
21
-89.5
0
LINE
8
0
6
CONTINUOUS
10
318.5
20
-87.5
11
303.5
21
-87.5
0
LINE
8
0
6
CONTINUOUS
10
301.5
20
-85.5
11
301.5
21
-84.5
0
LINE
8
0
6
CONTINUOUS
10
299.5
20
-82.5
11
282.7575611
21
-82.5
0
LINE
8
0
6
CONTINUOUS
10
282.2508423
20
-82.5652556
11
241.9932812
21
-93.1089025
0
LINE
8
0
6
CONTINUOUS
10
240.5
20
-95.0436469
11
240.5
21
-209.5
0
LINE
8
0
6
CONTINUOUS
10
242.5
20
-211.5
11
375.5
21
-211.5
0
ARC
8
0
6
CONTINUOUS
10
375.5
20
-114.5
40
2
50
0
51
90
0
ARC
8
0
6
CONTINUOUS
10
341.5
20
-110.5
40
2
50
180
51
270
0
ARC
8
0
6
CONTINUOUS
10
322.5
20
-107.5
40
2
50
180
51
270
0
ARC
8
0
6
CONTINUOUS
10
318.5
20
-89.5
40
2
50
0
51
90
0
ARC
8
0
6
CONTINUOUS
10
303.5
20
-85.5
40
2
50
180
51
270
0
ARC
8
0
6
CONTINUOUS
10
299.5
20
-84.5
40
2
50
0
51
90
0
ARC
8
0
6
CONTINUOUS
10
282.7575611
20
-84.5
40
2
50
90
51
104.6763939
0
ARC
8
0
6
CONTINUOUS
10
242.5
20
-95.0436469
40
2
50
104.6763939
51
180
0
ARC
8
0
6
CONTINUOUS
10
242.5
20
-209.5
40
2
50
180
51
270
0
ARC
8
0
6
CONTINUOUS
10
375.5
20
-209.5
40
2
50
270
51
0
0
LINE
8
0
6
CONTINUOUS
10
359
20
-207
11
373
21
-207
0
LINE
8
0
6
CONTINUOUS
10
373
20
-207
11
373
21
-193
0
LINE
8
0
6
CONTINUOUS
10
373
20
-193
11
359
21
-193
0
LINE
8
0
6
CONTINUOUS
10
359
20
-193
11
359
21
-207
0
LINE
8
0
6
CONTINUOUS
10
359
20
-188
11
373
21
-188
0
LINE
8
0
6
CONTINUOUS
10
373
20
-188
11
373
21
-174
0
LINE
8
0
6
CONTINUOUS
10
373
20
-174
11
359
21
-174
0
LINE
8
0
6
CONTINUOUS
10
359
20
-174
11
359
21
-188
0
LINE
8
0
6
CONTINUOUS
10
359
20
-169
11
373
21
-169
0
LINE
8
0
6
CONTINUOUS
10
373
20
-169
11
373
21
-155
0
LINE
8
0
6
CONTINUOUS
10
373
20
-155
11
359
21
-155
0
LINE
8
0
6
CONTINUOUS
10
359
20
-155
11
359
21
-169
0
LINE
8
0
6
CONTINUOUS
10
359
20
-150
11
373
21
-150
0
LINE
8
0
6
CONTINUOUS
10
373
20
-150
11
373
21
-136
0
LINE
8
0
6
CONTINUOUS
10
373
20
-136
11
359
21
-136
0
LINE
8
0
6
CONTINUOUS
10
359
20
-136
11
359
21
-150
0
LINE
8
0
6
CONTINUOUS
10
359
20
-131
11
373
21
-131
0
LINE
8
0
6
CONTINUOUS
10
373
20
-131
11
373
21
-117
0
LINE
8
0
6
CONTINUOUS
10
373
20
-117
11
359
21
-117
0
LINE
8
0
6
CONTINUOUS
10
359
20
-117
11
359
21
-131
0
LINE
8
0
6
CONTINUOUS
10
340
20
-207
11
354
21
-207
0
LINE
8
0
6
CONTINUOUS
10
354
20
-207
11
354
21
-193
0
LINE
8
0
6
CONTINUOUS
10
354
20
-193
11
340
21
-193
0
LINE
8
0
6
CONTINUOUS
10
340
20
-193
11
340
21
-207
0
LINE
8
0
6
CONTINUOUS
10
340
20
-188
11
354
21
-188
0
LINE
8
0
6
CONTINUOUS
10
354
20
-188
11
354
21
-174
0
LINE
8
0
6
CONTINUOUS
10
354
20
-174
11
340
21
-174
0
LINE
8
0
6
CONTINUOUS
10
340
20
-174
11
340
21
-188
0
LINE
8
0
6
CONTINUOUS
10
340
20
-169
11
354
21
-169
0
LINE
8
0
6
CONTINUOUS
10
354
20
-169
11
354
21
-155
0
LINE
8
0
6
CONTINUOUS
10
354
20
-155
11
340
21
-155
0
LINE
8
0
6
CONTINUOUS
10
340
20
-155
11
340
21
-169
0
LINE
8
0
6
CONTINUOUS
10
340
20
-150
11
354
21
-150
0
LINE
8
0
6
CONTINUOUS
10
354
20
-150
11
354
21
-136
0
LINE
8
0
6
CONTINUOUS
10
354
20
-136
11
340
21
-136
0
LINE
8
0
6
CONTINUOUS
10
340
20
-136
11
340
21
-150
0
LINE
8
0
6
CONTINUOUS
10
340
20
-131
11
354
21
-131
0
LINE
8
0
6
CONTINUOUS
10
354
20
-131
11
354
21
-117
0
LINE
8
0
6
CONTINUOUS
10
354
20
-117
11
340
21
-117
0
LINE
8
0
6
CONTINUOUS
10
340
20
-117
11
340
21
-131
0
LINE
8
0
6
CONTINUOUS
10
321
20
-204
11
335
21
-204
0
LINE
8
0
6
CONTINUOUS
10
335
20
-204
11
335
21
-190
0
LINE
8
0
6
CONTINUOUS
10
335
20
-190
11
321
21
-190
0
LINE
8
0
6
CONTINUOUS
10
321
20
-190
11
321
21
-204
0
LINE
8
0
6
CONTINUOUS
10
321
20
-185
11
335
21
-185
0
LINE
8
0
6
CONTINUOUS
10
335
20
-185
11
335
21
-171
0
LINE
8
0
6
CONTINUOUS
10
335
20
-171
11
321
21
-171
0
LINE
8
0
6
CONTINUOUS
10
321
20
-171
11
321
21
-185
0
LINE
8
0
6
CONTINUOUS
10
321
20
-166
11
335
21
-166
0
LINE
8
0
6
CONTINUOUS
10
335
20
-166
11
335
21
-152
0
LINE
8
0
6
CONTINUOUS
10
335
20
-152
11
321
21
-152
0
LINE
8
0
6
CONTINUOUS
10
321
20
-152
11
321
21
-166
0
LINE
8
0
6
CONTINUOUS
10
321
20
-147
11
335
21
-147
0
LINE
8
0
6
CONTINUOUS
10
335
20
-147
11
335
21
-133
0
LINE
8
0
6
CONTINUOUS
10
335
20
-133
11
321
21
-133
0
LINE
8
0
6
CONTINUOUS
10
321
20
-133
11
321
21
-147
0
LINE
8
0
6
CONTINUOUS
10
321
20
-128
11
335
21
-128
0
LINE
8
0
6
CONTINUOUS
10
335
20
-128
11
335
21
-114
0
LINE
8
0
6
CONTINUOUS
10
335
20
-114
11
321
21
-114
0
LINE
8
0
6
CONTINUOUS
10
321
20
-114
11
321
21
-128
0
LINE
8
0
6
CONTINUOUS
10
302
20
-182
11
316
21
-182
0
LINE
8
0
6
CONTINUOUS
10
316
20
-182
11
316
21
-168
0
LINE
8
0
6
CONTINUOUS
10
316
20
-168
11
302
21
-168
0
LINE
8
0
6
CONTINUOUS
10
302
20
-168
11
302
21
-182
0
LINE
8
0
6
CONTINUOUS
10
302
20
-163
11
316
21
-163
0
LINE
8
0
6
CONTINUOUS
10
316
20
-163
11
316
21
-149
0
LINE
8
0
6
CONTINUOUS
10
316
20
-149
11
302
21
-149
0
LINE
8
0
6
CONTINUOUS
10
302
20
-149
11
302
21
-163
0
LINE
8
0
6
CONTINUOUS
10
302
20
-144
11
316
21
-144
0
LINE
8
0
6
CONTINUOUS
10
316
20
-144
11
316
21
-130
0
LINE
8
0
6
CONTINUOUS
10
316
20
-130
11
302
21
-130
0
LINE
8
0
6
CONTINUOUS
10
302
20
-130
11
302
21
-144
0
LINE
8
0
6
CONTINUOUS
10
302
20
-125
11
316
21
-125
0
LINE
8
0
6
CONTINUOUS
10
316
20
-125
11
316
21
-111
0
LINE
8
0
6
CONTINUOUS
10
316
20
-111
11
302
21
-111
0
LINE
8
0
6
CONTINUOUS
10
302
20
-111
11
302
21
-125
0
LINE
8
0
6
CONTINUOUS
10
302
20
-106
11
316
21
-106
0
LINE
8
0
6
CONTINUOUS
10
316
20
-106
11
316
21
-92
0
LINE
8
0
6
CONTINUOUS
10
316
20
-92
11
302
21
-92
0
LINE
8
0
6
CONTINUOUS
10
302
20
-92
11
302
21
-106
0
LINE
8
0
6
CONTINUOUS
10
283
20
-177
11
297
21
-177
0
LINE
8
0
6
CONTINUOUS
10
297
20
-177
11
297
21
-163
0
LINE
8
0
6
CONTINUOUS
10
297
20
-163
11
283
21
-163
0
LINE
8
0
6
CONTINUOUS
10
283
20
-163
11
283
21
-177
0
LINE
8
0
6
CONTINUOUS
10
283
20
-158
11
297
21
-158
0
LINE
8
0
6
CONTINUOUS
10
297
20
-158
11
297
21
-144
0
LINE
8
0
6
CONTINUOUS
10
297
20
-144
11
283
21
-144
0
LINE
8
0
6
CONTINUOUS
10
283
20
-144
11
283
21
-158
0
LINE
8
0
6
CONTINUOUS
10
283
20
-139
11
297
21
-139
0
LINE
8
0
6
CONTINUOUS
10
297
20
-139
11
297
21
-125
0
LINE
8
0
6
CONTINUOUS
10
297
20
-125
11
283
21
-125
0
LINE
8
0
6
CONTINUOUS
10
283
20
-125
11
283
21
-139
0
LINE
8
0
6
CONTINUOUS
10
283
20
-120
11
297
21
-120
0
LINE
8
0
6
CONTINUOUS
10
297
20
-120
11
297
21
-106
0
LINE
8
0
6
CONTINUOUS
10
297
20
-106
11
283
21
-106
0
LINE
8
0
6
CONTINUOUS
10
283
20
-106
11
283
21
-120
0
LINE
8
0
6
CONTINUOUS
10
283
20
-101
11
297
21
-101
0
LINE
8
0
6
CONTINUOUS
10
297
20
-101
11
297
21
-87
0
LINE
8
0
6
CONTINUOUS
10
297
20
-87
11
283
21
-87
0
LINE
8
0
6
CONTINUOUS
10
283
20
-87
11
283
21
-101
0
LINE
8
0
6
CONTINUOUS
10
264
20
-182
11
278
21
-182
0
LINE
8
0
6
CONTINUOUS
10
278
20
-182
11
278
21
-168
0
LINE
8
0
6
CONTINUOUS
10
278
20
-168
11
264
21
-168
0
LINE
8
0
6
CONTINUOUS
10
264
20
-168
11
264
21
-182
0
LINE
8
0
6
CONTINUOUS
10
264
20
-163
11
278
21
-163
0
LINE
8
0
6
CONTINUOUS
10
278
20
-163
11
278
21
-149
0
LINE
8
0
6
CONTINUOUS
10
278
20
-149
11
264
21
-149
0
LINE
8
0
6
CONTINUOUS
10
264
20
-149
11
264
21
-163
0
LINE
8
0
6
CONTINUOUS
10
264
20
-144
11
278
21
-144
0
LINE
8
0
6
CONTINUOUS
10
278
20
-144
11
278
21
-130
0
LINE
8
0
6
CONTINUOUS
10
278
20
-130
11
264
21
-130
0
LINE
8
0
6
CONTINUOUS
10
264
20
-130
11
264
21
-144
0
LINE
8
0
6
CONTINUOUS
10
264
20
-125
11
278
21
-125
0
LINE
8
0
6
CONTINUOUS
10
278
20
-125
11
278
21
-111
0
LINE
8
0
6
CONTINUOUS
10
278
20
-111
11
264
21
-111
0
LINE
8
0
6
CONTINUOUS
10
264
20
-111
11
264
21
-125
0
LINE
8
0
6
CONTINUOUS
10
264
20
-106
11
278
21
-106
0
LINE
8
0
6
CONTINUOUS
10
278
20
-106
11
278
21
-92
0
LINE
8
0
6
CONTINUOUS
10
278
20
-92
11
264
21
-92
0
LINE
8
0
6
CONTINUOUS
10
264
20
-92
11
264
21
-106
0
LINE
8
0
6
CONTINUOUS
10
245
20
-188
11
259
21
-188
0
LINE
8
0
6
CONTINUOUS
10
259
20
-188
11
259
21
-174
0
LINE
8
0
6
CONTINUOUS
10
259
20
-174
11
245
21
-174
0
LINE
8
0
6
CONTINUOUS
10
245
20
-174
11
245
21
-188
0
LINE
8
0
6
CONTINUOUS
10
245
20
-169
11
259
21
-169
0
LINE
8
0
6
CONTINUOUS
10
259
20
-169
11
259
21
-155
0
LINE
8
0
6
CONTINUOUS
10
259
20
-155
11
245
21
-155
0
LINE
8
0
6
CONTINUOUS
10
245
20
-155
11
245
21
-169
0
LINE
8
0
6
CONTINUOUS
10
245
20
-150
11
259
21
-150
0
LINE
8
0
6
CONTINUOUS
10
259
20
-150
11
259
21
-136
0
LINE
8
0
6
CONTINUOUS
10
259
20
-136
11
245
21
-136
0
LINE
8
0
6
CONTINUOUS
10
245
20
-136
11
245
21
-150
0
LINE
8
0
6
CONTINUOUS
10
245
20
-131
11
259
21
-131
0
LINE
8
0
6
CONTINUOUS
10
259
20
-131
11
259
21
-117
0
LINE
8
0
6
CONTINUOUS
10
259
20
-117
11
245
21
-117
0
LINE
8
0
6
CONTINUOUS
10
245
20
-117
11
245
21
-131
0
LINE
8
0
6
CONTINUOUS
10
245
20
-112
11
259
21
-112
0
LINE
8
0
6
CONTINUOUS
10
259
20
-112
11
259
21
-98
0
LINE
8
0
6
CONTINUOUS
10
259
20
-98
11
245
21
-98
0
LINE
8
0
6
CONTINUOUS
10
245
20
-98
11
245
21
-112
0
ENDSEC
0
EOF