0
SECTION
2
HEADER
9
$INSUNITS
70
4
0
ENDSEC
0
SECTION
2
TABLES
0
TABLE
2
LTYPE
0
LTYPE
72
65
70
0
2
CONTINUOUS
3
______
73
0
40
0
0
LTYPE
72
65
70
0
2
DASHED
3
_ _ _ 
73
2
40
7.5
49
5
49
-2.5
0
LTYPE
72
65
70
0
2
DOTTED
3
. . . 
73
2
40
1.5
49
0.5
49
-1
0
ENDTAB
0
TABLE
2
LAYER
0
ENDTAB
0
ENDSEC
0
SECTION
2
ENTITIES
0
LINE
8
0
6
CONTINUOUS
10
365.8024085
20
-225.2669462
11
341.2145993
21
-133.5039928
0
LINE
8
0
6
CONTINUOUS
10
338.7651096
20
-132.0897791
11
305.9236314
21
-140.8896266
0
LINE
8
0
6
CONTINUOUS
10
303.4741416
20
-139.4754129
11
303.2153226
21
-138.5094872
0
LINE
8
0
6
CONTINUOUS
10
303.2153226
20
-138.5094872
11
286.7945835
21
-142.909411
0
LINE
8
0
6
CONTINUOUS
10
284.3450938
20
-141.4951973
11
279.686351
21
-124.1085327
0
LINE
8
0
6
CONTINUOUS
10
277.2368613
20
-122.694319
11
262.7479738
21
-126.5766046
0
LINE
8
0
6
CONTINUOUS
10
260.2984841
20
-125.1623909
11
260.0396651
21
-124.1964654
0
LINE
8
0
6
CONTINUOUS
10
257.5901754
20
-122.7822517
11
241.4182214
21
-127.1155136
0
LINE
8
0
6
CONTINUOUS
10
240.945658
20
-127.3096941
11
204.7887366
21
-147.9134986
0
LINE
8
0
6
CONTINUOUS
10
203.8470863
20
-150.1688079
11
233.4705703
21
-260.7251551
0
LINE
8
0
6
CONTINUOUS
10
235.92006
20
-262.1393688
11
364.3881948
21
-227.7164359
0
ARC
8
0
6
CONTINUOUS
10
339.2827476
20
-134.0216308
40
2
50
14.9999979
51
104.9999979
0
ARC
8
0
6
CONTINUOUS
10
305.4059933
20
-138.9577749
40
2
50
194.9999979
51
284.9999979
0
ARC
8
0
6
CONTINUOUS
10
286.2769455
20
-140.9775593
40
2
50
194.9999979
51
284.9999979
0
ARC
8
0
6
CONTINUOUS
10
277.7544993
20
-124.6261707
40
2
50
14.9999979
51
104.9999979
0
ARC
8
0
6
CONTINUOUS
10
262.2303358
20
-124.6447529
40
2
50
194.9999979
51
284.9999979
0
ARC
8
0
6
CONTINUOUS
10
258.1078134
20
-124.7141034
40
2
50
14.9999979
51
104.9999979
0
ARC
8
0
6
CONTINUOUS
10
241.9358595
20
-129.0473653
40
2
50
104.9999979
51
119.6763908
0
ARC
8
0
6
CONTINUOUS
10
205.778938
20
-149.6511698
40
2
50
119.6763908
51
194.9999979
0
ARC
8
0
6
CONTINUOUS
10
235.402422
20
-260.2075171
40
2
50
194.9999979
51
284.9999979
0
ARC
8
0
6
CONTINUOUS
10
363.8705568
20
-225.7845842
40
2
50
284.9999979
51
14.9999979
0
LINE
8
0
6
CONTINUOUS
10
347.2857331
20
-227.6402839
11
360.8086947
21
-224.0168173
0
LINE
8
0
6
CONTINUOUS
10
360.8086947
20
-224.0168173
11
357.1852281
21
-210.4938557
0
LINE
8
0
6
CONTINUOUS
10
357.1852281
20
-210.4938557
11
343.6622665
21
-214.1173223
0
LINE
8
0
6
CONTINUOUS
10
343.6622665
20
-214.1173223
11
347.2857331
21
-227.6402839
0
LINE
8
0
6
CONTINUOUS
10
342.3681712
20
-209.2876932
11
355.8911328
21
-205.6642266
0
LINE
8
0
6
CONTINUOUS
10
355.8911328
20
-205.6642266
11
352.2676662
21
-192.141265
0
LINE
8
0
6
CONTINUOUS
10
352.2676662
20
-192.141265
11
338.7447046
21
-195.7647316
0
LINE
8
0
6
CONTINUOUS
10
338.7447046
20
-195.7647316
11
342.3681712
21
-209.2876932
0
LINE
8
0
6
CONTINUOUS
10
337.4506094
20
-190.9351025
11
350.973571
21
-187.3116359
0
LINE
8
0
6
CONTINUOUS
10
350.973571
20
-187.3116359
11
347.3501044
21
-173.7886743
0
LINE
8
0
6
CONTINUOUS
10
347.3501044
20
-173.7886743
11
333.8271428
21
-177.4121409
0
LINE
8
0
6
CONTINUOUS
10
333.8271428
20
-177.4121409
11
337.4506094
21
-190.9351025
0
LINE
8
0
6
CONTINUOUS
10
332.5330475
20
-172.5825118
11
346.0560091
21
-168.9590452
0
LINE
8
0
6
CONTINUOUS
10
346.0560091
20
-168.9590452
11
342.4325425
21
-155.4360836
0
LINE
8
0
6
CONTINUOUS
10
342.4325425
20
-155.4360836
11
328.9095809
21
-159.0595502
0
LINE
8
0
6
CONTINUOUS
10
328.9095809
20
-159.0595502
11
332.5330475
21
-172.5825118
0
LINE
8
0
6
CONTINUOUS
10
327.6154857
20
-154.2299211
11
341.1384473
21
-150.6064545
0
LINE
8
0
6
CONTINUOUS
10
341.1384473
20
-150.6064545
11
337.5149807
21
-137.0834929
0
LINE
8
0
6
CONTINUOUS
10
337.5149807
20
-137.0834929
11
323.9920191
21
-140.7069595
0
LINE
8
0
6
CONTINUOUS
10
323.9920191
20
-140.7069595
11
327.6154857
21
-154.2299211
0
LINE
8
0
6
CONTINUOUS
10
328.9331424
20
-232.5578457
11
342.456104
21
-228.9343791
0
LINE
8
0
6
CONTINUOUS
10
342.456104
20
-228.9343791
11
338.8326374
21
-215.4114175
0
LINE
8
0
6
CONTINUOUS
10
338.8326374
20
-215.4114175
11
325.3096758
21
-219.0348841
0
LINE
8
0
6
CONTINUOUS
10
325.3096758
20
-219.0348841
11
328.9331424
21
-232.5578457
0
LINE
8
0
6
CONTINUOUS
10
324.0155805
20
-214.205255
11
337.5385421
21
-210.5817884
0
LINE
8
0
6
CONTINUOUS
10
337.5385421
20
-210.5817884
11
333.9150755
21
-197.0588268
0
LINE
8
0
6
CONTINUOUS
10
333.9150755
20
-197.0588268
11
320.3921139
21
-200.6822934
0
LINE
8
0
6
CONTINUOUS
10
320.3921139
20
-200.6822934
11
324.0155805
21
-214.205255
0
LINE
8
0
6
CONTINUOUS
10
319.0980187
20
-195.8526643
11
332.6209803
21
-192.2291977
0
LINE
8
0
6
CONTINUOUS
10
332.6209803
20
-192.2291977
11
328.9975137
21
-178.7062361
0
LINE
8
0
6
CONTINUOUS
10
328.9975137
20
-178.7062361
11
315.4745521
21
-182.3297027
0
LINE
8
0
6
CONTINUOUS
10
315.4745521
20
-182.3297027
11
319.0980187
21
-195.8526643
0
LINE
8
0
6
CONTINUOUS
10
314.1804568
20
-177.5000736
11
327.7034184
21
-173.876607
0
LINE
8
0
6
CONTINUOUS
10
327.7034184
20
-173.876607
11
324.0799518
21
-160.3536454
0
LINE
8
0
6
CONTINUOUS
10
324.0799518
20
-160.3536454
11
310.5569902
21
-163.977112
0
LINE
8
0
6
CONTINUOUS
10
310.5569902
20
-163.977112
11
314.1804568
21
-177.5000736
0
LINE
8
0
6
CONTINUOUS
10
309.262895
20
-159.1474829
11
322.7858566
21
-155.5240163
0
LINE
8
0
6
CONTINUOUS
10
322.7858566
20
-155.5240163
11
319.16239
21
-142.0010547
0
LINE
8
0
6
CONTINUOUS
10
319.16239
20
-142.0010547
11
305.6394284
21
-145.6245213
0
LINE
8
0
6
CONTINUOUS
10
305.6394284
20
-145.6245213
11
309.262895
21
-159.1474829
0
LINE
8
0
6
CONTINUOUS
10
309.8040946
20
-234.5776301
11
323.3270562
21
-230.9541635
0
LINE
8
0
6
CONTINUOUS
10
323.3270562
20
-230.9541635
11
319.7035896
21
-217.4312019
0
LINE
8
0
6
CONTINUOUS
10
319.7035896
20
-217.4312019
11
306.180628
21
-221.0546685
0
LINE
8
0
6
CONTINUOUS
10
306.180628
20
-221.0546685
11
309.8040946
21
-234.5776301
0
LINE
8
0
6
CONTINUOUS
10
304.8865327
20
-216.2250394
11
318.4094943
21
-212.6015728
0
LINE
8
0
6
CONTINUOUS
10
318.4094943
20
-212.6015728
11
314.7860277
21
-199.0786112
0
LINE
8
0
6
CONTINUOUS
10
314.7860277
20
-199.0786112
11
301.2630661
21
-202.7020778
0
LINE
8
0
6
CONTINUOUS
10
301.2630661
20
-202.7020778
11
304.8865327
21
-216.2250394
0
LINE
8
0
6
CONTINUOUS
10
299.9689708
20
-197.8724487
11
313.4919324
21
-194.2489821
0
LINE
8
0
6
CONTINUOUS
10
313.4919324
20
-194.2489821
11
309.8684658
21
-180.7260205
0
LINE
8
0
6
CONTINUOUS
10
309.8684658
20
-180.7260205
11
296.3455042
21
-184.3494871
0
LINE
8
0
6
CONTINUOUS
10
296.3455042
20
-184.3494871
11
299.9689708
21
-197.8724487
0
LINE
8
0
6
CONTINUOUS
10
295.051409
20
-179.519858
11
308.5743706
21
-175.8963914
0
LINE
8
0
6
CONTINUOUS
10
308.5743706
20
-175.8963914
11
304.950904
21
-162.3734298
0
LINE
8
0
6
CONTINUOUS
10
304.950904
20
-162.3734298
11
291.4279424
21
-165.9968964
0
LINE
8
0
6
CONTINUOUS
10
291.4279424
20
-165.9968964
11
295.051409
21
-179.519858
0
LINE
8
0
6
CONTINUOUS
10
290.1338471
20
-161.1672673
11
303.6568087
21
-157.5438007
0
LINE
8
0
6
CONTINUOUS
10
303.6568087
20
-157.5438007
11
300.0333421
21
-144.0208391
0
LINE
8
0
6
CONTINUOUS
10
300.0333421
20
-144.0208391
11
286.5103805
21
-147.6443057
0
LINE
8
0
6
CONTINUOUS
10
286.5103805
20
-147.6443057
11
290.1338471
21
-161.1672673
0
LINE
8
0
6
CONTINUOUS
10
285.7574849
20
-218.2448238
11
299.2804465
21
-214.6213572
0
LINE
8
0
6
CONTINUOUS
10
299.2804465
20
-214.6213572
11
295.6569799
21
-201.0983956
0
LINE
8
0
6
CONTINUOUS
10
295.6569799
20
-201.0983956
11
282.1340183
21
-204.7218622
0
LINE
8
0
6
CONTINUOUS
10
282.1340183
20
-204.7218622
11
285.7574849
21
-218.2448238
0
LINE
8
0
6
CONTINUOUS
10
280.839923
20
-199.8922331
11
294.3628846
21
-196.2687665
0
LINE
8
0
6
CONTINUOUS
10
294.3628846
20
-196.2687665
11
290.739418
21
-182.7458049
0
LINE
8
0
6
CONTINUOUS
10
290.739418
20
-182.7458049
11
277.2164564
21
-186.3692715
0
LINE
8
0
6
CONTINUOUS
10
277.2164564
20
-186.3692715
11
280.839923
21
-199.8922331
0
LINE
8
0
6
CONTINUOUS
10
275.9223612
20
-181.5396424
11
289.4453228
21
-177.9161758
0
LINE
8
0
6
CONTINUOUS
10
289.4453228
20
-177.9161758
11
285.8218562
21
-164.3932142
0
LINE
8
0
6
CONTINUOUS
10
285.8218562
20
-164.3932142
11
272.2988946
21
-168.0166808
0
LINE
8
0
6
CONTINUOUS
10
272.2988946
20
-168.0166808
11
275.9223612
21
-181.5396424
0
LINE
8
0
6
CONTINUOUS
10
271.0047993
20
-163.1870517
11
284.5277609
21
-159.5635851
0
LINE
8
0
6
CONTINUOUS
10
284.5277609
20
-159.5635851
11
280.9042943
21
-146.0406235
0
LINE
8
0
6
CONTINUOUS
10
280.9042943
20
-146.0406235
11
267.3813327
21
-149.6640901
0
LINE
8
0
6
CONTINUOUS
10
267.3813327
20
-149.6640901
11
271.0047993
21
-163.1870517
0
LINE
8
0
6
CONTINUOUS
10
266.0872374
20
-144.834461
11
279.610199
21
-141.2109944
0
LINE
8
0
6
CONTINUOUS
10
279.610199
20
-141.2109944
11
275.9867324
21
-127.6880328
0
LINE
8
0
6
CONTINUOUS
10
275.9867324
20
-127.6880328
11
262.4637708
21
-131.3114994
0
LINE
8
0
6
CONTINUOUS
10
262.4637708
20
-131.3114994
11
266.0872374
21
-144.834461
0
LINE
8
0
6
CONTINUOUS
10
266.1107989
20
-218.3327565
11
279.6337605
21
-214.7092899
0
LINE
8
0
6
CONTINUOUS
10
279.6337605
20
-214.7092899
11
276.0102939
21
-201.1863283
0
LINE
8
0
6
CONTINUOUS
10
276.0102939
20
-201.1863283
11
262.4873323
21
-204.8097949
0
LINE
8
0
6
CONTINUOUS
10
262.4873323
20
-204.8097949
11
266.1107989
21
-218.3327565
0
LINE
8
0
6
CONTINUOUS
10
261.1932371
20
-199.9801658
11
274.7161987
21
-196.3566992
0
LINE
8
0
6
CONTINUOUS
10
274.7161987
20
-196.3566992
11
271.0927321
21
-182.8337376
0
LINE
8
0
6
CONTINUOUS
10
271.0927321
20
-182.8337376
11
257.5697705
21
-186.4572042
0
LINE
8
0
6
CONTINUOUS
10
257.5697705
20
-186.4572042
11
261.1932371
21
-199.9801658
0
LINE
8
0
6
CONTINUOUS
10
256.2756752
20
-181.6275751
11
269.7986368
21
-178.0041085
0
LINE
8
0
6
CONTINUOUS
10
269.7986368
20
-178.0041085
11
266.1751702
21
-164.4811469
0
LINE
8
0
6
CONTINUOUS
10
266.1751702
20
-164.4811469
11
252.6522086
21
-168.1046135
0
LINE
8
0
6
CONTINUOUS
10
252.6522086
20
-168.1046135
11
256.2756752
21
-181.6275751
0
LINE
8
0
6
CONTINUOUS
10
251.3581134
20
-163.2749844
11
264.881075
21
-159.6515178
0
LINE
8
0
6
CONTINUOUS
10
264.881075
20
-159.6515178
11
261.2576084
21
-146.1285562
0
LINE
8
0
6
CONTINUOUS
10
261.2576084
20
-146.1285562
11
247.7346468
21
-149.7520228
0
LINE
8
0
6
CONTINUOUS
10
247.7346468
20
-149.7520228
11
251.3581134
21
-163.2749844
0
LINE
8
0
6
CONTINUOUS
10
246.4405515
20
-144.9223937
11
259.9635131
21
-141.2989271
0
LINE
8
0
6
CONTINUOUS
10
259.9635131
20
-141.2989271
11
256.3400465
21
-127.7759655
0
LINE
8
0
6
CONTINUOUS
10
256.3400465
20
-127.7759655
11
242.8170849
21
-131.3994321
0
LINE
8
0
6
CONTINUOUS
10
242.8170849
20
-131.3994321
11
246.4405515
21
-144.9223937
0
LINE
8
0
6
CONTINUOUS
10
249.0523035
20
-228.0799475
11
262.5752651
21
-224.4564809
0
LINE
8
0
6
CONTINUOUS
10
262.5752651
20
-224.4564809
11
258.9517985
21
-210.9335193
0
LINE
8
0
6
CONTINUOUS
10
258.9517985
20
-210.9335193
11
245.4288369
21
-214.5569859
0
LINE
8
0
6
CONTINUOUS
10
245.4288369
20
-214.5569859
11
249.0523035
21
-228.0799475
0
LINE
8
0
6
CONTINUOUS
10
244.1347416
20
-209.7273568
11
257.6577032
21
-206.1038902
0
LINE
8
0
6
CONTINUOUS
10
257.6577032
20
-206.1038902
11
254.0342366
21
-192.5809286
0
LINE
8
0
6
CONTINUOUS
10
254.0342366
20
-192.5809286
11
240.511275
21
-196.2043952
0
LINE
8
0
6
CONTINUOUS
10
240.511275
20
-196.2043952
11
244.1347416
21
-209.7273568
0
LINE
8
0
6
CONTINUOUS
10
239.2171798
20
-191.3747661
11
252.7401414
21
-187.7512995
0
LINE
8
0
6
CONTINUOUS
10
252.7401414
20
-187.7512995
11
249.1166748
21
-174.2283379
0
LINE
8
0
6
CONTINUOUS
10
249.1166748
20
-174.2283379
11
235.5937132
21
-177.8518045
0
LINE
8
0
6
CONTINUOUS
10
235.5937132
20
-177.8518045
11
239.2171798
21
-191.3747661
0
LINE
8
0
6
CONTINUOUS
10
234.2996179
20
-173.0221754
11
247.8225795
21
-169.3987088
0
LINE
8
0
6
CONTINUOUS
10
247.8225795
20
-169.3987088
11
244.1991129
21
-155.8757472
0
LINE
8
0
6
CONTINUOUS
10
244.1991129
20
-155.8757472
11
230.6761513
21
-159.4992138
0
LINE
8
0
6
CONTINUOUS
10
230.6761513
20
-159.4992138
11
234.2996179
21
-173.0221754
0
LINE
8
0
6
CONTINUOUS
10
229.382056
20
-154.6695847
11
242.9050176
21
-151.0461181
0
LINE
8
0
6
CONTINUOUS
10
242.9050176
20
-151.0461181
11
239.281551
21
-137.5231565
0
LINE
8
0
6
CONTINUOUS
10
239.281551
20
-137.5231565
11
225.7585894
21
-141.1466231
0
LINE
8
0
6
CONTINUOUS
10
225.7585894
20
-141.1466231
11
229.382056
21
-154.6695847
0
LINE
8
0
6
CONTINUOUS
10
232.252627
20
-238.7930643
11
245.7755886
21
-235.1695977
0
LINE
8
0
6
CONTINUOUS
10
245.7755886
20
-235.1695977
11
242.152122
21
-221.6466361
0
LINE
8
0
6
CONTINUOUS
10
242.152122
20
-221.6466361
11
228.6291604
21
-225.2701027
0
LINE
8
0
6
CONTINUOUS
10
228.6291604
20
-225.2701027
11
232.252627
21
-238.7930643
0
LINE
8
0
6
CONTINUOUS
10
227.3350652
20
-220.4404736
11
240.8580268
21
-216.817007
0
LINE
8
0
6
CONTINUOUS
10
240.8580268
20
-216.817007
11
237.2345602
21
-203.2940454
0
LINE
8
0
6
CONTINUOUS
10
237.2345602
20
-203.2940454
11
223.7115986
21
-206.917512
0
LINE
8
0
6
CONTINUOUS
10
223.7115986
20
-206.917512
11
227.3350652
21
-220.4404736
0
LINE
8
0
6
CONTINUOUS
10
222.4175033
20
-202.0878829
11
235.9404649
21
-198.4644163
0
LINE
8
0
6
CONTINUOUS
10
235.9404649
20
-198.4644163
11
232.3169983
21
-184.9414547
0
LINE
8
0
6
CONTINUOUS
10
232.3169983
20
-184.9414547
11
218.7940367
21
-188.5649213
0
LINE
8
0
6
CONTINUOUS
10
218.7940367
20
-188.5649213
11
222.4175033
21
-202.0878829
0
LINE
8
0
6
CONTINUOUS
10
217.4999415
20
-183.7352922
11
231.0229031
21
-180.1118256
0
LINE
8
0
6
CONTINUOUS
10
231.0229031
20
-180.1118256
11
227.3994365
21
-166.588864
0
LINE
8
0
6
CONTINUOUS
10
227.3994365
20
-166.588864
11
213.8764749
21
-170.2123306
0
LINE
8
0
6
CONTINUOUS
10
213.8764749
20
-170.2123306
11
217.4999415
21
-183.7352922
0
LINE
8
0
6
CONTINUOUS
10
212.5823796
20
-165.3827015
11
226.1053412
21
-161.7592349
0
LINE
8
0
6
CONTINUOUS
10
226.1053412
20
-161.7592349
11
222.4818746
21
-148.2362733
0
LINE
8
0
6
CONTINUOUS
10
222.4818746
20
-148.2362733
11
208.958913
21
-151.8597399
0
LINE
8
0
6
CONTINUOUS
10
208.958913
20
-151.8597399
11
212.5823796
21
-165.3827015
0
ENDSEC
0
EOF