%TF.GenerationSoftware,KiCad,Pcbnew,10.0.1*%
%TF.CreationDate,2026-05-01T16:41:25-04:00*%
%TF.ProjectId,left_final,6c656674-5f66-4696-9e61-6c2e6b696361,v1.0.0*%
%TF.SameCoordinates,Original*%
%TF.FileFunction,Copper,L1,Top*%
%TF.FilePolarity,Positive*%
%FSLAX46Y46*%
G04 Gerber Fmt 4.6, Leading zero omitted, Abs format (unit mm)*
G04 Created by KiCad (PCBNEW 10.0.1) date 2026-05-01 16:41:25*
%MOMM*%
%LPD*%
G01*
G04 APERTURE LIST*
%TA.AperFunction,WasherPad*%
%ADD10C,1.000000*%
%TD*%
%TA.AperFunction,ComponentPad*%
%ADD11R,1.778000X1.778000*%
%TD*%
%TA.AperFunction,SMDPad,CuDef*%
%ADD12R,0.900000X1.200000*%
%TD*%
%TA.AperFunction,ComponentPad*%
%ADD13C,1.905000*%
%TD*%
%TA.AperFunction,ComponentPad*%
%ADD14R,1.700000X1.200000*%
%TD*%
%TA.AperFunction,ComponentPad*%
%ADD15O,1.700000X1.200000*%
%TD*%
%TA.AperFunction,ComponentPad*%
%ADD16C,1.752600*%
%TD*%
%TA.AperFunction,Conductor*%
%ADD17C,0.250000*%
%TD*%
G04 APERTURE END LIST*
D10*
%TO.P,T1,*%
%TO.N,*%
X222800000Y-166500000D03*
X222800000Y-169500000D03*
%TD*%
D11*
%TO.P,D4,1*%
%TO.N,P115*%
X96190000Y-148000000D03*
D12*
X98350000Y-148000000D03*
%TO.P,D4,2*%
%TO.N,macro_top*%
X101650000Y-148000000D03*
D13*
X103810000Y-148000000D03*
%TD*%
D11*
%TO.P,D3,1*%
%TO.N,P002*%
X96190000Y-167000000D03*
D12*
X98350000Y-167000000D03*
%TO.P,D3,2*%
%TO.N,macro_home*%
X101650000Y-167000000D03*
D13*
X103810000Y-167000000D03*
%TD*%
D11*
%TO.P,D15,1*%
%TO.N,P113*%
X134190000Y-126000000D03*
D12*
X136350000Y-126000000D03*
%TO.P,D15,2*%
%TO.N,pinky_num*%
X139650000Y-126000000D03*
D13*
X141810000Y-126000000D03*
%TD*%
D11*
%TO.P,D16,1*%
%TO.N,P031*%
X153190000Y-180000000D03*
D12*
X155350000Y-180000000D03*
%TO.P,D16,2*%
%TO.N,ring_space*%
X158650000Y-180000000D03*
D13*
X160810000Y-180000000D03*
%TD*%
D11*
%TO.P,D23,1*%
%TO.N,P002*%
X172190000Y-137000000D03*
D12*
X174350000Y-137000000D03*
%TO.P,D23,2*%
%TO.N,middle_home*%
X177650000Y-137000000D03*
D13*
X179810000Y-137000000D03*
%TD*%
D11*
%TO.P,D14,1*%
%TO.N,P115*%
X134190000Y-145000000D03*
D12*
X136350000Y-145000000D03*
%TO.P,D14,2*%
%TO.N,pinky_top*%
X139650000Y-145000000D03*
D13*
X141810000Y-145000000D03*
%TD*%
D11*
%TO.P,D6,1*%
%TO.N,P031*%
X115190000Y-205000000D03*
D12*
X117350000Y-205000000D03*
%TO.P,D6,2*%
%TO.N,outer_space*%
X120650000Y-205000000D03*
D13*
X122810000Y-205000000D03*
%TD*%
D14*
%TO.P,JST1,1*%
%TO.N,pos*%
X214000000Y-170500000D03*
D15*
%TO.P,JST1,2*%
%TO.N,GND*%
X214000000Y-172500000D03*
%TD*%
D11*
%TO.P,D19,1*%
%TO.N,P115*%
X153190000Y-123000000D03*
D12*
X155350000Y-123000000D03*
%TO.P,D19,2*%
%TO.N,ring_top*%
X158650000Y-123000000D03*
D13*
X160810000Y-123000000D03*
%TD*%
D11*
%TO.P,D35,1*%
%TO.N,P113*%
X210190000Y-110000000D03*
D12*
X212350000Y-110000000D03*
%TO.P,D35,2*%
%TO.N,inner_num*%
X215650000Y-110000000D03*
D13*
X217810000Y-110000000D03*
%TD*%
D11*
%TO.P,D12,1*%
%TO.N,P029*%
X134190000Y-183000000D03*
D12*
X136350000Y-183000000D03*
%TO.P,D12,2*%
%TO.N,pinky_bottom*%
X139650000Y-183000000D03*
D13*
X141810000Y-183000000D03*
%TD*%
D11*
%TO.P,D34,1*%
%TO.N,P115*%
X210190000Y-129000000D03*
D12*
X212350000Y-129000000D03*
%TO.P,D34,2*%
%TO.N,inner_top*%
X215650000Y-129000000D03*
D13*
X217810000Y-129000000D03*
%TD*%
D11*
%TO.P,D17,1*%
%TO.N,P029*%
X153190000Y-161000000D03*
D12*
X155350000Y-161000000D03*
%TO.P,D17,2*%
%TO.N,ring_bottom*%
X158650000Y-161000000D03*
D13*
X160810000Y-161000000D03*
%TD*%
D11*
%TO.P,D32,1*%
%TO.N,P029*%
X210190000Y-167000000D03*
D12*
X212350000Y-167000000D03*
%TO.P,D32,2*%
%TO.N,inner_bottom*%
X215650000Y-167000000D03*
D13*
X217810000Y-167000000D03*
%TD*%
D11*
%TO.P,D26,1*%
%TO.N,P031*%
X191190000Y-180000000D03*
D12*
X193350000Y-180000000D03*
%TO.P,D26,2*%
%TO.N,index_space*%
X196650000Y-180000000D03*
D13*
X198810000Y-180000000D03*
%TD*%
D11*
%TO.P,D18,1*%
%TO.N,P002*%
X153190000Y-142000000D03*
D12*
X155350000Y-142000000D03*
%TO.P,D18,2*%
%TO.N,ring_home*%
X158650000Y-142000000D03*
D13*
X160810000Y-142000000D03*
%TD*%
D11*
%TO.P,D25,1*%
%TO.N,P113*%
X172190000Y-99000000D03*
D12*
X174350000Y-99000000D03*
%TO.P,D25,2*%
%TO.N,middle_num*%
X177650000Y-99000000D03*
D13*
X179810000Y-99000000D03*
%TD*%
D11*
%TO.P,D30,1*%
%TO.N,P113*%
X191190000Y-104000000D03*
D12*
X193350000Y-104000000D03*
%TO.P,D30,2*%
%TO.N,index_num*%
X196650000Y-104000000D03*
D13*
X198810000Y-104000000D03*
%TD*%
D11*
%TO.P,D22,1*%
%TO.N,P029*%
X172190000Y-156000000D03*
D12*
X174350000Y-156000000D03*
%TO.P,D22,2*%
%TO.N,middle_bottom*%
X177650000Y-156000000D03*
D13*
X179810000Y-156000000D03*
%TD*%
D11*
%TO.P,D2,1*%
%TO.N,P029*%
X96190000Y-186000000D03*
D12*
X98350000Y-186000000D03*
%TO.P,D2,2*%
%TO.N,macro_bottom*%
X101650000Y-186000000D03*
D13*
X103810000Y-186000000D03*
%TD*%
D11*
%TO.P,D8,1*%
%TO.N,P002*%
X115190000Y-167000000D03*
D12*
X117350000Y-167000000D03*
%TO.P,D8,2*%
%TO.N,outer_home*%
X120650000Y-167000000D03*
D13*
X122810000Y-167000000D03*
%TD*%
D11*
%TO.P,D9,1*%
%TO.N,P115*%
X115190000Y-148000000D03*
D12*
X117350000Y-148000000D03*
%TO.P,D9,2*%
%TO.N,outer_top*%
X120650000Y-148000000D03*
D13*
X122810000Y-148000000D03*
%TD*%
D11*
%TO.P,D13,1*%
%TO.N,P002*%
X134190000Y-164000000D03*
D12*
X136350000Y-164000000D03*
%TO.P,D13,2*%
%TO.N,pinky_home*%
X139650000Y-164000000D03*
D13*
X141810000Y-164000000D03*
%TD*%
D11*
%TO.P,D11,1*%
%TO.N,P031*%
X134190000Y-202000000D03*
D12*
X136350000Y-202000000D03*
%TO.P,D11,2*%
%TO.N,pinky_space*%
X139650000Y-202000000D03*
D13*
X141810000Y-202000000D03*
%TD*%
D11*
%TO.P,D20,1*%
%TO.N,P113*%
X153190000Y-104000000D03*
D12*
X155350000Y-104000000D03*
%TO.P,D20,2*%
%TO.N,ring_num*%
X158650000Y-104000000D03*
D13*
X160810000Y-104000000D03*
%TD*%
D11*
%TO.P,D28,1*%
%TO.N,P002*%
X191190000Y-142000000D03*
D12*
X193350000Y-142000000D03*
%TO.P,D28,2*%
%TO.N,index_home*%
X196650000Y-142000000D03*
D13*
X198810000Y-142000000D03*
%TD*%
D11*
%TO.P,D1,1*%
%TO.N,P031*%
X96190000Y-205000000D03*
D12*
X98350000Y-205000000D03*
%TO.P,D1,2*%
%TO.N,macro_space*%
X101650000Y-205000000D03*
D13*
X103810000Y-205000000D03*
%TD*%
D16*
%TO.P,MCU1,1*%
%TO.N,P006*%
X218470000Y-192380000D03*
%TO.P,MCU1,2*%
%TO.N,P008*%
X215930000Y-192380000D03*
%TO.P,MCU1,3*%
%TO.N,GND*%
X213390000Y-192380000D03*
%TO.P,MCU1,4*%
X210850000Y-192380000D03*
%TO.P,MCU1,5*%
%TO.N,P017*%
X208310000Y-192380000D03*
%TO.P,MCU1,6*%
%TO.N,P020*%
X205770000Y-192380000D03*
%TO.P,MCU1,7*%
%TO.N,P022*%
X203230000Y-192380000D03*
%TO.P,MCU1,8*%
%TO.N,P024*%
X200690000Y-192380000D03*
%TO.P,MCU1,9*%
%TO.N,P100*%
X198150000Y-192380000D03*
%TO.P,MCU1,10*%
%TO.N,P011*%
X195610000Y-192380000D03*
%TO.P,MCU1,11*%
%TO.N,P104*%
X193070000Y-192380000D03*
%TO.P,MCU1,12*%
%TO.N,P106*%
X190530000Y-192380000D03*
%TO.P,MCU1,13*%
%TO.N,P009*%
X190530000Y-207620000D03*
%TO.P,MCU1,14*%
%TO.N,P010*%
X193070000Y-207620000D03*
%TO.P,MCU1,15*%
%TO.N,P111*%
X195610000Y-207620000D03*
%TO.P,MCU1,16*%
%TO.N,P113*%
X198150000Y-207620000D03*
%TO.P,MCU1,17*%
%TO.N,P115*%
X200690000Y-207620000D03*
%TO.P,MCU1,18*%
%TO.N,P002*%
X203230000Y-207620000D03*
%TO.P,MCU1,19*%
%TO.N,P029*%
X205770000Y-207620000D03*
%TO.P,MCU1,20*%
%TO.N,P031*%
X208310000Y-207620000D03*
%TO.P,MCU1,21*%
%TO.N,VCC*%
X210850000Y-207620000D03*
%TO.P,MCU1,22*%
%TO.N,RST*%
X213390000Y-207620000D03*
%TO.P,MCU1,23*%
%TO.N,GND*%
X215930000Y-207620000D03*
%TO.P,MCU1,24*%
%TO.N,RAW*%
X218470000Y-207620000D03*
%TO.P,MCU1,31*%
%TO.N,P101*%
X195610000Y-194920000D03*
%TO.P,MCU1,32*%
%TO.N,P102*%
X195610000Y-197460000D03*
%TO.P,MCU1,33*%
%TO.N,P107*%
X195610000Y-200000000D03*
%TD*%
D11*
%TO.P,D21,1*%
%TO.N,P031*%
X172190000Y-175000000D03*
D12*
X174350000Y-175000000D03*
%TO.P,D21,2*%
%TO.N,middle_space*%
X177650000Y-175000000D03*
D13*
X179810000Y-175000000D03*
%TD*%
D11*
%TO.P,D5,1*%
%TO.N,P113*%
X96190000Y-129000000D03*
D12*
X98350000Y-129000000D03*
%TO.P,D5,2*%
%TO.N,macro_num*%
X101650000Y-129000000D03*
D13*
X103810000Y-129000000D03*
%TD*%
D11*
%TO.P,D27,1*%
%TO.N,P029*%
X191190000Y-161000000D03*
D12*
X193350000Y-161000000D03*
%TO.P,D27,2*%
%TO.N,index_bottom*%
X196650000Y-161000000D03*
D13*
X198810000Y-161000000D03*
%TD*%
D11*
%TO.P,D33,1*%
%TO.N,P002*%
X210190000Y-148000000D03*
D12*
X212350000Y-148000000D03*
%TO.P,D33,2*%
%TO.N,inner_home*%
X215650000Y-148000000D03*
D13*
X217810000Y-148000000D03*
%TD*%
D11*
%TO.P,D24,1*%
%TO.N,P115*%
X172190000Y-118000000D03*
D12*
X174350000Y-118000000D03*
%TO.P,D24,2*%
%TO.N,middle_top*%
X177650000Y-118000000D03*
D13*
X179810000Y-118000000D03*
%TD*%
D11*
%TO.P,D10,1*%
%TO.N,P113*%
X115190000Y-129000000D03*
D12*
X117350000Y-129000000D03*
%TO.P,D10,2*%
%TO.N,outer_num*%
X120650000Y-129000000D03*
D13*
X122810000Y-129000000D03*
%TD*%
D11*
%TO.P,D31,1*%
%TO.N,P031*%
X210190000Y-186000000D03*
D12*
X212350000Y-186000000D03*
%TO.P,D31,2*%
%TO.N,inner_space*%
X215650000Y-186000000D03*
D13*
X217810000Y-186000000D03*
%TD*%
D11*
%TO.P,D29,1*%
%TO.N,P115*%
X191190000Y-123000000D03*
D12*
X193350000Y-123000000D03*
%TO.P,D29,2*%
%TO.N,index_top*%
X196650000Y-123000000D03*
D13*
X198810000Y-123000000D03*
%TD*%
D11*
%TO.P,D7,1*%
%TO.N,P029*%
X115190000Y-186000000D03*
D12*
X117350000Y-186000000D03*
%TO.P,D7,2*%
%TO.N,outer_bottom*%
X120650000Y-186000000D03*
D13*
X122810000Y-186000000D03*
%TD*%
%TO.N,pinky_num*%
D17*
X139650000Y-126000000D02*
X141810000Y-126000000D01*
%TO.N,pinky_top*%
X139650000Y-145000000D02*
X141810000Y-145000000D01*
%TO.N,P115*%
X113912500Y-146722500D02*
X115190000Y-148000000D01*
X213125000Y-157774869D02*
X213125000Y-147225131D01*
X169190000Y-121000000D02*
X172190000Y-118000000D01*
X216818900Y-179832373D02*
X212965000Y-175978473D01*
X136350000Y-145000000D02*
X134190000Y-145000000D01*
X136350000Y-145000000D02*
X141854100Y-139495900D01*
X200690000Y-207620000D02*
X202791300Y-209721300D01*
X212350000Y-129000000D02*
X210190000Y-129000000D01*
X202791300Y-209721300D02*
X212987595Y-209721300D01*
X174350000Y-118000000D02*
X179350000Y-123000000D01*
X219087500Y-184436227D02*
X216818900Y-182167627D01*
X172190000Y-118000000D02*
X174350000Y-118000000D01*
X213125000Y-147225131D02*
X216368900Y-143981231D01*
X153190000Y-125160000D02*
X153190000Y-123000000D01*
X214591300Y-207122405D02*
X217131300Y-204582405D01*
X157350000Y-121000000D02*
X169190000Y-121000000D01*
X141854100Y-139495900D02*
X141854100Y-136495900D01*
X199350000Y-129000000D02*
X210190000Y-129000000D01*
X216368900Y-143981231D02*
X216368900Y-140400550D01*
X213950000Y-165400131D02*
X216368900Y-162981231D01*
X191190000Y-123000000D02*
X193350000Y-123000000D01*
X212987595Y-209721300D02*
X214591300Y-208117595D01*
X179350000Y-123000000D02*
X191190000Y-123000000D01*
X141854100Y-136495900D02*
X153190000Y-125160000D01*
X120350000Y-145000000D02*
X134190000Y-145000000D01*
X210190000Y-134221650D02*
X210190000Y-129000000D01*
X155350000Y-123000000D02*
X153190000Y-123000000D01*
X96190000Y-148000000D02*
X98350000Y-148000000D01*
X213950000Y-167736396D02*
X213950000Y-165400131D01*
X216368900Y-140400550D02*
X210190000Y-134221650D01*
X215175000Y-173768473D02*
X215175000Y-168961396D01*
X193350000Y-123000000D02*
X199350000Y-129000000D01*
X155350000Y-123000000D02*
X157350000Y-121000000D01*
X117350000Y-148000000D02*
X120350000Y-145000000D01*
X216368900Y-162981231D02*
X216368900Y-161018769D01*
X217131300Y-204582405D02*
X217131300Y-188485358D01*
X217131300Y-188485358D02*
X219087500Y-186529158D01*
X214591300Y-208117595D02*
X214591300Y-207122405D01*
X216818900Y-182167627D02*
X216818900Y-179832373D01*
X219087500Y-186529158D02*
X219087500Y-184436227D01*
X99627500Y-146722500D02*
X113912500Y-146722500D01*
X216368900Y-161018769D02*
X213125000Y-157774869D01*
X98350000Y-148000000D02*
X99627500Y-146722500D01*
X212965000Y-175978473D02*
X215175000Y-173768473D01*
X215175000Y-168961396D02*
X213950000Y-167736396D01*
X115190000Y-148000000D02*
X117350000Y-148000000D01*
%TO.N,macro_top*%
X101650000Y-148000000D02*
X103810000Y-148000000D01*
%TO.N,index_top*%
X196650000Y-123000000D02*
X198810000Y-123000000D01*
%TO.N,middle_space*%
X179810000Y-175000000D02*
X177650000Y-175000000D01*
%TO.N,P002*%
X214591300Y-204582405D02*
X214591300Y-183758831D01*
X212065000Y-160285131D02*
X212065000Y-149875000D01*
X214591300Y-183758831D02*
X216368900Y-181981231D01*
X170964100Y-138225900D02*
X159124100Y-138225900D01*
X216368900Y-180018769D02*
X212515000Y-176164869D01*
X159124100Y-138225900D02*
X155350000Y-142000000D01*
X140368900Y-158631100D02*
X140368900Y-159981100D01*
X210190000Y-148000000D02*
X212350000Y-148000000D01*
X212515000Y-176164869D02*
X212515000Y-168535000D01*
X213500000Y-167550000D02*
X213500000Y-164850131D01*
X153190000Y-145810000D02*
X140368900Y-158631100D01*
X199350000Y-148000000D02*
X210190000Y-148000000D01*
X179350000Y-142000000D02*
X191190000Y-142000000D01*
X113912500Y-168277500D02*
X99627500Y-168277500D01*
X212515000Y-168535000D02*
X213500000Y-167550000D01*
X140368900Y-159981100D02*
X136350000Y-164000000D01*
X117350000Y-167000000D02*
X115190000Y-167000000D01*
X99627500Y-168277500D02*
X98350000Y-167000000D01*
X211631100Y-160719031D02*
X212065000Y-160285131D01*
X174350000Y-137000000D02*
X172190000Y-137000000D01*
X212051300Y-208117595D02*
X212051300Y-207122405D01*
X212065000Y-149875000D02*
X210190000Y-148000000D01*
X98350000Y-167000000D02*
X96190000Y-167000000D01*
X172190000Y-137000000D02*
X170964100Y-138225900D01*
X136350000Y-164000000D02*
X134190000Y-164000000D01*
X174350000Y-137000000D02*
X179350000Y-142000000D01*
X134190000Y-164000000D02*
X120350000Y-164000000D01*
X115190000Y-167000000D02*
X113912500Y-168277500D01*
X120350000Y-164000000D02*
X117350000Y-167000000D01*
X193350000Y-142000000D02*
X199350000Y-148000000D01*
X211631100Y-162981231D02*
X211631100Y-160719031D01*
X216368900Y-181981231D02*
X216368900Y-180018769D01*
X213500000Y-164850131D02*
X211631100Y-162981231D01*
X203230000Y-207620000D02*
X204881300Y-209271300D01*
X210897595Y-209271300D02*
X212051300Y-208117595D01*
X204881300Y-209271300D02*
X210897595Y-209271300D01*
X155350000Y-142000000D02*
X153190000Y-142000000D01*
X212051300Y-207122405D02*
X214591300Y-204582405D01*
X153190000Y-142000000D02*
X153190000Y-145810000D01*
X191190000Y-142000000D02*
X193350000Y-142000000D01*
%TO.N,macro_home*%
X101650000Y-167000000D02*
X103810000Y-167000000D01*
%TO.N,outer_bottom*%
X120650000Y-186000000D02*
X122810000Y-186000000D01*
%TO.N,outer_home*%
X122810000Y-167000000D02*
X120650000Y-167000000D01*
%TO.N,P113*%
X141854100Y-120495900D02*
X141854100Y-117257550D01*
X115190000Y-129000000D02*
X117350000Y-129000000D01*
X193350000Y-104000000D02*
X199350000Y-110000000D01*
X98350000Y-129000000D02*
X99627500Y-127722500D01*
X156627500Y-102722500D02*
X168467500Y-102722500D01*
X172190000Y-99000000D02*
X174350000Y-99000000D01*
X99627500Y-127722500D02*
X113912500Y-127722500D01*
X191190000Y-104000000D02*
X189265000Y-105925000D01*
X191190000Y-104000000D02*
X193350000Y-104000000D01*
X215077595Y-210171300D02*
X217131300Y-208117595D01*
X217131300Y-208117595D02*
X217131300Y-207122405D01*
X155350000Y-104000000D02*
X156627500Y-102722500D01*
X200701300Y-210171300D02*
X215077595Y-210171300D01*
X210190000Y-110000000D02*
X212350000Y-110000000D01*
X120350000Y-126000000D02*
X134190000Y-126000000D01*
X153190000Y-104000000D02*
X155350000Y-104000000D01*
X98350000Y-129000000D02*
X96190000Y-129000000D01*
X113912500Y-127722500D02*
X115190000Y-129000000D01*
X189265000Y-105925000D02*
X181275000Y-105925000D01*
X217131300Y-207122405D02*
X220305900Y-203947805D01*
X153190000Y-105921650D02*
X153190000Y-104000000D01*
X136350000Y-126000000D02*
X141854100Y-120495900D01*
X198150000Y-207620000D02*
X200701300Y-210171300D01*
X117350000Y-129000000D02*
X120350000Y-126000000D01*
X211329000Y-110000000D02*
X210190000Y-110000000D01*
X141854100Y-117257550D02*
X153190000Y-105921650D01*
X181275000Y-105925000D02*
X174350000Y-99000000D01*
X168467500Y-102722500D02*
X172190000Y-99000000D01*
X199350000Y-110000000D02*
X210190000Y-110000000D01*
X220305900Y-203947805D02*
X220305900Y-118976900D01*
X220305900Y-118976900D02*
X211329000Y-110000000D01*
X134190000Y-126000000D02*
X136350000Y-126000000D01*
%TO.N,inner_home*%
X215650000Y-148000000D02*
X217810000Y-148000000D01*
%TO.N,P031*%
X170964100Y-176225900D02*
X159124100Y-176225900D01*
X172190000Y-175000000D02*
X170964100Y-176225900D01*
X113912500Y-203722500D02*
X99627500Y-203722500D01*
X153190000Y-180000000D02*
X153190000Y-185156316D01*
X136350000Y-202000000D02*
X134190000Y-202000000D01*
X179350000Y-180000000D02*
X174350000Y-175000000D01*
X209511300Y-186678700D02*
X210190000Y-186000000D01*
X210190000Y-186000000D02*
X209265000Y-186925000D01*
X118950000Y-205000000D02*
X117350000Y-205000000D01*
X117350000Y-205000000D02*
X115190000Y-205000000D01*
X209511300Y-206418700D02*
X209511300Y-186678700D01*
X115190000Y-205000000D02*
X113912500Y-203722500D01*
X212350000Y-186000000D02*
X210190000Y-186000000D01*
X155350000Y-180000000D02*
X153190000Y-180000000D01*
X121950000Y-202000000D02*
X118950000Y-205000000D01*
X193350000Y-180000000D02*
X191190000Y-180000000D01*
X209265000Y-186925000D02*
X200275000Y-186925000D01*
X98350000Y-205000000D02*
X96190000Y-205000000D01*
X159124100Y-176225900D02*
X155350000Y-180000000D01*
X174350000Y-175000000D02*
X172190000Y-175000000D01*
X140368900Y-197981100D02*
X136350000Y-202000000D01*
X200275000Y-186925000D02*
X193350000Y-180000000D01*
X134190000Y-202000000D02*
X121950000Y-202000000D01*
X153190000Y-185156316D02*
X140368900Y-197977416D01*
X208310000Y-207620000D02*
X209511300Y-206418700D01*
X140368900Y-197977416D02*
X140368900Y-197981100D01*
X99627500Y-203722500D02*
X98350000Y-205000000D01*
X191190000Y-180000000D02*
X179350000Y-180000000D01*
%TO.N,ring_space*%
X158650000Y-180000000D02*
X160810000Y-180000000D01*
%TO.N,pinky_space*%
X139650000Y-202000000D02*
X141810000Y-202000000D01*
%TO.N,middle_home*%
X179810000Y-137000000D02*
X177650000Y-137000000D01*
%TO.N,inner_num*%
X215650000Y-110000000D02*
X217810000Y-110000000D01*
%TO.N,outer_space*%
X120650000Y-205000000D02*
X122810000Y-205000000D01*
%TO.N,ring_num*%
X158650000Y-104000000D02*
X160810000Y-104000000D01*
%TO.N,ring_top*%
X158650000Y-123000000D02*
X160810000Y-123000000D01*
%TO.N,P029*%
X191190000Y-161000000D02*
X193350000Y-161000000D01*
X211631100Y-179868900D02*
X212065000Y-179435000D01*
X170964100Y-157225900D02*
X172190000Y-156000000D01*
X113912500Y-184722500D02*
X115190000Y-186000000D01*
X153190000Y-162921650D02*
X153190000Y-161000000D01*
X179350000Y-161000000D02*
X191190000Y-161000000D01*
X213125000Y-186925000D02*
X213125000Y-183475131D01*
X98350000Y-186000000D02*
X99627500Y-184722500D01*
X174350000Y-156000000D02*
X172190000Y-156000000D01*
X212188700Y-204445005D02*
X212188700Y-187861300D01*
X99627500Y-184722500D02*
X113912500Y-184722500D01*
X159124100Y-157225900D02*
X170964100Y-157225900D01*
X136350000Y-183000000D02*
X142000000Y-177350000D01*
X209511300Y-207122405D02*
X212188700Y-204445005D01*
X212065000Y-168875000D02*
X210190000Y-167000000D01*
X96190000Y-186000000D02*
X98350000Y-186000000D01*
X208807595Y-208821300D02*
X209511300Y-208117595D01*
X136350000Y-183000000D02*
X134190000Y-183000000D01*
X206971300Y-208821300D02*
X208807595Y-208821300D01*
X142000000Y-177350000D02*
X142000000Y-174111650D01*
X205770000Y-207620000D02*
X206971300Y-208821300D01*
X193350000Y-161000000D02*
X199350000Y-167000000D01*
X117350000Y-186000000D02*
X115190000Y-186000000D01*
X213125000Y-183475131D02*
X211631100Y-181981231D01*
X212188700Y-187861300D02*
X213125000Y-186925000D01*
X117350000Y-186000000D02*
X120350000Y-183000000D01*
X155350000Y-161000000D02*
X153190000Y-161000000D01*
X212065000Y-179435000D02*
X212065000Y-168875000D01*
X212350000Y-167000000D02*
X210190000Y-167000000D01*
X174350000Y-156000000D02*
X179350000Y-161000000D01*
X142000000Y-174111650D02*
X153190000Y-162921650D01*
X209511300Y-208117595D02*
X209511300Y-207122405D01*
X120350000Y-183000000D02*
X134190000Y-183000000D01*
X211631100Y-181981231D02*
X211631100Y-179868900D01*
X155350000Y-161000000D02*
X159124100Y-157225900D01*
X199350000Y-167000000D02*
X210190000Y-167000000D01*
%TO.N,pinky_bottom*%
X141810000Y-183000000D02*
X139650000Y-183000000D01*
%TO.N,inner_top*%
X215650000Y-129000000D02*
X217810000Y-129000000D01*
%TO.N,macro_bottom*%
X101650000Y-186000000D02*
X103810000Y-186000000D01*
%TO.N,outer_top*%
X120650000Y-148000000D02*
X122810000Y-148000000D01*
%TO.N,ring_bottom*%
X160810000Y-161000000D02*
X158650000Y-161000000D01*
%TO.N,inner_bottom*%
X215650000Y-167000000D02*
X217810000Y-167000000D01*
%TO.N,index_space*%
X196650000Y-180000000D02*
X198810000Y-180000000D01*
%TO.N,inner_space*%
X215650000Y-186000000D02*
X217810000Y-186000000D01*
%TO.N,ring_home*%
X160810000Y-142000000D02*
X158650000Y-142000000D01*
%TO.N,middle_num*%
X177650000Y-99000000D02*
X179810000Y-99000000D01*
%TO.N,index_num*%
X196650000Y-104000000D02*
X198810000Y-104000000D01*
%TO.N,index_home*%
X196650000Y-142000000D02*
X198810000Y-142000000D01*
%TO.N,middle_bottom*%
X177650000Y-156000000D02*
X179810000Y-156000000D01*
%TO.N,macro_num*%
X101650000Y-129000000D02*
X103810000Y-129000000D01*
%TO.N,middle_top*%
X177650000Y-118000000D02*
X179810000Y-118000000D01*
%TO.N,pinky_home*%
X141810000Y-164000000D02*
X139650000Y-164000000D01*
%TO.N,macro_space*%
X101650000Y-205000000D02*
X103810000Y-205000000D01*
%TO.N,index_bottom*%
X196650000Y-161000000D02*
X198810000Y-161000000D01*
%TO.N,outer_num*%
X120650000Y-129000000D02*
X122810000Y-129000000D01*
%TD*%
M02*
