%TF.GenerationSoftware,KiCad,Pcbnew,10.0.1*%
%TF.CreationDate,2026-05-01T16:41:25-04:00*%
%TF.ProjectId,left_final,6c656674-5f66-4696-9e61-6c2e6b696361,v1.0.0*%
%TF.SameCoordinates,Original*%
%TF.FileFunction,Legend,Bot*%
%TF.FilePolarity,Positive*%
%FSLAX46Y46*%
G04 Gerber Fmt 4.6, Leading zero omitted, Abs format (unit mm)*
G04 Created by KiCad (PCBNEW 10.0.1) date 2026-05-01 16:41:25*
%MOMM*%
%LPD*%
G01*
G04 APERTURE LIST*
%ADD10C,0.150000*%
%ADD11C,0.100000*%
%ADD12C,0.120000*%
%ADD13C,0.381000*%
%ADD14C,1.752600*%
G04 APERTURE END LIST*
D10*
X193432295Y-193929476D02*
X193432295Y-193472333D01*
X193432295Y-193700905D02*
X192632295Y-193700905D01*
X192632295Y-193700905D02*
X192746580Y-193624714D01*
X192746580Y-193624714D02*
X192822771Y-193548524D01*
X192822771Y-193548524D02*
X192860866Y-193472333D01*
X192632295Y-194424715D02*
X192632295Y-194500905D01*
X192632295Y-194500905D02*
X192670390Y-194577096D01*
X192670390Y-194577096D02*
X192708485Y-194615191D01*
X192708485Y-194615191D02*
X192784676Y-194653286D01*
X192784676Y-194653286D02*
X192937057Y-194691381D01*
X192937057Y-194691381D02*
X193127533Y-194691381D01*
X193127533Y-194691381D02*
X193279914Y-194653286D01*
X193279914Y-194653286D02*
X193356104Y-194615191D01*
X193356104Y-194615191D02*
X193394200Y-194577096D01*
X193394200Y-194577096D02*
X193432295Y-194500905D01*
X193432295Y-194500905D02*
X193432295Y-194424715D01*
X193432295Y-194424715D02*
X193394200Y-194348524D01*
X193394200Y-194348524D02*
X193356104Y-194310429D01*
X193356104Y-194310429D02*
X193279914Y-194272334D01*
X193279914Y-194272334D02*
X193127533Y-194234238D01*
X193127533Y-194234238D02*
X192937057Y-194234238D01*
X192937057Y-194234238D02*
X192784676Y-194272334D01*
X192784676Y-194272334D02*
X192708485Y-194310429D01*
X192708485Y-194310429D02*
X192670390Y-194348524D01*
X192670390Y-194348524D02*
X192632295Y-194424715D01*
X192898961Y-195377096D02*
X193432295Y-195377096D01*
X192594200Y-195186620D02*
X193165628Y-194996143D01*
X193165628Y-194996143D02*
X193165628Y-195491382D01*
X192632295Y-204737191D02*
X192632295Y-204813381D01*
X192632295Y-204813381D02*
X192670390Y-204889572D01*
X192670390Y-204889572D02*
X192708485Y-204927667D01*
X192708485Y-204927667D02*
X192784676Y-204965762D01*
X192784676Y-204965762D02*
X192937057Y-205003857D01*
X192937057Y-205003857D02*
X193127533Y-205003857D01*
X193127533Y-205003857D02*
X193279914Y-204965762D01*
X193279914Y-204965762D02*
X193356104Y-204927667D01*
X193356104Y-204927667D02*
X193394200Y-204889572D01*
X193394200Y-204889572D02*
X193432295Y-204813381D01*
X193432295Y-204813381D02*
X193432295Y-204737191D01*
X193432295Y-204737191D02*
X193394200Y-204661000D01*
X193394200Y-204661000D02*
X193356104Y-204622905D01*
X193356104Y-204622905D02*
X193279914Y-204584810D01*
X193279914Y-204584810D02*
X193127533Y-204546714D01*
X193127533Y-204546714D02*
X192937057Y-204546714D01*
X192937057Y-204546714D02*
X192784676Y-204584810D01*
X192784676Y-204584810D02*
X192708485Y-204622905D01*
X192708485Y-204622905D02*
X192670390Y-204661000D01*
X192670390Y-204661000D02*
X192632295Y-204737191D01*
X193432295Y-205765762D02*
X193432295Y-205308619D01*
X193432295Y-205537191D02*
X192632295Y-205537191D01*
X192632295Y-205537191D02*
X192746580Y-205461000D01*
X192746580Y-205461000D02*
X192822771Y-205384810D01*
X192822771Y-205384810D02*
X192860866Y-205308619D01*
X192632295Y-206261001D02*
X192632295Y-206337191D01*
X192632295Y-206337191D02*
X192670390Y-206413382D01*
X192670390Y-206413382D02*
X192708485Y-206451477D01*
X192708485Y-206451477D02*
X192784676Y-206489572D01*
X192784676Y-206489572D02*
X192937057Y-206527667D01*
X192937057Y-206527667D02*
X193127533Y-206527667D01*
X193127533Y-206527667D02*
X193279914Y-206489572D01*
X193279914Y-206489572D02*
X193356104Y-206451477D01*
X193356104Y-206451477D02*
X193394200Y-206413382D01*
X193394200Y-206413382D02*
X193432295Y-206337191D01*
X193432295Y-206337191D02*
X193432295Y-206261001D01*
X193432295Y-206261001D02*
X193394200Y-206184810D01*
X193394200Y-206184810D02*
X193356104Y-206146715D01*
X193356104Y-206146715D02*
X193279914Y-206108620D01*
X193279914Y-206108620D02*
X193127533Y-206070524D01*
X193127533Y-206070524D02*
X192937057Y-206070524D01*
X192937057Y-206070524D02*
X192784676Y-206108620D01*
X192784676Y-206108620D02*
X192708485Y-206146715D01*
X192708485Y-206146715D02*
X192670390Y-206184810D01*
X192670390Y-206184810D02*
X192632295Y-206261001D01*
X195972295Y-205003857D02*
X195972295Y-204546714D01*
X195972295Y-204775286D02*
X195172295Y-204775286D01*
X195172295Y-204775286D02*
X195286580Y-204699095D01*
X195286580Y-204699095D02*
X195362771Y-204622905D01*
X195362771Y-204622905D02*
X195400866Y-204546714D01*
X195972295Y-205765762D02*
X195972295Y-205308619D01*
X195972295Y-205537191D02*
X195172295Y-205537191D01*
X195172295Y-205537191D02*
X195286580Y-205461000D01*
X195286580Y-205461000D02*
X195362771Y-205384810D01*
X195362771Y-205384810D02*
X195400866Y-205308619D01*
X195972295Y-206527667D02*
X195972295Y-206070524D01*
X195972295Y-206299096D02*
X195172295Y-206299096D01*
X195172295Y-206299096D02*
X195286580Y-206222905D01*
X195286580Y-206222905D02*
X195362771Y-206146715D01*
X195362771Y-206146715D02*
X195400866Y-206070524D01*
X198512295Y-193929476D02*
X198512295Y-193472333D01*
X198512295Y-193700905D02*
X197712295Y-193700905D01*
X197712295Y-193700905D02*
X197826580Y-193624714D01*
X197826580Y-193624714D02*
X197902771Y-193548524D01*
X197902771Y-193548524D02*
X197940866Y-193472333D01*
X197712295Y-194424715D02*
X197712295Y-194500905D01*
X197712295Y-194500905D02*
X197750390Y-194577096D01*
X197750390Y-194577096D02*
X197788485Y-194615191D01*
X197788485Y-194615191D02*
X197864676Y-194653286D01*
X197864676Y-194653286D02*
X198017057Y-194691381D01*
X198017057Y-194691381D02*
X198207533Y-194691381D01*
X198207533Y-194691381D02*
X198359914Y-194653286D01*
X198359914Y-194653286D02*
X198436104Y-194615191D01*
X198436104Y-194615191D02*
X198474200Y-194577096D01*
X198474200Y-194577096D02*
X198512295Y-194500905D01*
X198512295Y-194500905D02*
X198512295Y-194424715D01*
X198512295Y-194424715D02*
X198474200Y-194348524D01*
X198474200Y-194348524D02*
X198436104Y-194310429D01*
X198436104Y-194310429D02*
X198359914Y-194272334D01*
X198359914Y-194272334D02*
X198207533Y-194234238D01*
X198207533Y-194234238D02*
X198017057Y-194234238D01*
X198017057Y-194234238D02*
X197864676Y-194272334D01*
X197864676Y-194272334D02*
X197788485Y-194310429D01*
X197788485Y-194310429D02*
X197750390Y-194348524D01*
X197750390Y-194348524D02*
X197712295Y-194424715D01*
X197712295Y-195186620D02*
X197712295Y-195262810D01*
X197712295Y-195262810D02*
X197750390Y-195339001D01*
X197750390Y-195339001D02*
X197788485Y-195377096D01*
X197788485Y-195377096D02*
X197864676Y-195415191D01*
X197864676Y-195415191D02*
X198017057Y-195453286D01*
X198017057Y-195453286D02*
X198207533Y-195453286D01*
X198207533Y-195453286D02*
X198359914Y-195415191D01*
X198359914Y-195415191D02*
X198436104Y-195377096D01*
X198436104Y-195377096D02*
X198474200Y-195339001D01*
X198474200Y-195339001D02*
X198512295Y-195262810D01*
X198512295Y-195262810D02*
X198512295Y-195186620D01*
X198512295Y-195186620D02*
X198474200Y-195110429D01*
X198474200Y-195110429D02*
X198436104Y-195072334D01*
X198436104Y-195072334D02*
X198359914Y-195034239D01*
X198359914Y-195034239D02*
X198207533Y-194996143D01*
X198207533Y-194996143D02*
X198017057Y-194996143D01*
X198017057Y-194996143D02*
X197864676Y-195034239D01*
X197864676Y-195034239D02*
X197788485Y-195072334D01*
X197788485Y-195072334D02*
X197750390Y-195110429D01*
X197750390Y-195110429D02*
X197712295Y-195186620D01*
X198512295Y-205003857D02*
X198512295Y-204546714D01*
X198512295Y-204775286D02*
X197712295Y-204775286D01*
X197712295Y-204775286D02*
X197826580Y-204699095D01*
X197826580Y-204699095D02*
X197902771Y-204622905D01*
X197902771Y-204622905D02*
X197940866Y-204546714D01*
X198512295Y-205765762D02*
X198512295Y-205308619D01*
X198512295Y-205537191D02*
X197712295Y-205537191D01*
X197712295Y-205537191D02*
X197826580Y-205461000D01*
X197826580Y-205461000D02*
X197902771Y-205384810D01*
X197902771Y-205384810D02*
X197940866Y-205308619D01*
X197712295Y-206032429D02*
X197712295Y-206527667D01*
X197712295Y-206527667D02*
X198017057Y-206261001D01*
X198017057Y-206261001D02*
X198017057Y-206375286D01*
X198017057Y-206375286D02*
X198055152Y-206451477D01*
X198055152Y-206451477D02*
X198093247Y-206489572D01*
X198093247Y-206489572D02*
X198169438Y-206527667D01*
X198169438Y-206527667D02*
X198359914Y-206527667D01*
X198359914Y-206527667D02*
X198436104Y-206489572D01*
X198436104Y-206489572D02*
X198474200Y-206451477D01*
X198474200Y-206451477D02*
X198512295Y-206375286D01*
X198512295Y-206375286D02*
X198512295Y-206146715D01*
X198512295Y-206146715D02*
X198474200Y-206070524D01*
X198474200Y-206070524D02*
X198436104Y-206032429D01*
X200252295Y-193662810D02*
X200252295Y-193739000D01*
X200252295Y-193739000D02*
X200290390Y-193815191D01*
X200290390Y-193815191D02*
X200328485Y-193853286D01*
X200328485Y-193853286D02*
X200404676Y-193891381D01*
X200404676Y-193891381D02*
X200557057Y-193929476D01*
X200557057Y-193929476D02*
X200747533Y-193929476D01*
X200747533Y-193929476D02*
X200899914Y-193891381D01*
X200899914Y-193891381D02*
X200976104Y-193853286D01*
X200976104Y-193853286D02*
X201014200Y-193815191D01*
X201014200Y-193815191D02*
X201052295Y-193739000D01*
X201052295Y-193739000D02*
X201052295Y-193662810D01*
X201052295Y-193662810D02*
X201014200Y-193586619D01*
X201014200Y-193586619D02*
X200976104Y-193548524D01*
X200976104Y-193548524D02*
X200899914Y-193510429D01*
X200899914Y-193510429D02*
X200747533Y-193472333D01*
X200747533Y-193472333D02*
X200557057Y-193472333D01*
X200557057Y-193472333D02*
X200404676Y-193510429D01*
X200404676Y-193510429D02*
X200328485Y-193548524D01*
X200328485Y-193548524D02*
X200290390Y-193586619D01*
X200290390Y-193586619D02*
X200252295Y-193662810D01*
X200328485Y-194234238D02*
X200290390Y-194272334D01*
X200290390Y-194272334D02*
X200252295Y-194348524D01*
X200252295Y-194348524D02*
X200252295Y-194539000D01*
X200252295Y-194539000D02*
X200290390Y-194615191D01*
X200290390Y-194615191D02*
X200328485Y-194653286D01*
X200328485Y-194653286D02*
X200404676Y-194691381D01*
X200404676Y-194691381D02*
X200480866Y-194691381D01*
X200480866Y-194691381D02*
X200595152Y-194653286D01*
X200595152Y-194653286D02*
X201052295Y-194196143D01*
X201052295Y-194196143D02*
X201052295Y-194691381D01*
X200518961Y-195377096D02*
X201052295Y-195377096D01*
X200214200Y-195186620D02*
X200785628Y-194996143D01*
X200785628Y-194996143D02*
X200785628Y-195491382D01*
X201052295Y-205003857D02*
X201052295Y-204546714D01*
X201052295Y-204775286D02*
X200252295Y-204775286D01*
X200252295Y-204775286D02*
X200366580Y-204699095D01*
X200366580Y-204699095D02*
X200442771Y-204622905D01*
X200442771Y-204622905D02*
X200480866Y-204546714D01*
X201052295Y-205765762D02*
X201052295Y-205308619D01*
X201052295Y-205537191D02*
X200252295Y-205537191D01*
X200252295Y-205537191D02*
X200366580Y-205461000D01*
X200366580Y-205461000D02*
X200442771Y-205384810D01*
X200442771Y-205384810D02*
X200480866Y-205308619D01*
X200252295Y-206489572D02*
X200252295Y-206108620D01*
X200252295Y-206108620D02*
X200633247Y-206070524D01*
X200633247Y-206070524D02*
X200595152Y-206108620D01*
X200595152Y-206108620D02*
X200557057Y-206184810D01*
X200557057Y-206184810D02*
X200557057Y-206375286D01*
X200557057Y-206375286D02*
X200595152Y-206451477D01*
X200595152Y-206451477D02*
X200633247Y-206489572D01*
X200633247Y-206489572D02*
X200709438Y-206527667D01*
X200709438Y-206527667D02*
X200899914Y-206527667D01*
X200899914Y-206527667D02*
X200976104Y-206489572D01*
X200976104Y-206489572D02*
X201014200Y-206451477D01*
X201014200Y-206451477D02*
X201052295Y-206375286D01*
X201052295Y-206375286D02*
X201052295Y-206184810D01*
X201052295Y-206184810D02*
X201014200Y-206108620D01*
X201014200Y-206108620D02*
X200976104Y-206070524D01*
X202762295Y-193662810D02*
X202762295Y-193739000D01*
X202762295Y-193739000D02*
X202800390Y-193815191D01*
X202800390Y-193815191D02*
X202838485Y-193853286D01*
X202838485Y-193853286D02*
X202914676Y-193891381D01*
X202914676Y-193891381D02*
X203067057Y-193929476D01*
X203067057Y-193929476D02*
X203257533Y-193929476D01*
X203257533Y-193929476D02*
X203409914Y-193891381D01*
X203409914Y-193891381D02*
X203486104Y-193853286D01*
X203486104Y-193853286D02*
X203524200Y-193815191D01*
X203524200Y-193815191D02*
X203562295Y-193739000D01*
X203562295Y-193739000D02*
X203562295Y-193662810D01*
X203562295Y-193662810D02*
X203524200Y-193586619D01*
X203524200Y-193586619D02*
X203486104Y-193548524D01*
X203486104Y-193548524D02*
X203409914Y-193510429D01*
X203409914Y-193510429D02*
X203257533Y-193472333D01*
X203257533Y-193472333D02*
X203067057Y-193472333D01*
X203067057Y-193472333D02*
X202914676Y-193510429D01*
X202914676Y-193510429D02*
X202838485Y-193548524D01*
X202838485Y-193548524D02*
X202800390Y-193586619D01*
X202800390Y-193586619D02*
X202762295Y-193662810D01*
X202838485Y-194234238D02*
X202800390Y-194272334D01*
X202800390Y-194272334D02*
X202762295Y-194348524D01*
X202762295Y-194348524D02*
X202762295Y-194539000D01*
X202762295Y-194539000D02*
X202800390Y-194615191D01*
X202800390Y-194615191D02*
X202838485Y-194653286D01*
X202838485Y-194653286D02*
X202914676Y-194691381D01*
X202914676Y-194691381D02*
X202990866Y-194691381D01*
X202990866Y-194691381D02*
X203105152Y-194653286D01*
X203105152Y-194653286D02*
X203562295Y-194196143D01*
X203562295Y-194196143D02*
X203562295Y-194691381D01*
X202838485Y-194996143D02*
X202800390Y-195034239D01*
X202800390Y-195034239D02*
X202762295Y-195110429D01*
X202762295Y-195110429D02*
X202762295Y-195300905D01*
X202762295Y-195300905D02*
X202800390Y-195377096D01*
X202800390Y-195377096D02*
X202838485Y-195415191D01*
X202838485Y-195415191D02*
X202914676Y-195453286D01*
X202914676Y-195453286D02*
X202990866Y-195453286D01*
X202990866Y-195453286D02*
X203105152Y-195415191D01*
X203105152Y-195415191D02*
X203562295Y-194958048D01*
X203562295Y-194958048D02*
X203562295Y-195453286D01*
X202792295Y-204737191D02*
X202792295Y-204813381D01*
X202792295Y-204813381D02*
X202830390Y-204889572D01*
X202830390Y-204889572D02*
X202868485Y-204927667D01*
X202868485Y-204927667D02*
X202944676Y-204965762D01*
X202944676Y-204965762D02*
X203097057Y-205003857D01*
X203097057Y-205003857D02*
X203287533Y-205003857D01*
X203287533Y-205003857D02*
X203439914Y-204965762D01*
X203439914Y-204965762D02*
X203516104Y-204927667D01*
X203516104Y-204927667D02*
X203554200Y-204889572D01*
X203554200Y-204889572D02*
X203592295Y-204813381D01*
X203592295Y-204813381D02*
X203592295Y-204737191D01*
X203592295Y-204737191D02*
X203554200Y-204661000D01*
X203554200Y-204661000D02*
X203516104Y-204622905D01*
X203516104Y-204622905D02*
X203439914Y-204584810D01*
X203439914Y-204584810D02*
X203287533Y-204546714D01*
X203287533Y-204546714D02*
X203097057Y-204546714D01*
X203097057Y-204546714D02*
X202944676Y-204584810D01*
X202944676Y-204584810D02*
X202868485Y-204622905D01*
X202868485Y-204622905D02*
X202830390Y-204661000D01*
X202830390Y-204661000D02*
X202792295Y-204737191D01*
X202792295Y-205499096D02*
X202792295Y-205575286D01*
X202792295Y-205575286D02*
X202830390Y-205651477D01*
X202830390Y-205651477D02*
X202868485Y-205689572D01*
X202868485Y-205689572D02*
X202944676Y-205727667D01*
X202944676Y-205727667D02*
X203097057Y-205765762D01*
X203097057Y-205765762D02*
X203287533Y-205765762D01*
X203287533Y-205765762D02*
X203439914Y-205727667D01*
X203439914Y-205727667D02*
X203516104Y-205689572D01*
X203516104Y-205689572D02*
X203554200Y-205651477D01*
X203554200Y-205651477D02*
X203592295Y-205575286D01*
X203592295Y-205575286D02*
X203592295Y-205499096D01*
X203592295Y-205499096D02*
X203554200Y-205422905D01*
X203554200Y-205422905D02*
X203516104Y-205384810D01*
X203516104Y-205384810D02*
X203439914Y-205346715D01*
X203439914Y-205346715D02*
X203287533Y-205308619D01*
X203287533Y-205308619D02*
X203097057Y-205308619D01*
X203097057Y-205308619D02*
X202944676Y-205346715D01*
X202944676Y-205346715D02*
X202868485Y-205384810D01*
X202868485Y-205384810D02*
X202830390Y-205422905D01*
X202830390Y-205422905D02*
X202792295Y-205499096D01*
X202868485Y-206070524D02*
X202830390Y-206108620D01*
X202830390Y-206108620D02*
X202792295Y-206184810D01*
X202792295Y-206184810D02*
X202792295Y-206375286D01*
X202792295Y-206375286D02*
X202830390Y-206451477D01*
X202830390Y-206451477D02*
X202868485Y-206489572D01*
X202868485Y-206489572D02*
X202944676Y-206527667D01*
X202944676Y-206527667D02*
X203020866Y-206527667D01*
X203020866Y-206527667D02*
X203135152Y-206489572D01*
X203135152Y-206489572D02*
X203592295Y-206032429D01*
X203592295Y-206032429D02*
X203592295Y-206527667D01*
X205262295Y-193662810D02*
X205262295Y-193739000D01*
X205262295Y-193739000D02*
X205300390Y-193815191D01*
X205300390Y-193815191D02*
X205338485Y-193853286D01*
X205338485Y-193853286D02*
X205414676Y-193891381D01*
X205414676Y-193891381D02*
X205567057Y-193929476D01*
X205567057Y-193929476D02*
X205757533Y-193929476D01*
X205757533Y-193929476D02*
X205909914Y-193891381D01*
X205909914Y-193891381D02*
X205986104Y-193853286D01*
X205986104Y-193853286D02*
X206024200Y-193815191D01*
X206024200Y-193815191D02*
X206062295Y-193739000D01*
X206062295Y-193739000D02*
X206062295Y-193662810D01*
X206062295Y-193662810D02*
X206024200Y-193586619D01*
X206024200Y-193586619D02*
X205986104Y-193548524D01*
X205986104Y-193548524D02*
X205909914Y-193510429D01*
X205909914Y-193510429D02*
X205757533Y-193472333D01*
X205757533Y-193472333D02*
X205567057Y-193472333D01*
X205567057Y-193472333D02*
X205414676Y-193510429D01*
X205414676Y-193510429D02*
X205338485Y-193548524D01*
X205338485Y-193548524D02*
X205300390Y-193586619D01*
X205300390Y-193586619D02*
X205262295Y-193662810D01*
X205338485Y-194234238D02*
X205300390Y-194272334D01*
X205300390Y-194272334D02*
X205262295Y-194348524D01*
X205262295Y-194348524D02*
X205262295Y-194539000D01*
X205262295Y-194539000D02*
X205300390Y-194615191D01*
X205300390Y-194615191D02*
X205338485Y-194653286D01*
X205338485Y-194653286D02*
X205414676Y-194691381D01*
X205414676Y-194691381D02*
X205490866Y-194691381D01*
X205490866Y-194691381D02*
X205605152Y-194653286D01*
X205605152Y-194653286D02*
X206062295Y-194196143D01*
X206062295Y-194196143D02*
X206062295Y-194691381D01*
X205262295Y-195186620D02*
X205262295Y-195262810D01*
X205262295Y-195262810D02*
X205300390Y-195339001D01*
X205300390Y-195339001D02*
X205338485Y-195377096D01*
X205338485Y-195377096D02*
X205414676Y-195415191D01*
X205414676Y-195415191D02*
X205567057Y-195453286D01*
X205567057Y-195453286D02*
X205757533Y-195453286D01*
X205757533Y-195453286D02*
X205909914Y-195415191D01*
X205909914Y-195415191D02*
X205986104Y-195377096D01*
X205986104Y-195377096D02*
X206024200Y-195339001D01*
X206024200Y-195339001D02*
X206062295Y-195262810D01*
X206062295Y-195262810D02*
X206062295Y-195186620D01*
X206062295Y-195186620D02*
X206024200Y-195110429D01*
X206024200Y-195110429D02*
X205986104Y-195072334D01*
X205986104Y-195072334D02*
X205909914Y-195034239D01*
X205909914Y-195034239D02*
X205757533Y-194996143D01*
X205757533Y-194996143D02*
X205567057Y-194996143D01*
X205567057Y-194996143D02*
X205414676Y-195034239D01*
X205414676Y-195034239D02*
X205338485Y-195072334D01*
X205338485Y-195072334D02*
X205300390Y-195110429D01*
X205300390Y-195110429D02*
X205262295Y-195186620D01*
X205332295Y-204737191D02*
X205332295Y-204813381D01*
X205332295Y-204813381D02*
X205370390Y-204889572D01*
X205370390Y-204889572D02*
X205408485Y-204927667D01*
X205408485Y-204927667D02*
X205484676Y-204965762D01*
X205484676Y-204965762D02*
X205637057Y-205003857D01*
X205637057Y-205003857D02*
X205827533Y-205003857D01*
X205827533Y-205003857D02*
X205979914Y-204965762D01*
X205979914Y-204965762D02*
X206056104Y-204927667D01*
X206056104Y-204927667D02*
X206094200Y-204889572D01*
X206094200Y-204889572D02*
X206132295Y-204813381D01*
X206132295Y-204813381D02*
X206132295Y-204737191D01*
X206132295Y-204737191D02*
X206094200Y-204661000D01*
X206094200Y-204661000D02*
X206056104Y-204622905D01*
X206056104Y-204622905D02*
X205979914Y-204584810D01*
X205979914Y-204584810D02*
X205827533Y-204546714D01*
X205827533Y-204546714D02*
X205637057Y-204546714D01*
X205637057Y-204546714D02*
X205484676Y-204584810D01*
X205484676Y-204584810D02*
X205408485Y-204622905D01*
X205408485Y-204622905D02*
X205370390Y-204661000D01*
X205370390Y-204661000D02*
X205332295Y-204737191D01*
X205408485Y-205308619D02*
X205370390Y-205346715D01*
X205370390Y-205346715D02*
X205332295Y-205422905D01*
X205332295Y-205422905D02*
X205332295Y-205613381D01*
X205332295Y-205613381D02*
X205370390Y-205689572D01*
X205370390Y-205689572D02*
X205408485Y-205727667D01*
X205408485Y-205727667D02*
X205484676Y-205765762D01*
X205484676Y-205765762D02*
X205560866Y-205765762D01*
X205560866Y-205765762D02*
X205675152Y-205727667D01*
X205675152Y-205727667D02*
X206132295Y-205270524D01*
X206132295Y-205270524D02*
X206132295Y-205765762D01*
X206132295Y-206146715D02*
X206132295Y-206299096D01*
X206132295Y-206299096D02*
X206094200Y-206375286D01*
X206094200Y-206375286D02*
X206056104Y-206413382D01*
X206056104Y-206413382D02*
X205941819Y-206489572D01*
X205941819Y-206489572D02*
X205789438Y-206527667D01*
X205789438Y-206527667D02*
X205484676Y-206527667D01*
X205484676Y-206527667D02*
X205408485Y-206489572D01*
X205408485Y-206489572D02*
X205370390Y-206451477D01*
X205370390Y-206451477D02*
X205332295Y-206375286D01*
X205332295Y-206375286D02*
X205332295Y-206222905D01*
X205332295Y-206222905D02*
X205370390Y-206146715D01*
X205370390Y-206146715D02*
X205408485Y-206108620D01*
X205408485Y-206108620D02*
X205484676Y-206070524D01*
X205484676Y-206070524D02*
X205675152Y-206070524D01*
X205675152Y-206070524D02*
X205751342Y-206108620D01*
X205751342Y-206108620D02*
X205789438Y-206146715D01*
X205789438Y-206146715D02*
X205827533Y-206222905D01*
X205827533Y-206222905D02*
X205827533Y-206375286D01*
X205827533Y-206375286D02*
X205789438Y-206451477D01*
X205789438Y-206451477D02*
X205751342Y-206489572D01*
X205751342Y-206489572D02*
X205675152Y-206527667D01*
X207862295Y-193662810D02*
X207862295Y-193739000D01*
X207862295Y-193739000D02*
X207900390Y-193815191D01*
X207900390Y-193815191D02*
X207938485Y-193853286D01*
X207938485Y-193853286D02*
X208014676Y-193891381D01*
X208014676Y-193891381D02*
X208167057Y-193929476D01*
X208167057Y-193929476D02*
X208357533Y-193929476D01*
X208357533Y-193929476D02*
X208509914Y-193891381D01*
X208509914Y-193891381D02*
X208586104Y-193853286D01*
X208586104Y-193853286D02*
X208624200Y-193815191D01*
X208624200Y-193815191D02*
X208662295Y-193739000D01*
X208662295Y-193739000D02*
X208662295Y-193662810D01*
X208662295Y-193662810D02*
X208624200Y-193586619D01*
X208624200Y-193586619D02*
X208586104Y-193548524D01*
X208586104Y-193548524D02*
X208509914Y-193510429D01*
X208509914Y-193510429D02*
X208357533Y-193472333D01*
X208357533Y-193472333D02*
X208167057Y-193472333D01*
X208167057Y-193472333D02*
X208014676Y-193510429D01*
X208014676Y-193510429D02*
X207938485Y-193548524D01*
X207938485Y-193548524D02*
X207900390Y-193586619D01*
X207900390Y-193586619D02*
X207862295Y-193662810D01*
X208662295Y-194691381D02*
X208662295Y-194234238D01*
X208662295Y-194462810D02*
X207862295Y-194462810D01*
X207862295Y-194462810D02*
X207976580Y-194386619D01*
X207976580Y-194386619D02*
X208052771Y-194310429D01*
X208052771Y-194310429D02*
X208090866Y-194234238D01*
X207862295Y-194958048D02*
X207862295Y-195491382D01*
X207862295Y-195491382D02*
X208662295Y-195148524D01*
X207872295Y-204737191D02*
X207872295Y-204813381D01*
X207872295Y-204813381D02*
X207910390Y-204889572D01*
X207910390Y-204889572D02*
X207948485Y-204927667D01*
X207948485Y-204927667D02*
X208024676Y-204965762D01*
X208024676Y-204965762D02*
X208177057Y-205003857D01*
X208177057Y-205003857D02*
X208367533Y-205003857D01*
X208367533Y-205003857D02*
X208519914Y-204965762D01*
X208519914Y-204965762D02*
X208596104Y-204927667D01*
X208596104Y-204927667D02*
X208634200Y-204889572D01*
X208634200Y-204889572D02*
X208672295Y-204813381D01*
X208672295Y-204813381D02*
X208672295Y-204737191D01*
X208672295Y-204737191D02*
X208634200Y-204661000D01*
X208634200Y-204661000D02*
X208596104Y-204622905D01*
X208596104Y-204622905D02*
X208519914Y-204584810D01*
X208519914Y-204584810D02*
X208367533Y-204546714D01*
X208367533Y-204546714D02*
X208177057Y-204546714D01*
X208177057Y-204546714D02*
X208024676Y-204584810D01*
X208024676Y-204584810D02*
X207948485Y-204622905D01*
X207948485Y-204622905D02*
X207910390Y-204661000D01*
X207910390Y-204661000D02*
X207872295Y-204737191D01*
X207872295Y-205270524D02*
X207872295Y-205765762D01*
X207872295Y-205765762D02*
X208177057Y-205499096D01*
X208177057Y-205499096D02*
X208177057Y-205613381D01*
X208177057Y-205613381D02*
X208215152Y-205689572D01*
X208215152Y-205689572D02*
X208253247Y-205727667D01*
X208253247Y-205727667D02*
X208329438Y-205765762D01*
X208329438Y-205765762D02*
X208519914Y-205765762D01*
X208519914Y-205765762D02*
X208596104Y-205727667D01*
X208596104Y-205727667D02*
X208634200Y-205689572D01*
X208634200Y-205689572D02*
X208672295Y-205613381D01*
X208672295Y-205613381D02*
X208672295Y-205384810D01*
X208672295Y-205384810D02*
X208634200Y-205308619D01*
X208634200Y-205308619D02*
X208596104Y-205270524D01*
X208672295Y-206527667D02*
X208672295Y-206070524D01*
X208672295Y-206299096D02*
X207872295Y-206299096D01*
X207872295Y-206299096D02*
X207986580Y-206222905D01*
X207986580Y-206222905D02*
X208062771Y-206146715D01*
X208062771Y-206146715D02*
X208100866Y-206070524D01*
X210450390Y-193929476D02*
X210412295Y-193853286D01*
X210412295Y-193853286D02*
X210412295Y-193739000D01*
X210412295Y-193739000D02*
X210450390Y-193624714D01*
X210450390Y-193624714D02*
X210526580Y-193548524D01*
X210526580Y-193548524D02*
X210602771Y-193510429D01*
X210602771Y-193510429D02*
X210755152Y-193472333D01*
X210755152Y-193472333D02*
X210869438Y-193472333D01*
X210869438Y-193472333D02*
X211021819Y-193510429D01*
X211021819Y-193510429D02*
X211098009Y-193548524D01*
X211098009Y-193548524D02*
X211174200Y-193624714D01*
X211174200Y-193624714D02*
X211212295Y-193739000D01*
X211212295Y-193739000D02*
X211212295Y-193815191D01*
X211212295Y-193815191D02*
X211174200Y-193929476D01*
X211174200Y-193929476D02*
X211136104Y-193967572D01*
X211136104Y-193967572D02*
X210869438Y-193967572D01*
X210869438Y-193967572D02*
X210869438Y-193815191D01*
X211212295Y-194310429D02*
X210412295Y-194310429D01*
X210412295Y-194310429D02*
X211212295Y-194767572D01*
X211212295Y-194767572D02*
X210412295Y-194767572D01*
X211212295Y-195148524D02*
X210412295Y-195148524D01*
X210412295Y-195148524D02*
X210412295Y-195339000D01*
X210412295Y-195339000D02*
X210450390Y-195453286D01*
X210450390Y-195453286D02*
X210526580Y-195529476D01*
X210526580Y-195529476D02*
X210602771Y-195567571D01*
X210602771Y-195567571D02*
X210755152Y-195605667D01*
X210755152Y-195605667D02*
X210869438Y-195605667D01*
X210869438Y-195605667D02*
X211021819Y-195567571D01*
X211021819Y-195567571D02*
X211098009Y-195529476D01*
X211098009Y-195529476D02*
X211174200Y-195453286D01*
X211174200Y-195453286D02*
X211212295Y-195339000D01*
X211212295Y-195339000D02*
X211212295Y-195148524D01*
X210412295Y-204470524D02*
X211212295Y-204737191D01*
X211212295Y-204737191D02*
X210412295Y-205003857D01*
X211136104Y-205727667D02*
X211174200Y-205689571D01*
X211174200Y-205689571D02*
X211212295Y-205575286D01*
X211212295Y-205575286D02*
X211212295Y-205499095D01*
X211212295Y-205499095D02*
X211174200Y-205384809D01*
X211174200Y-205384809D02*
X211098009Y-205308619D01*
X211098009Y-205308619D02*
X211021819Y-205270524D01*
X211021819Y-205270524D02*
X210869438Y-205232428D01*
X210869438Y-205232428D02*
X210755152Y-205232428D01*
X210755152Y-205232428D02*
X210602771Y-205270524D01*
X210602771Y-205270524D02*
X210526580Y-205308619D01*
X210526580Y-205308619D02*
X210450390Y-205384809D01*
X210450390Y-205384809D02*
X210412295Y-205499095D01*
X210412295Y-205499095D02*
X210412295Y-205575286D01*
X210412295Y-205575286D02*
X210450390Y-205689571D01*
X210450390Y-205689571D02*
X210488485Y-205727667D01*
X211136104Y-206527667D02*
X211174200Y-206489571D01*
X211174200Y-206489571D02*
X211212295Y-206375286D01*
X211212295Y-206375286D02*
X211212295Y-206299095D01*
X211212295Y-206299095D02*
X211174200Y-206184809D01*
X211174200Y-206184809D02*
X211098009Y-206108619D01*
X211098009Y-206108619D02*
X211021819Y-206070524D01*
X211021819Y-206070524D02*
X210869438Y-206032428D01*
X210869438Y-206032428D02*
X210755152Y-206032428D01*
X210755152Y-206032428D02*
X210602771Y-206070524D01*
X210602771Y-206070524D02*
X210526580Y-206108619D01*
X210526580Y-206108619D02*
X210450390Y-206184809D01*
X210450390Y-206184809D02*
X210412295Y-206299095D01*
X210412295Y-206299095D02*
X210412295Y-206375286D01*
X210412295Y-206375286D02*
X210450390Y-206489571D01*
X210450390Y-206489571D02*
X210488485Y-206527667D01*
X212990390Y-193929476D02*
X212952295Y-193853286D01*
X212952295Y-193853286D02*
X212952295Y-193739000D01*
X212952295Y-193739000D02*
X212990390Y-193624714D01*
X212990390Y-193624714D02*
X213066580Y-193548524D01*
X213066580Y-193548524D02*
X213142771Y-193510429D01*
X213142771Y-193510429D02*
X213295152Y-193472333D01*
X213295152Y-193472333D02*
X213409438Y-193472333D01*
X213409438Y-193472333D02*
X213561819Y-193510429D01*
X213561819Y-193510429D02*
X213638009Y-193548524D01*
X213638009Y-193548524D02*
X213714200Y-193624714D01*
X213714200Y-193624714D02*
X213752295Y-193739000D01*
X213752295Y-193739000D02*
X213752295Y-193815191D01*
X213752295Y-193815191D02*
X213714200Y-193929476D01*
X213714200Y-193929476D02*
X213676104Y-193967572D01*
X213676104Y-193967572D02*
X213409438Y-193967572D01*
X213409438Y-193967572D02*
X213409438Y-193815191D01*
X213752295Y-194310429D02*
X212952295Y-194310429D01*
X212952295Y-194310429D02*
X213752295Y-194767572D01*
X213752295Y-194767572D02*
X212952295Y-194767572D01*
X213752295Y-195148524D02*
X212952295Y-195148524D01*
X212952295Y-195148524D02*
X212952295Y-195339000D01*
X212952295Y-195339000D02*
X212990390Y-195453286D01*
X212990390Y-195453286D02*
X213066580Y-195529476D01*
X213066580Y-195529476D02*
X213142771Y-195567571D01*
X213142771Y-195567571D02*
X213295152Y-195605667D01*
X213295152Y-195605667D02*
X213409438Y-195605667D01*
X213409438Y-195605667D02*
X213561819Y-195567571D01*
X213561819Y-195567571D02*
X213638009Y-195529476D01*
X213638009Y-195529476D02*
X213714200Y-195453286D01*
X213714200Y-195453286D02*
X213752295Y-195339000D01*
X213752295Y-195339000D02*
X213752295Y-195148524D01*
X213752295Y-205149905D02*
X213371342Y-204883238D01*
X213752295Y-204692762D02*
X212952295Y-204692762D01*
X212952295Y-204692762D02*
X212952295Y-204997524D01*
X212952295Y-204997524D02*
X212990390Y-205073714D01*
X212990390Y-205073714D02*
X213028485Y-205111809D01*
X213028485Y-205111809D02*
X213104676Y-205149905D01*
X213104676Y-205149905D02*
X213218961Y-205149905D01*
X213218961Y-205149905D02*
X213295152Y-205111809D01*
X213295152Y-205111809D02*
X213333247Y-205073714D01*
X213333247Y-205073714D02*
X213371342Y-204997524D01*
X213371342Y-204997524D02*
X213371342Y-204692762D01*
X213714200Y-205454666D02*
X213752295Y-205568952D01*
X213752295Y-205568952D02*
X213752295Y-205759428D01*
X213752295Y-205759428D02*
X213714200Y-205835619D01*
X213714200Y-205835619D02*
X213676104Y-205873714D01*
X213676104Y-205873714D02*
X213599914Y-205911809D01*
X213599914Y-205911809D02*
X213523723Y-205911809D01*
X213523723Y-205911809D02*
X213447533Y-205873714D01*
X213447533Y-205873714D02*
X213409438Y-205835619D01*
X213409438Y-205835619D02*
X213371342Y-205759428D01*
X213371342Y-205759428D02*
X213333247Y-205607047D01*
X213333247Y-205607047D02*
X213295152Y-205530857D01*
X213295152Y-205530857D02*
X213257057Y-205492762D01*
X213257057Y-205492762D02*
X213180866Y-205454666D01*
X213180866Y-205454666D02*
X213104676Y-205454666D01*
X213104676Y-205454666D02*
X213028485Y-205492762D01*
X213028485Y-205492762D02*
X212990390Y-205530857D01*
X212990390Y-205530857D02*
X212952295Y-205607047D01*
X212952295Y-205607047D02*
X212952295Y-205797524D01*
X212952295Y-205797524D02*
X212990390Y-205911809D01*
X212952295Y-206140381D02*
X212952295Y-206597524D01*
X213752295Y-206368952D02*
X212952295Y-206368952D01*
X215530390Y-204845143D02*
X215492295Y-204768953D01*
X215492295Y-204768953D02*
X215492295Y-204654667D01*
X215492295Y-204654667D02*
X215530390Y-204540381D01*
X215530390Y-204540381D02*
X215606580Y-204464191D01*
X215606580Y-204464191D02*
X215682771Y-204426096D01*
X215682771Y-204426096D02*
X215835152Y-204388000D01*
X215835152Y-204388000D02*
X215949438Y-204388000D01*
X215949438Y-204388000D02*
X216101819Y-204426096D01*
X216101819Y-204426096D02*
X216178009Y-204464191D01*
X216178009Y-204464191D02*
X216254200Y-204540381D01*
X216254200Y-204540381D02*
X216292295Y-204654667D01*
X216292295Y-204654667D02*
X216292295Y-204730858D01*
X216292295Y-204730858D02*
X216254200Y-204845143D01*
X216254200Y-204845143D02*
X216216104Y-204883239D01*
X216216104Y-204883239D02*
X215949438Y-204883239D01*
X215949438Y-204883239D02*
X215949438Y-204730858D01*
X216292295Y-205226096D02*
X215492295Y-205226096D01*
X215492295Y-205226096D02*
X216292295Y-205683239D01*
X216292295Y-205683239D02*
X215492295Y-205683239D01*
X216292295Y-206064191D02*
X215492295Y-206064191D01*
X215492295Y-206064191D02*
X215492295Y-206254667D01*
X215492295Y-206254667D02*
X215530390Y-206368953D01*
X215530390Y-206368953D02*
X215606580Y-206445143D01*
X215606580Y-206445143D02*
X215682771Y-206483238D01*
X215682771Y-206483238D02*
X215835152Y-206521334D01*
X215835152Y-206521334D02*
X215949438Y-206521334D01*
X215949438Y-206521334D02*
X216101819Y-206483238D01*
X216101819Y-206483238D02*
X216178009Y-206445143D01*
X216178009Y-206445143D02*
X216254200Y-206368953D01*
X216254200Y-206368953D02*
X216292295Y-206254667D01*
X216292295Y-206254667D02*
X216292295Y-206064191D01*
X215562295Y-193662810D02*
X215562295Y-193739000D01*
X215562295Y-193739000D02*
X215600390Y-193815191D01*
X215600390Y-193815191D02*
X215638485Y-193853286D01*
X215638485Y-193853286D02*
X215714676Y-193891381D01*
X215714676Y-193891381D02*
X215867057Y-193929476D01*
X215867057Y-193929476D02*
X216057533Y-193929476D01*
X216057533Y-193929476D02*
X216209914Y-193891381D01*
X216209914Y-193891381D02*
X216286104Y-193853286D01*
X216286104Y-193853286D02*
X216324200Y-193815191D01*
X216324200Y-193815191D02*
X216362295Y-193739000D01*
X216362295Y-193739000D02*
X216362295Y-193662810D01*
X216362295Y-193662810D02*
X216324200Y-193586619D01*
X216324200Y-193586619D02*
X216286104Y-193548524D01*
X216286104Y-193548524D02*
X216209914Y-193510429D01*
X216209914Y-193510429D02*
X216057533Y-193472333D01*
X216057533Y-193472333D02*
X215867057Y-193472333D01*
X215867057Y-193472333D02*
X215714676Y-193510429D01*
X215714676Y-193510429D02*
X215638485Y-193548524D01*
X215638485Y-193548524D02*
X215600390Y-193586619D01*
X215600390Y-193586619D02*
X215562295Y-193662810D01*
X215562295Y-194424715D02*
X215562295Y-194500905D01*
X215562295Y-194500905D02*
X215600390Y-194577096D01*
X215600390Y-194577096D02*
X215638485Y-194615191D01*
X215638485Y-194615191D02*
X215714676Y-194653286D01*
X215714676Y-194653286D02*
X215867057Y-194691381D01*
X215867057Y-194691381D02*
X216057533Y-194691381D01*
X216057533Y-194691381D02*
X216209914Y-194653286D01*
X216209914Y-194653286D02*
X216286104Y-194615191D01*
X216286104Y-194615191D02*
X216324200Y-194577096D01*
X216324200Y-194577096D02*
X216362295Y-194500905D01*
X216362295Y-194500905D02*
X216362295Y-194424715D01*
X216362295Y-194424715D02*
X216324200Y-194348524D01*
X216324200Y-194348524D02*
X216286104Y-194310429D01*
X216286104Y-194310429D02*
X216209914Y-194272334D01*
X216209914Y-194272334D02*
X216057533Y-194234238D01*
X216057533Y-194234238D02*
X215867057Y-194234238D01*
X215867057Y-194234238D02*
X215714676Y-194272334D01*
X215714676Y-194272334D02*
X215638485Y-194310429D01*
X215638485Y-194310429D02*
X215600390Y-194348524D01*
X215600390Y-194348524D02*
X215562295Y-194424715D01*
X215905152Y-195148524D02*
X215867057Y-195072334D01*
X215867057Y-195072334D02*
X215828961Y-195034239D01*
X215828961Y-195034239D02*
X215752771Y-194996143D01*
X215752771Y-194996143D02*
X215714676Y-194996143D01*
X215714676Y-194996143D02*
X215638485Y-195034239D01*
X215638485Y-195034239D02*
X215600390Y-195072334D01*
X215600390Y-195072334D02*
X215562295Y-195148524D01*
X215562295Y-195148524D02*
X215562295Y-195300905D01*
X215562295Y-195300905D02*
X215600390Y-195377096D01*
X215600390Y-195377096D02*
X215638485Y-195415191D01*
X215638485Y-195415191D02*
X215714676Y-195453286D01*
X215714676Y-195453286D02*
X215752771Y-195453286D01*
X215752771Y-195453286D02*
X215828961Y-195415191D01*
X215828961Y-195415191D02*
X215867057Y-195377096D01*
X215867057Y-195377096D02*
X215905152Y-195300905D01*
X215905152Y-195300905D02*
X215905152Y-195148524D01*
X215905152Y-195148524D02*
X215943247Y-195072334D01*
X215943247Y-195072334D02*
X215981342Y-195034239D01*
X215981342Y-195034239D02*
X216057533Y-194996143D01*
X216057533Y-194996143D02*
X216209914Y-194996143D01*
X216209914Y-194996143D02*
X216286104Y-195034239D01*
X216286104Y-195034239D02*
X216324200Y-195072334D01*
X216324200Y-195072334D02*
X216362295Y-195148524D01*
X216362295Y-195148524D02*
X216362295Y-195300905D01*
X216362295Y-195300905D02*
X216324200Y-195377096D01*
X216324200Y-195377096D02*
X216286104Y-195415191D01*
X216286104Y-195415191D02*
X216209914Y-195453286D01*
X216209914Y-195453286D02*
X216057533Y-195453286D01*
X216057533Y-195453286D02*
X215981342Y-195415191D01*
X215981342Y-195415191D02*
X215943247Y-195377096D01*
X215943247Y-195377096D02*
X215905152Y-195300905D01*
X218032295Y-193662810D02*
X218032295Y-193739000D01*
X218032295Y-193739000D02*
X218070390Y-193815191D01*
X218070390Y-193815191D02*
X218108485Y-193853286D01*
X218108485Y-193853286D02*
X218184676Y-193891381D01*
X218184676Y-193891381D02*
X218337057Y-193929476D01*
X218337057Y-193929476D02*
X218527533Y-193929476D01*
X218527533Y-193929476D02*
X218679914Y-193891381D01*
X218679914Y-193891381D02*
X218756104Y-193853286D01*
X218756104Y-193853286D02*
X218794200Y-193815191D01*
X218794200Y-193815191D02*
X218832295Y-193739000D01*
X218832295Y-193739000D02*
X218832295Y-193662810D01*
X218832295Y-193662810D02*
X218794200Y-193586619D01*
X218794200Y-193586619D02*
X218756104Y-193548524D01*
X218756104Y-193548524D02*
X218679914Y-193510429D01*
X218679914Y-193510429D02*
X218527533Y-193472333D01*
X218527533Y-193472333D02*
X218337057Y-193472333D01*
X218337057Y-193472333D02*
X218184676Y-193510429D01*
X218184676Y-193510429D02*
X218108485Y-193548524D01*
X218108485Y-193548524D02*
X218070390Y-193586619D01*
X218070390Y-193586619D02*
X218032295Y-193662810D01*
X218032295Y-194424715D02*
X218032295Y-194500905D01*
X218032295Y-194500905D02*
X218070390Y-194577096D01*
X218070390Y-194577096D02*
X218108485Y-194615191D01*
X218108485Y-194615191D02*
X218184676Y-194653286D01*
X218184676Y-194653286D02*
X218337057Y-194691381D01*
X218337057Y-194691381D02*
X218527533Y-194691381D01*
X218527533Y-194691381D02*
X218679914Y-194653286D01*
X218679914Y-194653286D02*
X218756104Y-194615191D01*
X218756104Y-194615191D02*
X218794200Y-194577096D01*
X218794200Y-194577096D02*
X218832295Y-194500905D01*
X218832295Y-194500905D02*
X218832295Y-194424715D01*
X218832295Y-194424715D02*
X218794200Y-194348524D01*
X218794200Y-194348524D02*
X218756104Y-194310429D01*
X218756104Y-194310429D02*
X218679914Y-194272334D01*
X218679914Y-194272334D02*
X218527533Y-194234238D01*
X218527533Y-194234238D02*
X218337057Y-194234238D01*
X218337057Y-194234238D02*
X218184676Y-194272334D01*
X218184676Y-194272334D02*
X218108485Y-194310429D01*
X218108485Y-194310429D02*
X218070390Y-194348524D01*
X218070390Y-194348524D02*
X218032295Y-194424715D01*
X218032295Y-195377096D02*
X218032295Y-195224715D01*
X218032295Y-195224715D02*
X218070390Y-195148524D01*
X218070390Y-195148524D02*
X218108485Y-195110429D01*
X218108485Y-195110429D02*
X218222771Y-195034239D01*
X218222771Y-195034239D02*
X218375152Y-194996143D01*
X218375152Y-194996143D02*
X218679914Y-194996143D01*
X218679914Y-194996143D02*
X218756104Y-195034239D01*
X218756104Y-195034239D02*
X218794200Y-195072334D01*
X218794200Y-195072334D02*
X218832295Y-195148524D01*
X218832295Y-195148524D02*
X218832295Y-195300905D01*
X218832295Y-195300905D02*
X218794200Y-195377096D01*
X218794200Y-195377096D02*
X218756104Y-195415191D01*
X218756104Y-195415191D02*
X218679914Y-195453286D01*
X218679914Y-195453286D02*
X218489438Y-195453286D01*
X218489438Y-195453286D02*
X218413247Y-195415191D01*
X218413247Y-195415191D02*
X218375152Y-195377096D01*
X218375152Y-195377096D02*
X218337057Y-195300905D01*
X218337057Y-195300905D02*
X218337057Y-195148524D01*
X218337057Y-195148524D02*
X218375152Y-195072334D01*
X218375152Y-195072334D02*
X218413247Y-195034239D01*
X218413247Y-195034239D02*
X218489438Y-194996143D01*
X218832295Y-204921334D02*
X218451342Y-204654667D01*
X218832295Y-204464191D02*
X218032295Y-204464191D01*
X218032295Y-204464191D02*
X218032295Y-204768953D01*
X218032295Y-204768953D02*
X218070390Y-204845143D01*
X218070390Y-204845143D02*
X218108485Y-204883238D01*
X218108485Y-204883238D02*
X218184676Y-204921334D01*
X218184676Y-204921334D02*
X218298961Y-204921334D01*
X218298961Y-204921334D02*
X218375152Y-204883238D01*
X218375152Y-204883238D02*
X218413247Y-204845143D01*
X218413247Y-204845143D02*
X218451342Y-204768953D01*
X218451342Y-204768953D02*
X218451342Y-204464191D01*
X218603723Y-205226095D02*
X218603723Y-205607048D01*
X218832295Y-205149905D02*
X218032295Y-205416572D01*
X218032295Y-205416572D02*
X218832295Y-205683238D01*
X218032295Y-205873714D02*
X218832295Y-206064190D01*
X218832295Y-206064190D02*
X218260866Y-206216571D01*
X218260866Y-206216571D02*
X218832295Y-206368952D01*
X218832295Y-206368952D02*
X218032295Y-206559429D01*
%TO.C,T1*%
X221300000Y-164700000D02*
X221300000Y-171300000D01*
X221300000Y-171300000D02*
X224150000Y-171300000D01*
X224150000Y-164700000D02*
X221300000Y-164700000D01*
X224150000Y-168000000D02*
X224150000Y-164700000D01*
X224150000Y-168000000D02*
X224150000Y-171300000D01*
X224150000Y-169950000D02*
X224150000Y-166050000D01*
%TO.C,D4*%
D11*
X99250000Y-148000000D02*
X99650000Y-148000000D01*
X99650000Y-148000000D02*
X99650000Y-147450000D01*
X99650000Y-148000000D02*
X99650000Y-148550000D01*
X99650000Y-148000000D02*
X100250000Y-147600000D01*
X100250000Y-147600000D02*
X100250000Y-148400000D01*
X100250000Y-148000000D02*
X100750000Y-148000000D01*
X100250000Y-148400000D02*
X99650000Y-148000000D01*
%TO.C,D3*%
X99250000Y-167000000D02*
X99650000Y-167000000D01*
X99650000Y-167000000D02*
X99650000Y-166450000D01*
X99650000Y-167000000D02*
X99650000Y-167550000D01*
X99650000Y-167000000D02*
X100250000Y-166600000D01*
X100250000Y-166600000D02*
X100250000Y-167400000D01*
X100250000Y-167000000D02*
X100750000Y-167000000D01*
X100250000Y-167400000D02*
X99650000Y-167000000D01*
%TO.C,D15*%
X137250000Y-126000000D02*
X137650000Y-126000000D01*
X137650000Y-126000000D02*
X137650000Y-125450000D01*
X137650000Y-126000000D02*
X137650000Y-126550000D01*
X137650000Y-126000000D02*
X138250000Y-125600000D01*
X138250000Y-125600000D02*
X138250000Y-126400000D01*
X138250000Y-126000000D02*
X138750000Y-126000000D01*
X138250000Y-126400000D02*
X137650000Y-126000000D01*
%TO.C,D16*%
X156250000Y-180000000D02*
X156650000Y-180000000D01*
X156650000Y-180000000D02*
X156650000Y-179450000D01*
X156650000Y-180000000D02*
X156650000Y-180550000D01*
X156650000Y-180000000D02*
X157250000Y-179600000D01*
X157250000Y-179600000D02*
X157250000Y-180400000D01*
X157250000Y-180000000D02*
X157750000Y-180000000D01*
X157250000Y-180400000D02*
X156650000Y-180000000D01*
%TO.C,D23*%
X175250000Y-137000000D02*
X175650000Y-137000000D01*
X175650000Y-137000000D02*
X175650000Y-136450000D01*
X175650000Y-137000000D02*
X175650000Y-137550000D01*
X175650000Y-137000000D02*
X176250000Y-136600000D01*
X176250000Y-136600000D02*
X176250000Y-137400000D01*
X176250000Y-137000000D02*
X176750000Y-137000000D01*
X176250000Y-137400000D02*
X175650000Y-137000000D01*
%TO.C,D14*%
X137250000Y-145000000D02*
X137650000Y-145000000D01*
X137650000Y-145000000D02*
X137650000Y-144450000D01*
X137650000Y-145000000D02*
X137650000Y-145550000D01*
X137650000Y-145000000D02*
X138250000Y-144600000D01*
X138250000Y-144600000D02*
X138250000Y-145400000D01*
X138250000Y-145000000D02*
X138750000Y-145000000D01*
X138250000Y-145400000D02*
X137650000Y-145000000D01*
%TO.C,D6*%
X118250000Y-205000000D02*
X118650000Y-205000000D01*
X118650000Y-205000000D02*
X118650000Y-204450000D01*
X118650000Y-205000000D02*
X118650000Y-205550000D01*
X118650000Y-205000000D02*
X119250000Y-204600000D01*
X119250000Y-204600000D02*
X119250000Y-205400000D01*
X119250000Y-205000000D02*
X119750000Y-205000000D01*
X119250000Y-205400000D02*
X118650000Y-205000000D01*
%TO.C,JST1*%
D10*
X207750000Y-168550000D02*
X207750000Y-174450000D01*
X207750000Y-174450000D02*
X215350000Y-174450000D01*
X212250000Y-170250000D02*
X212250000Y-170750000D01*
X212500000Y-170500000D02*
X212000000Y-170500000D01*
X213750000Y-169250000D02*
X215350000Y-169250000D01*
X213750000Y-173750000D02*
X213750000Y-169250000D01*
X215350000Y-168550000D02*
X207750000Y-168550000D01*
X215350000Y-169250000D02*
X215350000Y-168550000D01*
X215350000Y-173750000D02*
X213750000Y-173750000D01*
X215350000Y-174450000D02*
X215350000Y-173750000D01*
%TO.C,D19*%
D11*
X156250000Y-123000000D02*
X156650000Y-123000000D01*
X156650000Y-123000000D02*
X156650000Y-122450000D01*
X156650000Y-123000000D02*
X156650000Y-123550000D01*
X156650000Y-123000000D02*
X157250000Y-122600000D01*
X157250000Y-122600000D02*
X157250000Y-123400000D01*
X157250000Y-123000000D02*
X157750000Y-123000000D01*
X157250000Y-123400000D02*
X156650000Y-123000000D01*
%TO.C,D35*%
X213250000Y-110000000D02*
X213650000Y-110000000D01*
X213650000Y-110000000D02*
X213650000Y-109450000D01*
X213650000Y-110000000D02*
X213650000Y-110550000D01*
X213650000Y-110000000D02*
X214250000Y-109600000D01*
X214250000Y-109600000D02*
X214250000Y-110400000D01*
X214250000Y-110000000D02*
X214750000Y-110000000D01*
X214250000Y-110400000D02*
X213650000Y-110000000D01*
%TO.C,D12*%
X137250000Y-183000000D02*
X137650000Y-183000000D01*
X137650000Y-183000000D02*
X137650000Y-182450000D01*
X137650000Y-183000000D02*
X137650000Y-183550000D01*
X137650000Y-183000000D02*
X138250000Y-182600000D01*
X138250000Y-182600000D02*
X138250000Y-183400000D01*
X138250000Y-183000000D02*
X138750000Y-183000000D01*
X138250000Y-183400000D02*
X137650000Y-183000000D01*
%TO.C,D34*%
X213250000Y-129000000D02*
X213650000Y-129000000D01*
X213650000Y-129000000D02*
X213650000Y-128450000D01*
X213650000Y-129000000D02*
X213650000Y-129550000D01*
X213650000Y-129000000D02*
X214250000Y-128600000D01*
X214250000Y-128600000D02*
X214250000Y-129400000D01*
X214250000Y-129000000D02*
X214750000Y-129000000D01*
X214250000Y-129400000D02*
X213650000Y-129000000D01*
%TO.C,D17*%
X156250000Y-161000000D02*
X156650000Y-161000000D01*
X156650000Y-161000000D02*
X156650000Y-160450000D01*
X156650000Y-161000000D02*
X156650000Y-161550000D01*
X156650000Y-161000000D02*
X157250000Y-160600000D01*
X157250000Y-160600000D02*
X157250000Y-161400000D01*
X157250000Y-161000000D02*
X157750000Y-161000000D01*
X157250000Y-161400000D02*
X156650000Y-161000000D01*
%TO.C,D32*%
X213250000Y-167000000D02*
X213650000Y-167000000D01*
X213650000Y-167000000D02*
X213650000Y-166450000D01*
X213650000Y-167000000D02*
X213650000Y-167550000D01*
X213650000Y-167000000D02*
X214250000Y-166600000D01*
X214250000Y-166600000D02*
X214250000Y-167400000D01*
X214250000Y-167000000D02*
X214750000Y-167000000D01*
X214250000Y-167400000D02*
X213650000Y-167000000D01*
%TO.C,D26*%
X194250000Y-180000000D02*
X194650000Y-180000000D01*
X194650000Y-180000000D02*
X194650000Y-179450000D01*
X194650000Y-180000000D02*
X194650000Y-180550000D01*
X194650000Y-180000000D02*
X195250000Y-179600000D01*
X195250000Y-179600000D02*
X195250000Y-180400000D01*
X195250000Y-180000000D02*
X195750000Y-180000000D01*
X195250000Y-180400000D02*
X194650000Y-180000000D01*
%TO.C,D18*%
X156250000Y-142000000D02*
X156650000Y-142000000D01*
X156650000Y-142000000D02*
X156650000Y-141450000D01*
X156650000Y-142000000D02*
X156650000Y-142550000D01*
X156650000Y-142000000D02*
X157250000Y-141600000D01*
X157250000Y-141600000D02*
X157250000Y-142400000D01*
X157250000Y-142000000D02*
X157750000Y-142000000D01*
X157250000Y-142400000D02*
X156650000Y-142000000D01*
%TO.C,D25*%
X175250000Y-99000000D02*
X175650000Y-99000000D01*
X175650000Y-99000000D02*
X175650000Y-98450000D01*
X175650000Y-99000000D02*
X175650000Y-99550000D01*
X175650000Y-99000000D02*
X176250000Y-98600000D01*
X176250000Y-98600000D02*
X176250000Y-99400000D01*
X176250000Y-99000000D02*
X176750000Y-99000000D01*
X176250000Y-99400000D02*
X175650000Y-99000000D01*
%TO.C,D30*%
X194250000Y-104000000D02*
X194650000Y-104000000D01*
X194650000Y-104000000D02*
X194650000Y-103450000D01*
X194650000Y-104000000D02*
X194650000Y-104550000D01*
X194650000Y-104000000D02*
X195250000Y-103600000D01*
X195250000Y-103600000D02*
X195250000Y-104400000D01*
X195250000Y-104000000D02*
X195750000Y-104000000D01*
X195250000Y-104400000D02*
X194650000Y-104000000D01*
%TO.C,D22*%
X175250000Y-156000000D02*
X175650000Y-156000000D01*
X175650000Y-156000000D02*
X175650000Y-155450000D01*
X175650000Y-156000000D02*
X175650000Y-156550000D01*
X175650000Y-156000000D02*
X176250000Y-155600000D01*
X176250000Y-155600000D02*
X176250000Y-156400000D01*
X176250000Y-156000000D02*
X176750000Y-156000000D01*
X176250000Y-156400000D02*
X175650000Y-156000000D01*
%TO.C,D2*%
X99250000Y-186000000D02*
X99650000Y-186000000D01*
X99650000Y-186000000D02*
X99650000Y-185450000D01*
X99650000Y-186000000D02*
X99650000Y-186550000D01*
X99650000Y-186000000D02*
X100250000Y-185600000D01*
X100250000Y-185600000D02*
X100250000Y-186400000D01*
X100250000Y-186000000D02*
X100750000Y-186000000D01*
X100250000Y-186400000D02*
X99650000Y-186000000D01*
%TO.C,B1*%
D12*
X221150000Y-186350000D02*
X221150000Y-181650000D01*
X222725000Y-181550000D02*
X223275000Y-181550000D01*
X222725000Y-186450000D02*
X223275000Y-186450000D01*
X224850000Y-182575000D02*
X224850000Y-181650000D01*
X224850000Y-186350000D02*
X224850000Y-185425000D01*
%TO.C,D8*%
D11*
X118250000Y-167000000D02*
X118650000Y-167000000D01*
X118650000Y-167000000D02*
X118650000Y-166450000D01*
X118650000Y-167000000D02*
X118650000Y-167550000D01*
X118650000Y-167000000D02*
X119250000Y-166600000D01*
X119250000Y-166600000D02*
X119250000Y-167400000D01*
X119250000Y-167000000D02*
X119750000Y-167000000D01*
X119250000Y-167400000D02*
X118650000Y-167000000D01*
%TO.C,D9*%
X118250000Y-148000000D02*
X118650000Y-148000000D01*
X118650000Y-148000000D02*
X118650000Y-147450000D01*
X118650000Y-148000000D02*
X118650000Y-148550000D01*
X118650000Y-148000000D02*
X119250000Y-147600000D01*
X119250000Y-147600000D02*
X119250000Y-148400000D01*
X119250000Y-148000000D02*
X119750000Y-148000000D01*
X119250000Y-148400000D02*
X118650000Y-148000000D01*
%TO.C,D13*%
X137250000Y-164000000D02*
X137650000Y-164000000D01*
X137650000Y-164000000D02*
X137650000Y-163450000D01*
X137650000Y-164000000D02*
X137650000Y-164550000D01*
X137650000Y-164000000D02*
X138250000Y-163600000D01*
X138250000Y-163600000D02*
X138250000Y-164400000D01*
X138250000Y-164000000D02*
X138750000Y-164000000D01*
X138250000Y-164400000D02*
X137650000Y-164000000D01*
%TO.C,D11*%
X137250000Y-202000000D02*
X137650000Y-202000000D01*
X137650000Y-202000000D02*
X137650000Y-201450000D01*
X137650000Y-202000000D02*
X137650000Y-202550000D01*
X137650000Y-202000000D02*
X138250000Y-201600000D01*
X138250000Y-201600000D02*
X138250000Y-202400000D01*
X138250000Y-202000000D02*
X138750000Y-202000000D01*
X138250000Y-202400000D02*
X137650000Y-202000000D01*
%TO.C,D20*%
X156250000Y-104000000D02*
X156650000Y-104000000D01*
X156650000Y-104000000D02*
X156650000Y-103450000D01*
X156650000Y-104000000D02*
X156650000Y-104550000D01*
X156650000Y-104000000D02*
X157250000Y-103600000D01*
X157250000Y-103600000D02*
X157250000Y-104400000D01*
X157250000Y-104000000D02*
X157750000Y-104000000D01*
X157250000Y-104400000D02*
X156650000Y-104000000D01*
%TO.C,D28*%
X194250000Y-142000000D02*
X194650000Y-142000000D01*
X194650000Y-142000000D02*
X194650000Y-141450000D01*
X194650000Y-142000000D02*
X194650000Y-142550000D01*
X194650000Y-142000000D02*
X195250000Y-141600000D01*
X195250000Y-141600000D02*
X195250000Y-142400000D01*
X195250000Y-142000000D02*
X195750000Y-142000000D01*
X195250000Y-142400000D02*
X194650000Y-142000000D01*
%TO.C,D1*%
X99250000Y-205000000D02*
X99650000Y-205000000D01*
X99650000Y-205000000D02*
X99650000Y-204450000D01*
X99650000Y-205000000D02*
X99650000Y-205550000D01*
X99650000Y-205000000D02*
X100250000Y-204600000D01*
X100250000Y-204600000D02*
X100250000Y-205400000D01*
X100250000Y-205000000D02*
X100750000Y-205000000D01*
X100250000Y-205400000D02*
X99650000Y-205000000D01*
%TO.C,MCU1*%
D13*
X189260000Y-191110000D02*
X189260000Y-208890000D01*
X189260000Y-208890000D02*
X222280000Y-208890000D01*
X222280000Y-191110000D02*
X189260000Y-191110000D01*
X222280000Y-208890000D02*
X222280000Y-191110000D01*
%TO.C,D21*%
D11*
X175250000Y-175000000D02*
X175650000Y-175000000D01*
X175650000Y-175000000D02*
X175650000Y-174450000D01*
X175650000Y-175000000D02*
X175650000Y-175550000D01*
X175650000Y-175000000D02*
X176250000Y-174600000D01*
X176250000Y-174600000D02*
X176250000Y-175400000D01*
X176250000Y-175000000D02*
X176750000Y-175000000D01*
X176250000Y-175400000D02*
X175650000Y-175000000D01*
%TO.C,D5*%
X99250000Y-129000000D02*
X99650000Y-129000000D01*
X99650000Y-129000000D02*
X99650000Y-128450000D01*
X99650000Y-129000000D02*
X99650000Y-129550000D01*
X99650000Y-129000000D02*
X100250000Y-128600000D01*
X100250000Y-128600000D02*
X100250000Y-129400000D01*
X100250000Y-129000000D02*
X100750000Y-129000000D01*
X100250000Y-129400000D02*
X99650000Y-129000000D01*
%TO.C,D27*%
X194250000Y-161000000D02*
X194650000Y-161000000D01*
X194650000Y-161000000D02*
X194650000Y-160450000D01*
X194650000Y-161000000D02*
X194650000Y-161550000D01*
X194650000Y-161000000D02*
X195250000Y-160600000D01*
X195250000Y-160600000D02*
X195250000Y-161400000D01*
X195250000Y-161000000D02*
X195750000Y-161000000D01*
X195250000Y-161400000D02*
X194650000Y-161000000D01*
%TO.C,D33*%
X213250000Y-148000000D02*
X213650000Y-148000000D01*
X213650000Y-148000000D02*
X213650000Y-147450000D01*
X213650000Y-148000000D02*
X213650000Y-148550000D01*
X213650000Y-148000000D02*
X214250000Y-147600000D01*
X214250000Y-147600000D02*
X214250000Y-148400000D01*
X214250000Y-148000000D02*
X214750000Y-148000000D01*
X214250000Y-148400000D02*
X213650000Y-148000000D01*
%TO.C,D24*%
X175250000Y-118000000D02*
X175650000Y-118000000D01*
X175650000Y-118000000D02*
X175650000Y-117450000D01*
X175650000Y-118000000D02*
X175650000Y-118550000D01*
X175650000Y-118000000D02*
X176250000Y-117600000D01*
X176250000Y-117600000D02*
X176250000Y-118400000D01*
X176250000Y-118000000D02*
X176750000Y-118000000D01*
X176250000Y-118400000D02*
X175650000Y-118000000D01*
%TO.C,D10*%
X118250000Y-129000000D02*
X118650000Y-129000000D01*
X118650000Y-129000000D02*
X118650000Y-128450000D01*
X118650000Y-129000000D02*
X118650000Y-129550000D01*
X118650000Y-129000000D02*
X119250000Y-128600000D01*
X119250000Y-128600000D02*
X119250000Y-129400000D01*
X119250000Y-129000000D02*
X119750000Y-129000000D01*
X119250000Y-129400000D02*
X118650000Y-129000000D01*
%TO.C,D31*%
X213250000Y-186000000D02*
X213650000Y-186000000D01*
X213650000Y-186000000D02*
X213650000Y-185450000D01*
X213650000Y-186000000D02*
X213650000Y-186550000D01*
X213650000Y-186000000D02*
X214250000Y-185600000D01*
X214250000Y-185600000D02*
X214250000Y-186400000D01*
X214250000Y-186000000D02*
X214750000Y-186000000D01*
X214250000Y-186400000D02*
X213650000Y-186000000D01*
%TO.C,D29*%
X194250000Y-123000000D02*
X194650000Y-123000000D01*
X194650000Y-123000000D02*
X194650000Y-122450000D01*
X194650000Y-123000000D02*
X194650000Y-123550000D01*
X194650000Y-123000000D02*
X195250000Y-122600000D01*
X195250000Y-122600000D02*
X195250000Y-123400000D01*
X195250000Y-123000000D02*
X195750000Y-123000000D01*
X195250000Y-123400000D02*
X194650000Y-123000000D01*
%TO.C,D7*%
X118250000Y-186000000D02*
X118650000Y-186000000D01*
X118650000Y-186000000D02*
X118650000Y-185450000D01*
X118650000Y-186000000D02*
X118650000Y-186550000D01*
X118650000Y-186000000D02*
X119250000Y-185600000D01*
X119250000Y-185600000D02*
X119250000Y-186400000D01*
X119250000Y-186000000D02*
X119750000Y-186000000D01*
X119250000Y-186400000D02*
X118650000Y-186000000D01*
%TD*%
D14*
%TO.C,MCU1*%
X218470000Y-192380000D03*
X215930000Y-192380000D03*
X213390000Y-192380000D03*
X210850000Y-192380000D03*
X208310000Y-192380000D03*
X205770000Y-192380000D03*
X203230000Y-192380000D03*
X200690000Y-192380000D03*
X198150000Y-192380000D03*
X195610000Y-192380000D03*
X193070000Y-192380000D03*
X190530000Y-192380000D03*
X190530000Y-207620000D03*
X193070000Y-207620000D03*
X195610000Y-207620000D03*
X198150000Y-207620000D03*
X200690000Y-207620000D03*
X203230000Y-207620000D03*
X205770000Y-207620000D03*
X208310000Y-207620000D03*
X210850000Y-207620000D03*
X213390000Y-207620000D03*
X215930000Y-207620000D03*
X218470000Y-207620000D03*
X195610000Y-194920000D03*
X195610000Y-197460000D03*
X195610000Y-200000000D03*
%TD*%
M02*
