%TF.GenerationSoftware,KiCad,Pcbnew,10.0.1*%
%TF.CreationDate,2026-05-01T16:41:25-04:00*%
%TF.ProjectId,left_final,6c656674-5f66-4696-9e61-6c2e6b696361,v1.0.0*%
%TF.SameCoordinates,Original*%
%TF.FileFunction,Paste,Bot*%
%TF.FilePolarity,Positive*%
%FSLAX46Y46*%
G04 Gerber Fmt 4.6, Leading zero omitted, Abs format (unit mm)*
G04 Created by KiCad (PCBNEW 10.0.1) date 2026-05-01 16:41:25*
%MOMM*%
%LPD*%
G01*
G04 APERTURE LIST*
%ADD10R,0.900000X0.900000*%
%ADD11R,1.250000X0.900000*%
%ADD12R,2.550000X2.500000*%
%ADD13R,0.900000X1.200000*%
%ADD14R,1.000000X1.550000*%
G04 APERTURE END LIST*
D10*
%TO.C,T1*%
X223900000Y-164300000D03*
X221700000Y-164300000D03*
X223900000Y-171700000D03*
X221700000Y-171700000D03*
D11*
X220725000Y-165750000D03*
X220725000Y-168750000D03*
X220725000Y-170250000D03*
%TD*%
D12*
%TO.C,S15*%
X130915000Y-118460000D03*
X143842000Y-115920000D03*
%TD*%
%TO.C,S14*%
X130915000Y-137460000D03*
X143842000Y-134920000D03*
%TD*%
D13*
%TO.C,D4*%
X98350000Y-148000000D03*
X101650000Y-148000000D03*
%TD*%
D12*
%TO.C,S29*%
X187915000Y-115460000D03*
X200842000Y-112920000D03*
%TD*%
%TO.C,S21*%
X168915000Y-167460000D03*
X181842000Y-164920000D03*
%TD*%
D13*
%TO.C,D3*%
X98350000Y-167000000D03*
X101650000Y-167000000D03*
%TD*%
D12*
%TO.C,S7*%
X111915000Y-178460000D03*
X124842000Y-175920000D03*
%TD*%
%TO.C,S8*%
X111915000Y-159460000D03*
X124842000Y-156920000D03*
%TD*%
D13*
%TO.C,D15*%
X136350000Y-126000000D03*
X139650000Y-126000000D03*
%TD*%
D12*
%TO.C,S33*%
X206915000Y-140460000D03*
X219842000Y-137920000D03*
%TD*%
D13*
%TO.C,D16*%
X155350000Y-180000000D03*
X158650000Y-180000000D03*
%TD*%
D12*
%TO.C,S11*%
X130915000Y-194460000D03*
X143842000Y-191920000D03*
%TD*%
D13*
%TO.C,D23*%
X174350000Y-137000000D03*
X177650000Y-137000000D03*
%TD*%
D12*
%TO.C,S35*%
X206915000Y-102460000D03*
X219842000Y-99920000D03*
%TD*%
%TO.C,S6*%
X111915000Y-197460000D03*
X124842000Y-194920000D03*
%TD*%
D13*
%TO.C,D14*%
X136350000Y-145000000D03*
X139650000Y-145000000D03*
%TD*%
%TO.C,D6*%
X117350000Y-205000000D03*
X120650000Y-205000000D03*
%TD*%
D12*
%TO.C,S20*%
X149915000Y-96460000D03*
X162842000Y-93920000D03*
%TD*%
D13*
%TO.C,D19*%
X155350000Y-123000000D03*
X158650000Y-123000000D03*
%TD*%
%TO.C,D35*%
X212350000Y-110000000D03*
X215650000Y-110000000D03*
%TD*%
%TO.C,D12*%
X136350000Y-183000000D03*
X139650000Y-183000000D03*
%TD*%
%TO.C,D34*%
X212350000Y-129000000D03*
X215650000Y-129000000D03*
%TD*%
D12*
%TO.C,S2*%
X92915000Y-178460000D03*
X105842000Y-175920000D03*
%TD*%
%TO.C,S9*%
X111915000Y-140460000D03*
X124842000Y-137920000D03*
%TD*%
D13*
%TO.C,D17*%
X155350000Y-161000000D03*
X158650000Y-161000000D03*
%TD*%
D12*
%TO.C,S12*%
X130915000Y-175460000D03*
X143842000Y-172920000D03*
%TD*%
D13*
%TO.C,D32*%
X212350000Y-167000000D03*
X215650000Y-167000000D03*
%TD*%
%TO.C,D26*%
X193350000Y-180000000D03*
X196650000Y-180000000D03*
%TD*%
D12*
%TO.C,S31*%
X206915000Y-178460000D03*
X219842000Y-175920000D03*
%TD*%
D13*
%TO.C,D18*%
X155350000Y-142000000D03*
X158650000Y-142000000D03*
%TD*%
%TO.C,D25*%
X174350000Y-99000000D03*
X177650000Y-99000000D03*
%TD*%
%TO.C,D30*%
X193350000Y-104000000D03*
X196650000Y-104000000D03*
%TD*%
D12*
%TO.C,S28*%
X187915000Y-134460000D03*
X200842000Y-131920000D03*
%TD*%
%TO.C,S4*%
X92915000Y-140460000D03*
X105842000Y-137920000D03*
%TD*%
D13*
%TO.C,D22*%
X174350000Y-156000000D03*
X177650000Y-156000000D03*
%TD*%
D12*
%TO.C,S5*%
X92915000Y-121460000D03*
X105842000Y-118920000D03*
%TD*%
%TO.C,S32*%
X206915000Y-159460000D03*
X219842000Y-156920000D03*
%TD*%
%TO.C,S22*%
X168915000Y-148460000D03*
X181842000Y-145920000D03*
%TD*%
D13*
%TO.C,D2*%
X98350000Y-186000000D03*
X101650000Y-186000000D03*
%TD*%
D12*
%TO.C,S23*%
X168915000Y-129460000D03*
X181842000Y-126920000D03*
%TD*%
D14*
%TO.C,B1*%
X223850000Y-181375000D03*
X223850000Y-186625000D03*
X222150000Y-181375000D03*
X222150000Y-186625000D03*
%TD*%
D13*
%TO.C,D8*%
X117350000Y-167000000D03*
X120650000Y-167000000D03*
%TD*%
D12*
%TO.C,S24*%
X168915000Y-110460000D03*
X181842000Y-107920000D03*
%TD*%
D13*
%TO.C,D9*%
X117350000Y-148000000D03*
X120650000Y-148000000D03*
%TD*%
%TO.C,D13*%
X136350000Y-164000000D03*
X139650000Y-164000000D03*
%TD*%
D12*
%TO.C,S13*%
X130915000Y-156460000D03*
X143842000Y-153920000D03*
%TD*%
D13*
%TO.C,D11*%
X136350000Y-202000000D03*
X139650000Y-202000000D03*
%TD*%
%TO.C,D20*%
X155350000Y-104000000D03*
X158650000Y-104000000D03*
%TD*%
D12*
%TO.C,S18*%
X149915000Y-134460000D03*
X162842000Y-131920000D03*
%TD*%
D13*
%TO.C,D28*%
X193350000Y-142000000D03*
X196650000Y-142000000D03*
%TD*%
D12*
%TO.C,S25*%
X168915000Y-91460000D03*
X181842000Y-88920000D03*
%TD*%
D13*
%TO.C,D1*%
X98350000Y-205000000D03*
X101650000Y-205000000D03*
%TD*%
D12*
%TO.C,S27*%
X187915000Y-153460000D03*
X200842000Y-150920000D03*
%TD*%
%TO.C,S16*%
X149915000Y-172460000D03*
X162842000Y-169920000D03*
%TD*%
%TO.C,S30*%
X187915000Y-96460000D03*
X200842000Y-93920000D03*
%TD*%
%TO.C,S19*%
X149915000Y-115460000D03*
X162842000Y-112920000D03*
%TD*%
D13*
%TO.C,D21*%
X174350000Y-175000000D03*
X177650000Y-175000000D03*
%TD*%
%TO.C,D5*%
X98350000Y-129000000D03*
X101650000Y-129000000D03*
%TD*%
D12*
%TO.C,S3*%
X92915000Y-159460000D03*
X105842000Y-156920000D03*
%TD*%
%TO.C,S34*%
X206915000Y-121460000D03*
X219842000Y-118920000D03*
%TD*%
D13*
%TO.C,D27*%
X193350000Y-161000000D03*
X196650000Y-161000000D03*
%TD*%
%TO.C,D33*%
X212350000Y-148000000D03*
X215650000Y-148000000D03*
%TD*%
D12*
%TO.C,S26*%
X187915000Y-172460000D03*
X200842000Y-169920000D03*
%TD*%
D13*
%TO.C,D24*%
X174350000Y-118000000D03*
X177650000Y-118000000D03*
%TD*%
%TO.C,D10*%
X117350000Y-129000000D03*
X120650000Y-129000000D03*
%TD*%
D12*
%TO.C,S17*%
X149915000Y-153460000D03*
X162842000Y-150920000D03*
%TD*%
D13*
%TO.C,D31*%
X212350000Y-186000000D03*
X215650000Y-186000000D03*
%TD*%
D12*
%TO.C,S10*%
X111915000Y-121460000D03*
X124842000Y-118920000D03*
%TD*%
D13*
%TO.C,D29*%
X193350000Y-123000000D03*
X196650000Y-123000000D03*
%TD*%
%TO.C,D7*%
X117350000Y-186000000D03*
X120650000Y-186000000D03*
%TD*%
D12*
%TO.C,S1*%
X92915000Y-197460000D03*
X105842000Y-194920000D03*
%TD*%
M02*
