%TF.GenerationSoftware,KiCad,Pcbnew,10.0.1*%
%TF.CreationDate,2026-05-01T16:41:25-04:00*%
%TF.ProjectId,left_final,6c656674-5f66-4696-9e61-6c2e6b696361,v1.0.0*%
%TF.SameCoordinates,Original*%
%TF.FileFunction,Paste,Top*%
%TF.FilePolarity,Positive*%
%FSLAX46Y46*%
G04 Gerber Fmt 4.6, Leading zero omitted, Abs format (unit mm)*
G04 Created by KiCad (PCBNEW 10.0.1) date 2026-05-01 16:41:25*
%MOMM*%
%LPD*%
G01*
G04 APERTURE LIST*
%ADD10R,0.900000X1.200000*%
G04 APERTURE END LIST*
D10*
%TO.C,D4*%
X98350000Y-148000000D03*
X101650000Y-148000000D03*
%TD*%
%TO.C,D3*%
X98350000Y-167000000D03*
X101650000Y-167000000D03*
%TD*%
%TO.C,D15*%
X136350000Y-126000000D03*
X139650000Y-126000000D03*
%TD*%
%TO.C,D16*%
X155350000Y-180000000D03*
X158650000Y-180000000D03*
%TD*%
%TO.C,D23*%
X174350000Y-137000000D03*
X177650000Y-137000000D03*
%TD*%
%TO.C,D14*%
X136350000Y-145000000D03*
X139650000Y-145000000D03*
%TD*%
%TO.C,D6*%
X117350000Y-205000000D03*
X120650000Y-205000000D03*
%TD*%
%TO.C,D19*%
X155350000Y-123000000D03*
X158650000Y-123000000D03*
%TD*%
%TO.C,D35*%
X212350000Y-110000000D03*
X215650000Y-110000000D03*
%TD*%
%TO.C,D12*%
X136350000Y-183000000D03*
X139650000Y-183000000D03*
%TD*%
%TO.C,D34*%
X212350000Y-129000000D03*
X215650000Y-129000000D03*
%TD*%
%TO.C,D17*%
X155350000Y-161000000D03*
X158650000Y-161000000D03*
%TD*%
%TO.C,D32*%
X212350000Y-167000000D03*
X215650000Y-167000000D03*
%TD*%
%TO.C,D26*%
X193350000Y-180000000D03*
X196650000Y-180000000D03*
%TD*%
%TO.C,D18*%
X155350000Y-142000000D03*
X158650000Y-142000000D03*
%TD*%
%TO.C,D25*%
X174350000Y-99000000D03*
X177650000Y-99000000D03*
%TD*%
%TO.C,D30*%
X193350000Y-104000000D03*
X196650000Y-104000000D03*
%TD*%
%TO.C,D22*%
X174350000Y-156000000D03*
X177650000Y-156000000D03*
%TD*%
%TO.C,D2*%
X98350000Y-186000000D03*
X101650000Y-186000000D03*
%TD*%
%TO.C,D8*%
X117350000Y-167000000D03*
X120650000Y-167000000D03*
%TD*%
%TO.C,D9*%
X117350000Y-148000000D03*
X120650000Y-148000000D03*
%TD*%
%TO.C,D13*%
X136350000Y-164000000D03*
X139650000Y-164000000D03*
%TD*%
%TO.C,D11*%
X136350000Y-202000000D03*
X139650000Y-202000000D03*
%TD*%
%TO.C,D20*%
X155350000Y-104000000D03*
X158650000Y-104000000D03*
%TD*%
%TO.C,D28*%
X193350000Y-142000000D03*
X196650000Y-142000000D03*
%TD*%
%TO.C,D1*%
X98350000Y-205000000D03*
X101650000Y-205000000D03*
%TD*%
%TO.C,D21*%
X174350000Y-175000000D03*
X177650000Y-175000000D03*
%TD*%
%TO.C,D5*%
X98350000Y-129000000D03*
X101650000Y-129000000D03*
%TD*%
%TO.C,D27*%
X193350000Y-161000000D03*
X196650000Y-161000000D03*
%TD*%
%TO.C,D33*%
X212350000Y-148000000D03*
X215650000Y-148000000D03*
%TD*%
%TO.C,D24*%
X174350000Y-118000000D03*
X177650000Y-118000000D03*
%TD*%
%TO.C,D10*%
X117350000Y-129000000D03*
X120650000Y-129000000D03*
%TD*%
%TO.C,D31*%
X212350000Y-186000000D03*
X215650000Y-186000000D03*
%TD*%
%TO.C,D29*%
X193350000Y-123000000D03*
X196650000Y-123000000D03*
%TD*%
%TO.C,D7*%
X117350000Y-186000000D03*
X120650000Y-186000000D03*
%TD*%
M02*
