%TF.GenerationSoftware,KiCad,Pcbnew,10.0.1*%
%TF.CreationDate,2026-05-01T16:41:25-04:00*%
%TF.ProjectId,left_final,6c656674-5f66-4696-9e61-6c2e6b696361,v1.0.0*%
%TF.SameCoordinates,Original*%
%TF.FileFunction,Copper,L2,Bot*%
%TF.FilePolarity,Positive*%
%FSLAX46Y46*%
G04 Gerber Fmt 4.6, Leading zero omitted, Abs format (unit mm)*
G04 Created by KiCad (PCBNEW 10.0.1) date 2026-05-01 16:41:25*
%MOMM*%
%LPD*%
G01*
G04 APERTURE LIST*
%TA.AperFunction,SMDPad,CuDef*%
%ADD10R,0.900000X0.900000*%
%TD*%
%TA.AperFunction,WasherPad*%
%ADD11C,1.000000*%
%TD*%
%TA.AperFunction,SMDPad,CuDef*%
%ADD12R,1.250000X0.900000*%
%TD*%
%TA.AperFunction,SMDPad,CuDef*%
%ADD13R,2.550000X2.500000*%
%TD*%
%TA.AperFunction,ComponentPad*%
%ADD14R,1.778000X1.778000*%
%TD*%
%TA.AperFunction,SMDPad,CuDef*%
%ADD15R,0.900000X1.200000*%
%TD*%
%TA.AperFunction,ComponentPad*%
%ADD16C,1.905000*%
%TD*%
%TA.AperFunction,ComponentPad*%
%ADD17R,1.700000X1.200000*%
%TD*%
%TA.AperFunction,ComponentPad*%
%ADD18O,1.700000X1.200000*%
%TD*%
%TA.AperFunction,SMDPad,CuDef*%
%ADD19R,1.000000X1.550000*%
%TD*%
%TA.AperFunction,ComponentPad*%
%ADD20C,1.752600*%
%TD*%
%TA.AperFunction,Conductor*%
%ADD21C,0.250000*%
%TD*%
G04 APERTURE END LIST*
D10*
%TO.P,T1,*%
%TO.N,*%
X223900000Y-164300000D03*
X221700000Y-164300000D03*
D11*
X222800000Y-166500000D03*
X222800000Y-169500000D03*
D10*
X223900000Y-171700000D03*
X221700000Y-171700000D03*
D12*
%TO.P,T1,1*%
%TO.N,pos*%
X220725000Y-165750000D03*
%TO.P,T1,2*%
%TO.N,RAW*%
X220725000Y-168750000D03*
%TO.P,T1,3*%
%TO.N,N/C*%
X220725000Y-170250000D03*
%TD*%
D13*
%TO.P,S15,1*%
%TO.N,P100*%
X130915000Y-118460000D03*
%TO.P,S15,2*%
%TO.N,pinky_num*%
X143842000Y-115920000D03*
%TD*%
%TO.P,S14,1*%
%TO.N,P100*%
X130915000Y-137460000D03*
%TO.P,S14,2*%
%TO.N,pinky_top*%
X143842000Y-134920000D03*
%TD*%
D14*
%TO.P,D4,1*%
%TO.N,P115*%
X96190000Y-148000000D03*
D15*
X98350000Y-148000000D03*
%TO.P,D4,2*%
%TO.N,macro_top*%
X101650000Y-148000000D03*
D16*
X103810000Y-148000000D03*
%TD*%
D13*
%TO.P,S29,1*%
%TO.N,P020*%
X187915000Y-115460000D03*
%TO.P,S29,2*%
%TO.N,index_top*%
X200842000Y-112920000D03*
%TD*%
%TO.P,S21,1*%
%TO.N,P022*%
X168915000Y-167460000D03*
%TO.P,S21,2*%
%TO.N,middle_space*%
X181842000Y-164920000D03*
%TD*%
D14*
%TO.P,D3,1*%
%TO.N,P002*%
X96190000Y-167000000D03*
D15*
X98350000Y-167000000D03*
%TO.P,D3,2*%
%TO.N,macro_home*%
X101650000Y-167000000D03*
D16*
X103810000Y-167000000D03*
%TD*%
D13*
%TO.P,S7,1*%
%TO.N,P011*%
X111915000Y-178460000D03*
%TO.P,S7,2*%
%TO.N,outer_bottom*%
X124842000Y-175920000D03*
%TD*%
%TO.P,S8,1*%
%TO.N,P011*%
X111915000Y-159460000D03*
%TO.P,S8,2*%
%TO.N,outer_home*%
X124842000Y-156920000D03*
%TD*%
D14*
%TO.P,D15,1*%
%TO.N,P113*%
X134190000Y-126000000D03*
D15*
X136350000Y-126000000D03*
%TO.P,D15,2*%
%TO.N,pinky_num*%
X139650000Y-126000000D03*
D16*
X141810000Y-126000000D03*
%TD*%
D13*
%TO.P,S33,1*%
%TO.N,P017*%
X206915000Y-140460000D03*
%TO.P,S33,2*%
%TO.N,inner_home*%
X219842000Y-137920000D03*
%TD*%
D14*
%TO.P,D16,1*%
%TO.N,P031*%
X153190000Y-180000000D03*
D15*
X155350000Y-180000000D03*
%TO.P,D16,2*%
%TO.N,ring_space*%
X158650000Y-180000000D03*
D16*
X160810000Y-180000000D03*
%TD*%
D13*
%TO.P,S11,1*%
%TO.N,P100*%
X130915000Y-194460000D03*
%TO.P,S11,2*%
%TO.N,pinky_space*%
X143842000Y-191920000D03*
%TD*%
D14*
%TO.P,D23,1*%
%TO.N,P002*%
X172190000Y-137000000D03*
D15*
X174350000Y-137000000D03*
%TO.P,D23,2*%
%TO.N,middle_home*%
X177650000Y-137000000D03*
D16*
X179810000Y-137000000D03*
%TD*%
D13*
%TO.P,S35,1*%
%TO.N,P017*%
X206915000Y-102460000D03*
%TO.P,S35,2*%
%TO.N,inner_num*%
X219842000Y-99920000D03*
%TD*%
%TO.P,S6,1*%
%TO.N,P011*%
X111915000Y-197460000D03*
%TO.P,S6,2*%
%TO.N,outer_space*%
X124842000Y-194920000D03*
%TD*%
D14*
%TO.P,D14,1*%
%TO.N,P115*%
X134190000Y-145000000D03*
D15*
X136350000Y-145000000D03*
%TO.P,D14,2*%
%TO.N,pinky_top*%
X139650000Y-145000000D03*
D16*
X141810000Y-145000000D03*
%TD*%
D14*
%TO.P,D6,1*%
%TO.N,P031*%
X115190000Y-205000000D03*
D15*
X117350000Y-205000000D03*
%TO.P,D6,2*%
%TO.N,outer_space*%
X120650000Y-205000000D03*
D16*
X122810000Y-205000000D03*
%TD*%
D17*
%TO.P,JST1,1*%
%TO.N,pos*%
X214000000Y-170500000D03*
D18*
%TO.P,JST1,2*%
%TO.N,GND*%
X214000000Y-172500000D03*
%TD*%
D13*
%TO.P,S20,1*%
%TO.N,P024*%
X149915000Y-96460000D03*
%TO.P,S20,2*%
%TO.N,ring_num*%
X162842000Y-93920000D03*
%TD*%
D14*
%TO.P,D19,1*%
%TO.N,P115*%
X153190000Y-123000000D03*
D15*
X155350000Y-123000000D03*
%TO.P,D19,2*%
%TO.N,ring_top*%
X158650000Y-123000000D03*
D16*
X160810000Y-123000000D03*
%TD*%
D14*
%TO.P,D35,1*%
%TO.N,P113*%
X210190000Y-110000000D03*
D15*
X212350000Y-110000000D03*
%TO.P,D35,2*%
%TO.N,inner_num*%
X215650000Y-110000000D03*
D16*
X217810000Y-110000000D03*
%TD*%
D14*
%TO.P,D12,1*%
%TO.N,P029*%
X134190000Y-183000000D03*
D15*
X136350000Y-183000000D03*
%TO.P,D12,2*%
%TO.N,pinky_bottom*%
X139650000Y-183000000D03*
D16*
X141810000Y-183000000D03*
%TD*%
D14*
%TO.P,D34,1*%
%TO.N,P115*%
X210190000Y-129000000D03*
D15*
X212350000Y-129000000D03*
%TO.P,D34,2*%
%TO.N,inner_top*%
X215650000Y-129000000D03*
D16*
X217810000Y-129000000D03*
%TD*%
D13*
%TO.P,S2,1*%
%TO.N,P104*%
X92915000Y-178460000D03*
%TO.P,S2,2*%
%TO.N,macro_bottom*%
X105842000Y-175920000D03*
%TD*%
%TO.P,S9,1*%
%TO.N,P011*%
X111915000Y-140460000D03*
%TO.P,S9,2*%
%TO.N,outer_top*%
X124842000Y-137920000D03*
%TD*%
D14*
%TO.P,D17,1*%
%TO.N,P029*%
X153190000Y-161000000D03*
D15*
X155350000Y-161000000D03*
%TO.P,D17,2*%
%TO.N,ring_bottom*%
X158650000Y-161000000D03*
D16*
X160810000Y-161000000D03*
%TD*%
D13*
%TO.P,S12,1*%
%TO.N,P100*%
X130915000Y-175460000D03*
%TO.P,S12,2*%
%TO.N,pinky_bottom*%
X143842000Y-172920000D03*
%TD*%
D14*
%TO.P,D32,1*%
%TO.N,P029*%
X210190000Y-167000000D03*
D15*
X212350000Y-167000000D03*
%TO.P,D32,2*%
%TO.N,inner_bottom*%
X215650000Y-167000000D03*
D16*
X217810000Y-167000000D03*
%TD*%
D14*
%TO.P,D26,1*%
%TO.N,P031*%
X191190000Y-180000000D03*
D15*
X193350000Y-180000000D03*
%TO.P,D26,2*%
%TO.N,index_space*%
X196650000Y-180000000D03*
D16*
X198810000Y-180000000D03*
%TD*%
D13*
%TO.P,S31,1*%
%TO.N,P017*%
X206915000Y-178460000D03*
%TO.P,S31,2*%
%TO.N,inner_space*%
X219842000Y-175920000D03*
%TD*%
D14*
%TO.P,D18,1*%
%TO.N,P002*%
X153190000Y-142000000D03*
D15*
X155350000Y-142000000D03*
%TO.P,D18,2*%
%TO.N,ring_home*%
X158650000Y-142000000D03*
D16*
X160810000Y-142000000D03*
%TD*%
D14*
%TO.P,D25,1*%
%TO.N,P113*%
X172190000Y-99000000D03*
D15*
X174350000Y-99000000D03*
%TO.P,D25,2*%
%TO.N,middle_num*%
X177650000Y-99000000D03*
D16*
X179810000Y-99000000D03*
%TD*%
D14*
%TO.P,D30,1*%
%TO.N,P113*%
X191190000Y-104000000D03*
D15*
X193350000Y-104000000D03*
%TO.P,D30,2*%
%TO.N,index_num*%
X196650000Y-104000000D03*
D16*
X198810000Y-104000000D03*
%TD*%
D13*
%TO.P,S28,1*%
%TO.N,P020*%
X187915000Y-134460000D03*
%TO.P,S28,2*%
%TO.N,index_home*%
X200842000Y-131920000D03*
%TD*%
%TO.P,S4,1*%
%TO.N,P104*%
X92915000Y-140460000D03*
%TO.P,S4,2*%
%TO.N,macro_top*%
X105842000Y-137920000D03*
%TD*%
D14*
%TO.P,D22,1*%
%TO.N,P029*%
X172190000Y-156000000D03*
D15*
X174350000Y-156000000D03*
%TO.P,D22,2*%
%TO.N,middle_bottom*%
X177650000Y-156000000D03*
D16*
X179810000Y-156000000D03*
%TD*%
D13*
%TO.P,S5,1*%
%TO.N,P104*%
X92915000Y-121460000D03*
%TO.P,S5,2*%
%TO.N,macro_num*%
X105842000Y-118920000D03*
%TD*%
%TO.P,S32,1*%
%TO.N,P017*%
X206915000Y-159460000D03*
%TO.P,S32,2*%
%TO.N,inner_bottom*%
X219842000Y-156920000D03*
%TD*%
%TO.P,S22,1*%
%TO.N,P022*%
X168915000Y-148460000D03*
%TO.P,S22,2*%
%TO.N,middle_bottom*%
X181842000Y-145920000D03*
%TD*%
D14*
%TO.P,D2,1*%
%TO.N,P029*%
X96190000Y-186000000D03*
D15*
X98350000Y-186000000D03*
%TO.P,D2,2*%
%TO.N,macro_bottom*%
X101650000Y-186000000D03*
D16*
X103810000Y-186000000D03*
%TD*%
D13*
%TO.P,S23,1*%
%TO.N,P022*%
X168915000Y-129460000D03*
%TO.P,S23,2*%
%TO.N,middle_home*%
X181842000Y-126920000D03*
%TD*%
D19*
%TO.P,B1,1*%
%TO.N,GND*%
X223850000Y-181375000D03*
X223850000Y-186625000D03*
%TO.P,B1,2*%
%TO.N,RST*%
X222150000Y-181375000D03*
X222150000Y-186625000D03*
%TD*%
D14*
%TO.P,D8,1*%
%TO.N,P002*%
X115190000Y-167000000D03*
D15*
X117350000Y-167000000D03*
%TO.P,D8,2*%
%TO.N,outer_home*%
X120650000Y-167000000D03*
D16*
X122810000Y-167000000D03*
%TD*%
D13*
%TO.P,S24,1*%
%TO.N,P022*%
X168915000Y-110460000D03*
%TO.P,S24,2*%
%TO.N,middle_top*%
X181842000Y-107920000D03*
%TD*%
D14*
%TO.P,D9,1*%
%TO.N,P115*%
X115190000Y-148000000D03*
D15*
X117350000Y-148000000D03*
%TO.P,D9,2*%
%TO.N,outer_top*%
X120650000Y-148000000D03*
D16*
X122810000Y-148000000D03*
%TD*%
D14*
%TO.P,D13,1*%
%TO.N,P002*%
X134190000Y-164000000D03*
D15*
X136350000Y-164000000D03*
%TO.P,D13,2*%
%TO.N,pinky_home*%
X139650000Y-164000000D03*
D16*
X141810000Y-164000000D03*
%TD*%
D13*
%TO.P,S13,1*%
%TO.N,P100*%
X130915000Y-156460000D03*
%TO.P,S13,2*%
%TO.N,pinky_home*%
X143842000Y-153920000D03*
%TD*%
D14*
%TO.P,D11,1*%
%TO.N,P031*%
X134190000Y-202000000D03*
D15*
X136350000Y-202000000D03*
%TO.P,D11,2*%
%TO.N,pinky_space*%
X139650000Y-202000000D03*
D16*
X141810000Y-202000000D03*
%TD*%
D14*
%TO.P,D20,1*%
%TO.N,P113*%
X153190000Y-104000000D03*
D15*
X155350000Y-104000000D03*
%TO.P,D20,2*%
%TO.N,ring_num*%
X158650000Y-104000000D03*
D16*
X160810000Y-104000000D03*
%TD*%
D13*
%TO.P,S18,1*%
%TO.N,P024*%
X149915000Y-134460000D03*
%TO.P,S18,2*%
%TO.N,ring_home*%
X162842000Y-131920000D03*
%TD*%
D14*
%TO.P,D28,1*%
%TO.N,P002*%
X191190000Y-142000000D03*
D15*
X193350000Y-142000000D03*
%TO.P,D28,2*%
%TO.N,index_home*%
X196650000Y-142000000D03*
D16*
X198810000Y-142000000D03*
%TD*%
D13*
%TO.P,S25,1*%
%TO.N,P022*%
X168915000Y-91460000D03*
%TO.P,S25,2*%
%TO.N,middle_num*%
X181842000Y-88920000D03*
%TD*%
D14*
%TO.P,D1,1*%
%TO.N,P031*%
X96190000Y-205000000D03*
D15*
X98350000Y-205000000D03*
%TO.P,D1,2*%
%TO.N,macro_space*%
X101650000Y-205000000D03*
D16*
X103810000Y-205000000D03*
%TD*%
D13*
%TO.P,S27,1*%
%TO.N,P020*%
X187915000Y-153460000D03*
%TO.P,S27,2*%
%TO.N,index_bottom*%
X200842000Y-150920000D03*
%TD*%
%TO.P,S16,1*%
%TO.N,P024*%
X149915000Y-172460000D03*
%TO.P,S16,2*%
%TO.N,ring_space*%
X162842000Y-169920000D03*
%TD*%
%TO.P,S30,1*%
%TO.N,P020*%
X187915000Y-96460000D03*
%TO.P,S30,2*%
%TO.N,index_num*%
X200842000Y-93920000D03*
%TD*%
D20*
%TO.P,MCU1,1*%
%TO.N,P006*%
X218470000Y-192380000D03*
%TO.P,MCU1,2*%
%TO.N,P008*%
X215930000Y-192380000D03*
%TO.P,MCU1,3*%
%TO.N,GND*%
X213390000Y-192380000D03*
%TO.P,MCU1,4*%
X210850000Y-192380000D03*
%TO.P,MCU1,5*%
%TO.N,P017*%
X208310000Y-192380000D03*
%TO.P,MCU1,6*%
%TO.N,P020*%
X205770000Y-192380000D03*
%TO.P,MCU1,7*%
%TO.N,P022*%
X203230000Y-192380000D03*
%TO.P,MCU1,8*%
%TO.N,P024*%
X200690000Y-192380000D03*
%TO.P,MCU1,9*%
%TO.N,P100*%
X198150000Y-192380000D03*
%TO.P,MCU1,10*%
%TO.N,P011*%
X195610000Y-192380000D03*
%TO.P,MCU1,11*%
%TO.N,P104*%
X193070000Y-192380000D03*
%TO.P,MCU1,12*%
%TO.N,P106*%
X190530000Y-192380000D03*
%TO.P,MCU1,13*%
%TO.N,P009*%
X190530000Y-207620000D03*
%TO.P,MCU1,14*%
%TO.N,P010*%
X193070000Y-207620000D03*
%TO.P,MCU1,15*%
%TO.N,P111*%
X195610000Y-207620000D03*
%TO.P,MCU1,16*%
%TO.N,P113*%
X198150000Y-207620000D03*
%TO.P,MCU1,17*%
%TO.N,P115*%
X200690000Y-207620000D03*
%TO.P,MCU1,18*%
%TO.N,P002*%
X203230000Y-207620000D03*
%TO.P,MCU1,19*%
%TO.N,P029*%
X205770000Y-207620000D03*
%TO.P,MCU1,20*%
%TO.N,P031*%
X208310000Y-207620000D03*
%TO.P,MCU1,21*%
%TO.N,VCC*%
X210850000Y-207620000D03*
%TO.P,MCU1,22*%
%TO.N,RST*%
X213390000Y-207620000D03*
%TO.P,MCU1,23*%
%TO.N,GND*%
X215930000Y-207620000D03*
%TO.P,MCU1,24*%
%TO.N,RAW*%
X218470000Y-207620000D03*
%TO.P,MCU1,31*%
%TO.N,P101*%
X195610000Y-194920000D03*
%TO.P,MCU1,32*%
%TO.N,P102*%
X195610000Y-197460000D03*
%TO.P,MCU1,33*%
%TO.N,P107*%
X195610000Y-200000000D03*
%TD*%
D13*
%TO.P,S19,1*%
%TO.N,P024*%
X149915000Y-115460000D03*
%TO.P,S19,2*%
%TO.N,ring_top*%
X162842000Y-112920000D03*
%TD*%
D14*
%TO.P,D21,1*%
%TO.N,P031*%
X172190000Y-175000000D03*
D15*
X174350000Y-175000000D03*
%TO.P,D21,2*%
%TO.N,middle_space*%
X177650000Y-175000000D03*
D16*
X179810000Y-175000000D03*
%TD*%
D14*
%TO.P,D5,1*%
%TO.N,P113*%
X96190000Y-129000000D03*
D15*
X98350000Y-129000000D03*
%TO.P,D5,2*%
%TO.N,macro_num*%
X101650000Y-129000000D03*
D16*
X103810000Y-129000000D03*
%TD*%
D13*
%TO.P,S3,1*%
%TO.N,P104*%
X92915000Y-159460000D03*
%TO.P,S3,2*%
%TO.N,macro_home*%
X105842000Y-156920000D03*
%TD*%
%TO.P,S34,1*%
%TO.N,P017*%
X206915000Y-121460000D03*
%TO.P,S34,2*%
%TO.N,inner_top*%
X219842000Y-118920000D03*
%TD*%
D14*
%TO.P,D27,1*%
%TO.N,P029*%
X191190000Y-161000000D03*
D15*
X193350000Y-161000000D03*
%TO.P,D27,2*%
%TO.N,index_bottom*%
X196650000Y-161000000D03*
D16*
X198810000Y-161000000D03*
%TD*%
D14*
%TO.P,D33,1*%
%TO.N,P002*%
X210190000Y-148000000D03*
D15*
X212350000Y-148000000D03*
%TO.P,D33,2*%
%TO.N,inner_home*%
X215650000Y-148000000D03*
D16*
X217810000Y-148000000D03*
%TD*%
D13*
%TO.P,S26,1*%
%TO.N,P020*%
X187915000Y-172460000D03*
%TO.P,S26,2*%
%TO.N,index_space*%
X200842000Y-169920000D03*
%TD*%
D14*
%TO.P,D24,1*%
%TO.N,P115*%
X172190000Y-118000000D03*
D15*
X174350000Y-118000000D03*
%TO.P,D24,2*%
%TO.N,middle_top*%
X177650000Y-118000000D03*
D16*
X179810000Y-118000000D03*
%TD*%
D14*
%TO.P,D10,1*%
%TO.N,P113*%
X115190000Y-129000000D03*
D15*
X117350000Y-129000000D03*
%TO.P,D10,2*%
%TO.N,outer_num*%
X120650000Y-129000000D03*
D16*
X122810000Y-129000000D03*
%TD*%
D13*
%TO.P,S17,1*%
%TO.N,P024*%
X149915000Y-153460000D03*
%TO.P,S17,2*%
%TO.N,ring_bottom*%
X162842000Y-150920000D03*
%TD*%
D14*
%TO.P,D31,1*%
%TO.N,P031*%
X210190000Y-186000000D03*
D15*
X212350000Y-186000000D03*
%TO.P,D31,2*%
%TO.N,inner_space*%
X215650000Y-186000000D03*
D16*
X217810000Y-186000000D03*
%TD*%
D13*
%TO.P,S10,1*%
%TO.N,P011*%
X111915000Y-121460000D03*
%TO.P,S10,2*%
%TO.N,outer_num*%
X124842000Y-118920000D03*
%TD*%
D14*
%TO.P,D29,1*%
%TO.N,P115*%
X191190000Y-123000000D03*
D15*
X193350000Y-123000000D03*
%TO.P,D29,2*%
%TO.N,index_top*%
X196650000Y-123000000D03*
D16*
X198810000Y-123000000D03*
%TD*%
D14*
%TO.P,D7,1*%
%TO.N,P029*%
X115190000Y-186000000D03*
D15*
X117350000Y-186000000D03*
%TO.P,D7,2*%
%TO.N,outer_bottom*%
X120650000Y-186000000D03*
D16*
X122810000Y-186000000D03*
%TD*%
D13*
%TO.P,S1,1*%
%TO.N,P104*%
X92915000Y-197460000D03*
%TO.P,S1,2*%
%TO.N,macro_space*%
X105842000Y-194920000D03*
%TD*%
%TO.N,pos*%
D21*
X216675000Y-170500000D02*
X220725000Y-166450000D01*
X214000000Y-170500000D02*
X216675000Y-170500000D01*
X220725000Y-166450000D02*
X220725000Y-165750000D01*
%TO.N,RAW*%
X220550000Y-168750000D02*
X220725000Y-168750000D01*
X209648700Y-187934995D02*
X208976000Y-187262295D01*
X217268700Y-208821300D02*
X215321300Y-208821300D01*
X212825000Y-178824869D02*
X212825000Y-172116852D01*
X215321300Y-208821300D02*
X214728700Y-208228700D01*
X211404000Y-182358000D02*
X211404000Y-180245869D01*
X208976000Y-187262295D02*
X208976000Y-184786000D01*
X214728700Y-207122405D02*
X209648700Y-202042405D01*
X213366852Y-171575000D02*
X217725000Y-171575000D01*
X211404000Y-180245869D02*
X212825000Y-178824869D01*
X208976000Y-184786000D02*
X211404000Y-182358000D01*
X217725000Y-171575000D02*
X220550000Y-168750000D01*
X209648700Y-202042405D02*
X209648700Y-187934995D01*
X218470000Y-207620000D02*
X217268700Y-208821300D01*
X212825000Y-172116852D02*
X213366852Y-171575000D01*
X214728700Y-208228700D02*
X214728700Y-207122405D01*
%TO.N,P100*%
X142672500Y-205827500D02*
X133500000Y-205827500D01*
X130915000Y-203242500D02*
X130915000Y-194460000D01*
X133500000Y-205827500D02*
X130915000Y-203242500D01*
X198150000Y-192380000D02*
X196048700Y-190278700D01*
X130915000Y-118460000D02*
X130915000Y-194460000D01*
X150000000Y-198500000D02*
X142672500Y-205827500D01*
X196048700Y-190278700D02*
X152721300Y-190278700D01*
X150000000Y-193000000D02*
X150000000Y-198500000D01*
X152721300Y-190278700D02*
X150000000Y-193000000D01*
%TO.N,pinky_num*%
X139650000Y-126000000D02*
X141810000Y-126000000D01*
X143842000Y-115920000D02*
X141810000Y-117952000D01*
X141810000Y-117952000D02*
X141810000Y-126000000D01*
%TO.N,pinky_top*%
X141810000Y-136952000D02*
X141810000Y-145000000D01*
X143842000Y-134920000D02*
X141810000Y-136952000D01*
X139650000Y-145000000D02*
X141810000Y-145000000D01*
%TO.N,P115*%
X115190000Y-148000000D02*
X117350000Y-148000000D01*
X96190000Y-148000000D02*
X98350000Y-148000000D01*
X212350000Y-129000000D02*
X210190000Y-129000000D01*
X191190000Y-123000000D02*
X193350000Y-123000000D01*
X153190000Y-123000000D02*
X155350000Y-123000000D01*
X136350000Y-145000000D02*
X134190000Y-145000000D01*
X172190000Y-118000000D02*
X174350000Y-118000000D01*
%TO.N,macro_top*%
X101650000Y-148000000D02*
X103810000Y-148000000D01*
X105842000Y-137920000D02*
X103810000Y-139952000D01*
X103810000Y-139952000D02*
X103810000Y-148000000D01*
%TO.N,P020*%
X187925000Y-96470000D02*
X187915000Y-96460000D01*
X202318700Y-188928700D02*
X189928700Y-188928700D01*
X189928700Y-188928700D02*
X187915000Y-186915000D01*
X205770000Y-192380000D02*
X202318700Y-188928700D01*
X187925000Y-172450000D02*
X187925000Y-96470000D01*
X187915000Y-172460000D02*
X187925000Y-172450000D01*
X187915000Y-186915000D02*
X187915000Y-172460000D01*
%TO.N,index_top*%
X200842000Y-112920000D02*
X198810000Y-114952000D01*
X198810000Y-114952000D02*
X198810000Y-123000000D01*
X196650000Y-123000000D02*
X198810000Y-123000000D01*
%TO.N,P022*%
X189742304Y-189378700D02*
X200228700Y-189378700D01*
X168915000Y-91460000D02*
X168925000Y-91470000D01*
X172000000Y-181000000D02*
X185500000Y-181000000D01*
X185500000Y-181000000D02*
X187465000Y-182965000D01*
X168925000Y-91470000D02*
X168925000Y-167450000D01*
X168925000Y-167450000D02*
X168915000Y-167460000D01*
X168915000Y-167460000D02*
X168915000Y-177915000D01*
X187465000Y-187101396D02*
X189742304Y-189378700D01*
X200228700Y-189378700D02*
X203230000Y-192380000D01*
X168915000Y-177915000D02*
X172000000Y-181000000D01*
X187465000Y-182965000D02*
X187465000Y-187101396D01*
%TO.N,middle_space*%
X179810000Y-175000000D02*
X177650000Y-175000000D01*
X181842000Y-164920000D02*
X179810000Y-166952000D01*
X179810000Y-166952000D02*
X179810000Y-175000000D01*
%TO.N,P002*%
X153190000Y-142000000D02*
X155350000Y-142000000D01*
X212350000Y-148000000D02*
X210190000Y-148000000D01*
X96190000Y-167000000D02*
X98350000Y-167000000D01*
X193350000Y-142000000D02*
X191190000Y-142000000D01*
X136350000Y-164000000D02*
X134190000Y-164000000D01*
X115190000Y-167000000D02*
X117350000Y-167000000D01*
X174350000Y-137000000D02*
X172190000Y-137000000D01*
%TO.N,macro_home*%
X103810000Y-167000000D02*
X101650000Y-167000000D01*
X105842000Y-156920000D02*
X103810000Y-158952000D01*
X103810000Y-158952000D02*
X103810000Y-167000000D01*
%TO.N,P011*%
X111915000Y-121460000D02*
X111925000Y-121470000D01*
X111915000Y-204415000D02*
X111915000Y-197460000D01*
X150450000Y-198686396D02*
X142858896Y-206277500D01*
X142858896Y-206277500D02*
X113777500Y-206277500D01*
X150450000Y-193186396D02*
X150450000Y-198686396D01*
X152907696Y-190728700D02*
X150450000Y-193186396D01*
X113777500Y-206277500D02*
X111915000Y-204415000D01*
X111925000Y-197450000D02*
X111915000Y-197460000D01*
X111925000Y-121470000D02*
X111925000Y-197450000D01*
X195610000Y-192380000D02*
X193958700Y-190728700D01*
X193958700Y-190728700D02*
X152907696Y-190728700D01*
%TO.N,outer_bottom*%
X124842000Y-175920000D02*
X122810000Y-177952000D01*
X122810000Y-177952000D02*
X122810000Y-186000000D01*
X120650000Y-186000000D02*
X122810000Y-186000000D01*
%TO.N,outer_home*%
X122810000Y-158952000D02*
X122810000Y-167000000D01*
X120650000Y-167000000D02*
X122810000Y-167000000D01*
X124842000Y-156920000D02*
X122810000Y-158952000D01*
%TO.N,P113*%
X96190000Y-129000000D02*
X98350000Y-129000000D01*
X172190000Y-99000000D02*
X174350000Y-99000000D01*
X153190000Y-104000000D02*
X155350000Y-104000000D01*
X115190000Y-129000000D02*
X117350000Y-129000000D01*
X134190000Y-126000000D02*
X136350000Y-126000000D01*
X210190000Y-110000000D02*
X212350000Y-110000000D01*
X191190000Y-104000000D02*
X193350000Y-104000000D01*
%TO.N,P017*%
X206915000Y-183485532D02*
X206915000Y-178460000D01*
X208310000Y-184880532D02*
X206915000Y-183485532D01*
X206915000Y-102460000D02*
X206915000Y-178460000D01*
X206915000Y-159460000D02*
X206915000Y-140460000D01*
X208310000Y-192380000D02*
X208310000Y-184880532D01*
X206915000Y-178460000D02*
X206915000Y-159460000D01*
%TO.N,inner_home*%
X219842000Y-137920000D02*
X217810000Y-139952000D01*
X217810000Y-139952000D02*
X217810000Y-148000000D01*
X215650000Y-148000000D02*
X217810000Y-148000000D01*
%TO.N,P031*%
X212350000Y-186000000D02*
X210190000Y-186000000D01*
X191190000Y-180000000D02*
X193350000Y-180000000D01*
X153190000Y-180000000D02*
X155350000Y-180000000D01*
X134190000Y-202000000D02*
X136350000Y-202000000D01*
X115190000Y-205000000D02*
X117350000Y-205000000D01*
X96190000Y-205000000D02*
X98350000Y-205000000D01*
X172190000Y-175000000D02*
X174350000Y-175000000D01*
%TO.N,ring_space*%
X158650000Y-180000000D02*
X160810000Y-180000000D01*
X160810000Y-171952000D02*
X160810000Y-180000000D01*
X162842000Y-169920000D02*
X160810000Y-171952000D01*
%TO.N,pinky_space*%
X141810000Y-193952000D02*
X141810000Y-202000000D01*
X139650000Y-202000000D02*
X141810000Y-202000000D01*
X143842000Y-191920000D02*
X141810000Y-193952000D01*
%TO.N,middle_home*%
X179810000Y-128952000D02*
X179810000Y-137000000D01*
X181842000Y-126920000D02*
X179810000Y-128952000D01*
X177650000Y-137000000D02*
X179810000Y-137000000D01*
%TO.N,inner_num*%
X217810000Y-101952000D02*
X217810000Y-110000000D01*
X217810000Y-110000000D02*
X215650000Y-110000000D01*
X219842000Y-99920000D02*
X217810000Y-101952000D01*
%TO.N,outer_space*%
X124842000Y-194920000D02*
X122810000Y-196952000D01*
X122810000Y-196952000D02*
X122810000Y-205000000D01*
X122810000Y-205000000D02*
X120650000Y-205000000D01*
%TO.N,GND*%
X213390000Y-192380000D02*
X213390000Y-205080000D01*
X223850000Y-186625000D02*
X223625000Y-186400000D01*
X216425000Y-183525000D02*
X213390000Y-186560000D01*
X223625000Y-186400000D02*
X223625000Y-181600000D01*
X214000000Y-172500000D02*
X214000000Y-177649869D01*
X213390000Y-205080000D02*
X215930000Y-207620000D01*
X223625000Y-181600000D02*
X223850000Y-181375000D01*
X214000000Y-177649869D02*
X216425000Y-180074869D01*
X216425000Y-180074869D02*
X216425000Y-183525000D01*
X210850000Y-192380000D02*
X213390000Y-192380000D01*
X213390000Y-186560000D02*
X213390000Y-192380000D01*
X223850000Y-176753000D02*
X219597000Y-172500000D01*
X219597000Y-172500000D02*
X214000000Y-172500000D01*
X223850000Y-181375000D02*
X223850000Y-176753000D01*
%TO.N,P024*%
X198138700Y-189828700D02*
X152828700Y-189828700D01*
X152828700Y-189828700D02*
X149915000Y-186915000D01*
X149915000Y-172460000D02*
X149915000Y-96460000D01*
X200690000Y-192380000D02*
X198138700Y-189828700D01*
X149915000Y-186915000D02*
X149915000Y-172460000D01*
%TO.N,ring_num*%
X158650000Y-104000000D02*
X160810000Y-104000000D01*
X162842000Y-93920000D02*
X160810000Y-95952000D01*
X160810000Y-95952000D02*
X160810000Y-104000000D01*
%TO.N,ring_top*%
X162842000Y-112920000D02*
X160810000Y-114952000D01*
X158650000Y-123000000D02*
X160810000Y-123000000D01*
X160810000Y-114952000D02*
X160810000Y-123000000D01*
%TO.N,P029*%
X96190000Y-186000000D02*
X98350000Y-186000000D01*
X153190000Y-161000000D02*
X155350000Y-161000000D01*
X174350000Y-156000000D02*
X172190000Y-156000000D01*
X115190000Y-186000000D02*
X117350000Y-186000000D01*
X136350000Y-183000000D02*
X134190000Y-183000000D01*
X191190000Y-161000000D02*
X193350000Y-161000000D01*
X210190000Y-167000000D02*
X212350000Y-167000000D01*
%TO.N,pinky_bottom*%
X143842000Y-172920000D02*
X141810000Y-174952000D01*
X139650000Y-183000000D02*
X141810000Y-183000000D01*
X141810000Y-174952000D02*
X141810000Y-183000000D01*
%TO.N,inner_top*%
X219842000Y-118920000D02*
X217810000Y-120952000D01*
X217810000Y-129000000D02*
X215650000Y-129000000D01*
X217810000Y-120952000D02*
X217810000Y-129000000D01*
%TO.N,P104*%
X191868700Y-191178700D02*
X153094092Y-191178700D01*
X150900000Y-198872792D02*
X143045292Y-206727500D01*
X150900000Y-193372792D02*
X150900000Y-198872792D01*
X92915000Y-197460000D02*
X92915000Y-178460000D01*
X143045292Y-206727500D02*
X95489500Y-206727500D01*
X193070000Y-192380000D02*
X191868700Y-191178700D01*
X92915000Y-140460000D02*
X92915000Y-121460000D01*
X92915000Y-178460000D02*
X92915000Y-159460000D01*
X92915000Y-204153000D02*
X92915000Y-197460000D01*
X92915000Y-140460000D02*
X92915000Y-159460000D01*
X95489500Y-206727500D02*
X92915000Y-204153000D01*
X153094092Y-191178700D02*
X150900000Y-193372792D01*
%TO.N,macro_bottom*%
X103810000Y-186000000D02*
X101650000Y-186000000D01*
X103810000Y-177952000D02*
X103810000Y-186000000D01*
X105842000Y-175920000D02*
X103810000Y-177952000D01*
%TO.N,outer_top*%
X122810000Y-139952000D02*
X122810000Y-148000000D01*
X122810000Y-148000000D02*
X120650000Y-148000000D01*
X124842000Y-137920000D02*
X122810000Y-139952000D01*
%TO.N,ring_bottom*%
X162842000Y-150920000D02*
X160810000Y-152952000D01*
X160810000Y-161000000D02*
X158650000Y-161000000D01*
X160810000Y-152952000D02*
X160810000Y-161000000D01*
%TO.N,inner_bottom*%
X219842000Y-156920000D02*
X217810000Y-158952000D01*
X217810000Y-158952000D02*
X217810000Y-167000000D01*
X215650000Y-167000000D02*
X217810000Y-167000000D01*
%TO.N,index_space*%
X198810000Y-171952000D02*
X198810000Y-180000000D01*
X196650000Y-180000000D02*
X198810000Y-180000000D01*
X200842000Y-169920000D02*
X198810000Y-171952000D01*
%TO.N,inner_space*%
X217810000Y-177952000D02*
X217810000Y-186000000D01*
X215650000Y-186000000D02*
X217810000Y-186000000D01*
X219842000Y-175920000D02*
X217810000Y-177952000D01*
%TO.N,ring_home*%
X158650000Y-142000000D02*
X160810000Y-142000000D01*
X160810000Y-133952000D02*
X160810000Y-142000000D01*
X162842000Y-131920000D02*
X160810000Y-133952000D01*
%TO.N,middle_num*%
X181842000Y-88920000D02*
X179810000Y-90952000D01*
X179810000Y-90952000D02*
X179810000Y-99000000D01*
X177650000Y-99000000D02*
X179810000Y-99000000D01*
%TO.N,index_num*%
X200842000Y-93920000D02*
X198810000Y-95952000D01*
X196650000Y-104000000D02*
X198810000Y-104000000D01*
X198810000Y-95952000D02*
X198810000Y-104000000D01*
%TO.N,index_home*%
X200842000Y-131920000D02*
X198810000Y-133952000D01*
X196650000Y-142000000D02*
X198810000Y-142000000D01*
X198810000Y-133952000D02*
X198810000Y-142000000D01*
%TO.N,middle_bottom*%
X177650000Y-156000000D02*
X179810000Y-156000000D01*
X179810000Y-147952000D02*
X179810000Y-156000000D01*
X181842000Y-145920000D02*
X179810000Y-147952000D01*
%TO.N,macro_num*%
X103810000Y-120952000D02*
X103810000Y-129000000D01*
X105842000Y-118920000D02*
X103810000Y-120952000D01*
X101650000Y-129000000D02*
X103810000Y-129000000D01*
%TO.N,RST*%
X213390000Y-207620000D02*
X215041300Y-209271300D01*
X222150000Y-186625000D02*
X222150000Y-205638895D01*
X222375000Y-186400000D02*
X222150000Y-186625000D01*
X222375000Y-181600000D02*
X222375000Y-186400000D01*
X218517595Y-209271300D02*
X222150000Y-205638895D01*
X222150000Y-181375000D02*
X222375000Y-181600000D01*
X215041300Y-209271300D02*
X218517595Y-209271300D01*
%TO.N,middle_top*%
X179810000Y-109952000D02*
X179810000Y-118000000D01*
X177650000Y-118000000D02*
X179810000Y-118000000D01*
X181842000Y-107920000D02*
X179810000Y-109952000D01*
%TO.N,pinky_home*%
X139650000Y-164000000D02*
X141810000Y-164000000D01*
X143842000Y-153920000D02*
X141810000Y-155952000D01*
X141810000Y-155952000D02*
X141810000Y-164000000D01*
%TO.N,macro_space*%
X105842000Y-194920000D02*
X103810000Y-196952000D01*
X101650000Y-205000000D02*
X103810000Y-205000000D01*
X103810000Y-196952000D02*
X103810000Y-205000000D01*
%TO.N,index_bottom*%
X200842000Y-150920000D02*
X198810000Y-152952000D01*
X198810000Y-152952000D02*
X198810000Y-161000000D01*
X196650000Y-161000000D02*
X198810000Y-161000000D01*
%TO.N,outer_num*%
X122810000Y-120952000D02*
X122810000Y-129000000D01*
X124842000Y-118920000D02*
X122810000Y-120952000D01*
X120650000Y-129000000D02*
X122810000Y-129000000D01*
%TD*%
M02*
