%TF.GenerationSoftware,KiCad,Pcbnew,10.0.1*%
%TF.CreationDate,2026-05-01T16:41:25-04:00*%
%TF.ProjectId,left_final,6c656674-5f66-4696-9e61-6c2e6b696361,v1.0.0*%
%TF.SameCoordinates,Original*%
%TF.FileFunction,Profile,NP*%
%FSLAX46Y46*%
G04 Gerber Fmt 4.6, Leading zero omitted, Abs format (unit mm)*
G04 Created by KiCad (PCBNEW 10.0.1) date 2026-05-01 16:41:25*
%MOMM*%
%LPD*%
G01*
G04 APERTURE LIST*
%TA.AperFunction,Profile*%
%ADD10C,0.150000*%
%TD*%
G04 APERTURE END LIST*
D10*
X88500000Y-114500000D02*
G75*
G02*
X90500000Y-112500000I2000000J0D01*
G01*
X88500000Y-209500000D02*
X88500000Y-114500000D01*
X90500000Y-112500000D02*
X124500000Y-112500000D01*
X90500000Y-211500000D02*
G75*
G02*
X88500000Y-209500000I0J2000000D01*
G01*
X90500000Y-211500000D02*
X223500000Y-211500000D01*
X126500000Y-109500000D02*
X143500000Y-109500000D01*
X126500000Y-110500000D02*
G75*
G02*
X124500000Y-112500000I-2000000J0D01*
G01*
X126500000Y-110500000D02*
X126500000Y-109500000D01*
X145500000Y-89500000D02*
G75*
G02*
X147500000Y-87500000I2000000J0D01*
G01*
X145500000Y-107500000D02*
G75*
G02*
X143500000Y-109500000I-2000000J0D01*
G01*
X145500000Y-107500000D02*
X145500000Y-89500000D01*
X147500000Y-87500000D02*
X162500000Y-87500000D01*
X164500000Y-84500000D02*
G75*
G02*
X166500000Y-82500000I2000000J0D01*
G01*
X164500000Y-85500000D02*
G75*
G02*
X162500000Y-87500000I-2000000J0D01*
G01*
X164500000Y-85500000D02*
X164500000Y-84500000D01*
X166500000Y-82500000D02*
X183242439Y-82500000D01*
X183242439Y-82500000D02*
G75*
G02*
X183749156Y-82565265I-39J-2000000D01*
G01*
X183749158Y-82565256D02*
X224006719Y-93108903D01*
X224006719Y-93108903D02*
G75*
G02*
X225499954Y-95043647I-506719J-1934697D01*
G01*
X225500000Y-95043647D02*
X225500000Y-209500000D01*
X225500000Y-209500000D02*
G75*
G02*
X223500000Y-211500000I-2000000J0D01*
G01*
M02*
