%TF.GenerationSoftware,KiCad,Pcbnew,10.0.1*%
%TF.CreationDate,2026-05-01T16:44:22-04:00*%
%TF.ProjectId,right_final,72696768-745f-4666-996e-616c2e6b6963,v1.0.0*%
%TF.SameCoordinates,Original*%
%TF.FileFunction,Soldermask,Top*%
%TF.FilePolarity,Negative*%
%FSLAX46Y46*%
G04 Gerber Fmt 4.6, Leading zero omitted, Abs format (unit mm)*
G04 Created by KiCad (PCBNEW 10.0.1) date 2026-05-01 16:44:22*
%MOMM*%
%LPD*%
G01*
G04 APERTURE LIST*
%ADD10C,1.000000*%
%ADD11C,1.701800*%
%ADD12C,3.000000*%
%ADD13C,3.987800*%
%ADD14R,1.778000X1.778000*%
%ADD15R,0.900000X1.200000*%
%ADD16C,1.905000*%
%ADD17C,1.752600*%
%ADD18C,4.000000*%
%ADD19C,0.750000*%
%ADD20R,1.700000X1.200000*%
%ADD21O,1.700000X1.200000*%
G04 APERTURE END LIST*
D10*
%TO.C,T1*%
X243200000Y-169500000D03*
X243200000Y-166500000D03*
%TD*%
D11*
%TO.C,S24*%
X284920000Y-113000000D03*
D12*
X286190000Y-110460000D03*
D13*
X290000000Y-113000000D03*
D12*
X292540000Y-107920000D03*
D11*
X295080000Y-113000000D03*
%TD*%
D14*
%TO.C,D28*%
X267190000Y-142000000D03*
D15*
X269350000Y-142000000D03*
X272650000Y-142000000D03*
D16*
X274810000Y-142000000D03*
%TD*%
D11*
%TO.C,S27*%
X265920000Y-156000000D03*
D12*
X267190000Y-153460000D03*
D13*
X271000000Y-156000000D03*
D12*
X273540000Y-150920000D03*
D11*
X276080000Y-156000000D03*
%TD*%
%TO.C,S33*%
X246920000Y-143000000D03*
D12*
X248190000Y-140460000D03*
D13*
X252000000Y-143000000D03*
D12*
X254540000Y-137920000D03*
D11*
X257080000Y-143000000D03*
%TD*%
%TO.C,S21*%
X284920000Y-170000000D03*
D12*
X286190000Y-167460000D03*
D13*
X290000000Y-170000000D03*
D12*
X292540000Y-164920000D03*
D11*
X295080000Y-170000000D03*
%TD*%
%TO.C,S11*%
X322920000Y-197000000D03*
D12*
X324190000Y-194460000D03*
D13*
X328000000Y-197000000D03*
D12*
X330540000Y-191920000D03*
D11*
X333080000Y-197000000D03*
%TD*%
D14*
%TO.C,D13*%
X324190000Y-164000000D03*
D15*
X326350000Y-164000000D03*
X329650000Y-164000000D03*
D16*
X331810000Y-164000000D03*
%TD*%
D11*
%TO.C,S12*%
X322920000Y-178000000D03*
D12*
X324190000Y-175460000D03*
D13*
X328000000Y-178000000D03*
D12*
X330540000Y-172920000D03*
D11*
X333080000Y-178000000D03*
%TD*%
D17*
%TO.C,MCU1*%
X247530000Y-207620000D03*
X250070000Y-207620000D03*
X252610000Y-207620000D03*
X255150000Y-207620000D03*
X257690000Y-207620000D03*
X260230000Y-207620000D03*
X262770000Y-207620000D03*
X265310000Y-207620000D03*
X267850000Y-207620000D03*
X270390000Y-207620000D03*
X272930000Y-207620000D03*
X275470000Y-207620000D03*
X275470000Y-192380000D03*
X272930000Y-192380000D03*
X270390000Y-192380000D03*
X267850000Y-192380000D03*
X265310000Y-192380000D03*
X262770000Y-192380000D03*
X260230000Y-192380000D03*
X257690000Y-192380000D03*
X255150000Y-192380000D03*
X252610000Y-192380000D03*
X250070000Y-192380000D03*
X247530000Y-192380000D03*
X270390000Y-205080000D03*
X270390000Y-202540000D03*
X270390000Y-200000000D03*
%TD*%
D14*
%TO.C,D1*%
X362190000Y-205000000D03*
D15*
X364350000Y-205000000D03*
X367650000Y-205000000D03*
D16*
X369810000Y-205000000D03*
%TD*%
D14*
%TO.C,D33*%
X248190000Y-148000000D03*
D15*
X250350000Y-148000000D03*
X253650000Y-148000000D03*
D16*
X255810000Y-148000000D03*
%TD*%
D14*
%TO.C,D26*%
X267190000Y-180000000D03*
D15*
X269350000Y-180000000D03*
X272650000Y-180000000D03*
D16*
X274810000Y-180000000D03*
%TD*%
D11*
%TO.C,S35*%
X246920000Y-105000000D03*
D12*
X248190000Y-102460000D03*
D13*
X252000000Y-105000000D03*
D12*
X254540000Y-99920000D03*
D11*
X257080000Y-105000000D03*
%TD*%
%TO.C,S4*%
X360920000Y-143000000D03*
D12*
X362190000Y-140460000D03*
D13*
X366000000Y-143000000D03*
D12*
X368540000Y-137920000D03*
D11*
X371080000Y-143000000D03*
%TD*%
%TO.C,S20*%
X303920000Y-99000000D03*
D12*
X305190000Y-96460000D03*
D13*
X309000000Y-99000000D03*
D12*
X311540000Y-93920000D03*
D11*
X314080000Y-99000000D03*
%TD*%
D14*
%TO.C,D15*%
X324190000Y-126000000D03*
D15*
X326350000Y-126000000D03*
X329650000Y-126000000D03*
D16*
X331810000Y-126000000D03*
%TD*%
D11*
%TO.C,S6*%
X341920000Y-200000000D03*
D12*
X343190000Y-197460000D03*
D13*
X347000000Y-200000000D03*
D12*
X349540000Y-194920000D03*
D11*
X352080000Y-200000000D03*
%TD*%
%TO.C,S26*%
X265920000Y-175000000D03*
D12*
X267190000Y-172460000D03*
D13*
X271000000Y-175000000D03*
D12*
X273540000Y-169920000D03*
D11*
X276080000Y-175000000D03*
%TD*%
D18*
%TO.C,*%
X261500000Y-184500000D03*
%TD*%
D19*
%TO.C,B1*%
X241625000Y-184000000D03*
X244375000Y-184000000D03*
%TD*%
D14*
%TO.C,D3*%
X362190000Y-167000000D03*
D15*
X364350000Y-167000000D03*
X367650000Y-167000000D03*
D16*
X369810000Y-167000000D03*
%TD*%
D14*
%TO.C,D22*%
X286190000Y-156000000D03*
D15*
X288350000Y-156000000D03*
X291650000Y-156000000D03*
D16*
X293810000Y-156000000D03*
%TD*%
D14*
%TO.C,D11*%
X324190000Y-202000000D03*
D15*
X326350000Y-202000000D03*
X329650000Y-202000000D03*
D16*
X331810000Y-202000000D03*
%TD*%
D11*
%TO.C,S16*%
X303920000Y-175000000D03*
D12*
X305190000Y-172460000D03*
D13*
X309000000Y-175000000D03*
D12*
X311540000Y-169920000D03*
D11*
X314080000Y-175000000D03*
%TD*%
%TO.C,S14*%
X322920000Y-140000000D03*
D12*
X324190000Y-137460000D03*
D13*
X328000000Y-140000000D03*
D12*
X330540000Y-134920000D03*
D11*
X333080000Y-140000000D03*
%TD*%
D14*
%TO.C,D25*%
X286190000Y-99000000D03*
D15*
X288350000Y-99000000D03*
X291650000Y-99000000D03*
D16*
X293810000Y-99000000D03*
%TD*%
D11*
%TO.C,S3*%
X360920000Y-162000000D03*
D12*
X362190000Y-159460000D03*
D13*
X366000000Y-162000000D03*
D12*
X368540000Y-156920000D03*
D11*
X371080000Y-162000000D03*
%TD*%
D14*
%TO.C,D10*%
X343190000Y-129000000D03*
D15*
X345350000Y-129000000D03*
X348650000Y-129000000D03*
D16*
X350810000Y-129000000D03*
%TD*%
D11*
%TO.C,S13*%
X322920000Y-159000000D03*
D12*
X324190000Y-156460000D03*
D13*
X328000000Y-159000000D03*
D12*
X330540000Y-153920000D03*
D11*
X333080000Y-159000000D03*
%TD*%
D14*
%TO.C,D7*%
X343190000Y-186000000D03*
D15*
X345350000Y-186000000D03*
X348650000Y-186000000D03*
D16*
X350810000Y-186000000D03*
%TD*%
D11*
%TO.C,S1*%
X360920000Y-200000000D03*
D12*
X362190000Y-197460000D03*
D13*
X366000000Y-200000000D03*
D12*
X368540000Y-194920000D03*
D11*
X371080000Y-200000000D03*
%TD*%
D18*
%TO.C,*%
X356500000Y-133500000D03*
%TD*%
D14*
%TO.C,D9*%
X343190000Y-148000000D03*
D15*
X345350000Y-148000000D03*
X348650000Y-148000000D03*
D16*
X350810000Y-148000000D03*
%TD*%
D14*
%TO.C,D21*%
X286190000Y-175000000D03*
D15*
X288350000Y-175000000D03*
X291650000Y-175000000D03*
D16*
X293810000Y-175000000D03*
%TD*%
D14*
%TO.C,D27*%
X267190000Y-161000000D03*
D15*
X269350000Y-161000000D03*
X272650000Y-161000000D03*
D16*
X274810000Y-161000000D03*
%TD*%
D11*
%TO.C,S10*%
X341920000Y-124000000D03*
D12*
X343190000Y-121460000D03*
D13*
X347000000Y-124000000D03*
D12*
X349540000Y-118920000D03*
D11*
X352080000Y-124000000D03*
%TD*%
D14*
%TO.C,D32*%
X248190000Y-167000000D03*
D15*
X250350000Y-167000000D03*
X253650000Y-167000000D03*
D16*
X255810000Y-167000000D03*
%TD*%
D11*
%TO.C,S29*%
X265920000Y-118000000D03*
D12*
X267190000Y-115460000D03*
D13*
X271000000Y-118000000D03*
D12*
X273540000Y-112920000D03*
D11*
X276080000Y-118000000D03*
%TD*%
D14*
%TO.C,D5*%
X362190000Y-129000000D03*
D15*
X364350000Y-129000000D03*
X367650000Y-129000000D03*
D16*
X369810000Y-129000000D03*
%TD*%
D11*
%TO.C,S15*%
X322920000Y-121000000D03*
D12*
X324190000Y-118460000D03*
D13*
X328000000Y-121000000D03*
D12*
X330540000Y-115920000D03*
D11*
X333080000Y-121000000D03*
%TD*%
%TO.C,S22*%
X284920000Y-151000000D03*
D12*
X286190000Y-148460000D03*
D13*
X290000000Y-151000000D03*
D12*
X292540000Y-145920000D03*
D11*
X295080000Y-151000000D03*
%TD*%
D14*
%TO.C,D2*%
X362190000Y-186000000D03*
D15*
X364350000Y-186000000D03*
X367650000Y-186000000D03*
D16*
X369810000Y-186000000D03*
%TD*%
D11*
%TO.C,S7*%
X341920000Y-181000000D03*
D12*
X343190000Y-178460000D03*
D13*
X347000000Y-181000000D03*
D12*
X349540000Y-175920000D03*
D11*
X352080000Y-181000000D03*
%TD*%
%TO.C,S17*%
X303920000Y-156000000D03*
D12*
X305190000Y-153460000D03*
D13*
X309000000Y-156000000D03*
D12*
X311540000Y-150920000D03*
D11*
X314080000Y-156000000D03*
%TD*%
%TO.C,S8*%
X341920000Y-162000000D03*
D12*
X343190000Y-159460000D03*
D13*
X347000000Y-162000000D03*
D12*
X349540000Y-156920000D03*
D11*
X352080000Y-162000000D03*
%TD*%
%TO.C,S31*%
X246920000Y-181000000D03*
D12*
X248190000Y-178460000D03*
D13*
X252000000Y-181000000D03*
D12*
X254540000Y-175920000D03*
D11*
X257080000Y-181000000D03*
%TD*%
%TO.C,S32*%
X246920000Y-162000000D03*
D12*
X248190000Y-159460000D03*
D13*
X252000000Y-162000000D03*
D12*
X254540000Y-156920000D03*
D11*
X257080000Y-162000000D03*
%TD*%
D14*
%TO.C,D34*%
X248190000Y-129000000D03*
D15*
X250350000Y-129000000D03*
X253650000Y-129000000D03*
D16*
X255810000Y-129000000D03*
%TD*%
D14*
%TO.C,D29*%
X267190000Y-123000000D03*
D15*
X269350000Y-123000000D03*
X272650000Y-123000000D03*
D16*
X274810000Y-123000000D03*
%TD*%
D11*
%TO.C,S30*%
X265920000Y-99000000D03*
D12*
X267190000Y-96460000D03*
D13*
X271000000Y-99000000D03*
D12*
X273540000Y-93920000D03*
D11*
X276080000Y-99000000D03*
%TD*%
D14*
%TO.C,D17*%
X305190000Y-161000000D03*
D15*
X307350000Y-161000000D03*
X310650000Y-161000000D03*
D16*
X312810000Y-161000000D03*
%TD*%
D14*
%TO.C,D23*%
X286190000Y-137000000D03*
D15*
X288350000Y-137000000D03*
X291650000Y-137000000D03*
D16*
X293810000Y-137000000D03*
%TD*%
D14*
%TO.C,D4*%
X362190000Y-148000000D03*
D15*
X364350000Y-148000000D03*
X367650000Y-148000000D03*
D16*
X369810000Y-148000000D03*
%TD*%
D11*
%TO.C,S34*%
X246920000Y-124000000D03*
D12*
X248190000Y-121460000D03*
D13*
X252000000Y-124000000D03*
D12*
X254540000Y-118920000D03*
D11*
X257080000Y-124000000D03*
%TD*%
D14*
%TO.C,D19*%
X305190000Y-123000000D03*
D15*
X307350000Y-123000000D03*
X310650000Y-123000000D03*
D16*
X312810000Y-123000000D03*
%TD*%
D11*
%TO.C,S18*%
X303920000Y-137000000D03*
D12*
X305190000Y-134460000D03*
D13*
X309000000Y-137000000D03*
D12*
X311540000Y-131920000D03*
D11*
X314080000Y-137000000D03*
%TD*%
D20*
%TO.C,JST1*%
X252000000Y-172500000D03*
D21*
X252000000Y-170500000D03*
%TD*%
D14*
%TO.C,D24*%
X286190000Y-118000000D03*
D15*
X288350000Y-118000000D03*
X291650000Y-118000000D03*
D16*
X293810000Y-118000000D03*
%TD*%
D14*
%TO.C,D31*%
X248190000Y-186000000D03*
D15*
X250350000Y-186000000D03*
X253650000Y-186000000D03*
D16*
X255810000Y-186000000D03*
%TD*%
D14*
%TO.C,D6*%
X343190000Y-205000000D03*
D15*
X345350000Y-205000000D03*
X348650000Y-205000000D03*
D16*
X350810000Y-205000000D03*
%TD*%
D11*
%TO.C,S2*%
X360920000Y-181000000D03*
D12*
X362190000Y-178460000D03*
D13*
X366000000Y-181000000D03*
D12*
X368540000Y-175920000D03*
D11*
X371080000Y-181000000D03*
%TD*%
%TO.C,S28*%
X265920000Y-137000000D03*
D12*
X267190000Y-134460000D03*
D13*
X271000000Y-137000000D03*
D12*
X273540000Y-131920000D03*
D11*
X276080000Y-137000000D03*
%TD*%
%TO.C,S25*%
X284920000Y-94000000D03*
D12*
X286190000Y-91460000D03*
D13*
X290000000Y-94000000D03*
D12*
X292540000Y-88920000D03*
D11*
X295080000Y-94000000D03*
%TD*%
%TO.C,S9*%
X341920000Y-143000000D03*
D12*
X343190000Y-140460000D03*
D13*
X347000000Y-143000000D03*
D12*
X349540000Y-137920000D03*
D11*
X352080000Y-143000000D03*
%TD*%
D14*
%TO.C,D12*%
X324190000Y-183000000D03*
D15*
X326350000Y-183000000D03*
X329650000Y-183000000D03*
D16*
X331810000Y-183000000D03*
%TD*%
D14*
%TO.C,D30*%
X267190000Y-104000000D03*
D15*
X269350000Y-104000000D03*
X272650000Y-104000000D03*
D16*
X274810000Y-104000000D03*
%TD*%
D14*
%TO.C,D8*%
X343190000Y-167000000D03*
D15*
X345350000Y-167000000D03*
X348650000Y-167000000D03*
D16*
X350810000Y-167000000D03*
%TD*%
D11*
%TO.C,S23*%
X284920000Y-132000000D03*
D12*
X286190000Y-129460000D03*
D13*
X290000000Y-132000000D03*
D12*
X292540000Y-126920000D03*
D11*
X295080000Y-132000000D03*
%TD*%
D18*
%TO.C,*%
X299500000Y-141500000D03*
%TD*%
%TO.C,*%
X356500000Y-190500000D03*
%TD*%
D14*
%TO.C,D35*%
X248190000Y-110000000D03*
D15*
X250350000Y-110000000D03*
X253650000Y-110000000D03*
D16*
X255810000Y-110000000D03*
%TD*%
D14*
%TO.C,D14*%
X324190000Y-145000000D03*
D15*
X326350000Y-145000000D03*
X329650000Y-145000000D03*
D16*
X331810000Y-145000000D03*
%TD*%
D14*
%TO.C,D18*%
X305190000Y-142000000D03*
D15*
X307350000Y-142000000D03*
X310650000Y-142000000D03*
D16*
X312810000Y-142000000D03*
%TD*%
D14*
%TO.C,D16*%
X305190000Y-180000000D03*
D15*
X307350000Y-180000000D03*
X310650000Y-180000000D03*
D16*
X312810000Y-180000000D03*
%TD*%
D18*
%TO.C,*%
X280500000Y-103500000D03*
%TD*%
D14*
%TO.C,D20*%
X305190000Y-104000000D03*
D15*
X307350000Y-104000000D03*
X310650000Y-104000000D03*
D16*
X312810000Y-104000000D03*
%TD*%
D11*
%TO.C,S19*%
X303920000Y-118000000D03*
D12*
X305190000Y-115460000D03*
D13*
X309000000Y-118000000D03*
D12*
X311540000Y-112920000D03*
D11*
X314080000Y-118000000D03*
%TD*%
%TO.C,S5*%
X360920000Y-124000000D03*
D12*
X362190000Y-121460000D03*
D13*
X366000000Y-124000000D03*
D12*
X368540000Y-118920000D03*
D11*
X371080000Y-124000000D03*
%TD*%
M02*
