%TF.GenerationSoftware,KiCad,Pcbnew,10.0.1*%
%TF.CreationDate,2026-05-01T16:44:22-04:00*%
%TF.ProjectId,right_final,72696768-745f-4666-996e-616c2e6b6963,v1.0.0*%
%TF.SameCoordinates,Original*%
%TF.FileFunction,Copper,L2,Bot*%
%TF.FilePolarity,Positive*%
%FSLAX46Y46*%
G04 Gerber Fmt 4.6, Leading zero omitted, Abs format (unit mm)*
G04 Created by KiCad (PCBNEW 10.0.1) date 2026-05-01 16:44:22*
%MOMM*%
%LPD*%
G01*
G04 APERTURE LIST*
%TA.AperFunction,SMDPad,CuDef*%
%ADD10R,0.900000X0.900000*%
%TD*%
%TA.AperFunction,WasherPad*%
%ADD11C,1.000000*%
%TD*%
%TA.AperFunction,SMDPad,CuDef*%
%ADD12R,1.250000X0.900000*%
%TD*%
%TA.AperFunction,SMDPad,CuDef*%
%ADD13R,2.550000X2.500000*%
%TD*%
%TA.AperFunction,ComponentPad*%
%ADD14R,1.778000X1.778000*%
%TD*%
%TA.AperFunction,SMDPad,CuDef*%
%ADD15R,0.900000X1.200000*%
%TD*%
%TA.AperFunction,ComponentPad*%
%ADD16C,1.905000*%
%TD*%
%TA.AperFunction,ComponentPad*%
%ADD17C,1.752600*%
%TD*%
%TA.AperFunction,SMDPad,CuDef*%
%ADD18R,1.000000X1.550000*%
%TD*%
%TA.AperFunction,ComponentPad*%
%ADD19R,1.700000X1.200000*%
%TD*%
%TA.AperFunction,ComponentPad*%
%ADD20O,1.700000X1.200000*%
%TD*%
%TA.AperFunction,Conductor*%
%ADD21C,0.250000*%
%TD*%
G04 APERTURE END LIST*
D10*
%TO.P,T1,*%
%TO.N,*%
X242100000Y-171700000D03*
X244300000Y-171700000D03*
D11*
X243200000Y-169500000D03*
X243200000Y-166500000D03*
D10*
X242100000Y-164300000D03*
X244300000Y-164300000D03*
D12*
%TO.P,T1,1*%
%TO.N,pos*%
X245275000Y-170250000D03*
%TO.P,T1,2*%
%TO.N,RAW*%
X245275000Y-167250000D03*
%TO.P,T1,3*%
%TO.N,N/C*%
X245275000Y-165750000D03*
%TD*%
D13*
%TO.P,S24,1*%
%TO.N,P022*%
X282915000Y-110460000D03*
%TO.P,S24,2*%
%TO.N,mirror_middle_top*%
X295842000Y-107920000D03*
%TD*%
D14*
%TO.P,D28,1*%
%TO.N,P002*%
X267190000Y-142000000D03*
D15*
X269350000Y-142000000D03*
%TO.P,D28,2*%
%TO.N,mirror_index_home*%
X272650000Y-142000000D03*
D16*
X274810000Y-142000000D03*
%TD*%
D13*
%TO.P,S27,1*%
%TO.N,P020*%
X263915000Y-153460000D03*
%TO.P,S27,2*%
%TO.N,mirror_index_bottom*%
X276842000Y-150920000D03*
%TD*%
%TO.P,S33,1*%
%TO.N,P017*%
X244915000Y-140460000D03*
%TO.P,S33,2*%
%TO.N,mirror_inner_home*%
X257842000Y-137920000D03*
%TD*%
%TO.P,S21,1*%
%TO.N,P022*%
X282915000Y-167460000D03*
%TO.P,S21,2*%
%TO.N,mirror_middle_space*%
X295842000Y-164920000D03*
%TD*%
%TO.P,S11,1*%
%TO.N,P100*%
X320915000Y-194460000D03*
%TO.P,S11,2*%
%TO.N,mirror_pinky_space*%
X333842000Y-191920000D03*
%TD*%
D14*
%TO.P,D13,1*%
%TO.N,P002*%
X324190000Y-164000000D03*
D15*
X326350000Y-164000000D03*
%TO.P,D13,2*%
%TO.N,mirror_pinky_home*%
X329650000Y-164000000D03*
D16*
X331810000Y-164000000D03*
%TD*%
D13*
%TO.P,S12,1*%
%TO.N,P100*%
X320915000Y-175460000D03*
%TO.P,S12,2*%
%TO.N,mirror_pinky_bottom*%
X333842000Y-172920000D03*
%TD*%
D17*
%TO.P,MCU1,1*%
%TO.N,P006*%
X247530000Y-207620000D03*
%TO.P,MCU1,2*%
%TO.N,P008*%
X250070000Y-207620000D03*
%TO.P,MCU1,3*%
%TO.N,GND*%
X252610000Y-207620000D03*
%TO.P,MCU1,4*%
X255150000Y-207620000D03*
%TO.P,MCU1,5*%
%TO.N,P017*%
X257690000Y-207620000D03*
%TO.P,MCU1,6*%
%TO.N,P020*%
X260230000Y-207620000D03*
%TO.P,MCU1,7*%
%TO.N,P022*%
X262770000Y-207620000D03*
%TO.P,MCU1,8*%
%TO.N,P024*%
X265310000Y-207620000D03*
%TO.P,MCU1,9*%
%TO.N,P100*%
X267850000Y-207620000D03*
%TO.P,MCU1,10*%
%TO.N,P011*%
X270390000Y-207620000D03*
%TO.P,MCU1,11*%
%TO.N,P104*%
X272930000Y-207620000D03*
%TO.P,MCU1,12*%
%TO.N,P106*%
X275470000Y-207620000D03*
%TO.P,MCU1,13*%
%TO.N,P009*%
X275470000Y-192380000D03*
%TO.P,MCU1,14*%
%TO.N,P010*%
X272930000Y-192380000D03*
%TO.P,MCU1,15*%
%TO.N,P111*%
X270390000Y-192380000D03*
%TO.P,MCU1,16*%
%TO.N,P113*%
X267850000Y-192380000D03*
%TO.P,MCU1,17*%
%TO.N,P115*%
X265310000Y-192380000D03*
%TO.P,MCU1,18*%
%TO.N,P002*%
X262770000Y-192380000D03*
%TO.P,MCU1,19*%
%TO.N,P029*%
X260230000Y-192380000D03*
%TO.P,MCU1,20*%
%TO.N,P031*%
X257690000Y-192380000D03*
%TO.P,MCU1,21*%
%TO.N,VCC*%
X255150000Y-192380000D03*
%TO.P,MCU1,22*%
%TO.N,RST*%
X252610000Y-192380000D03*
%TO.P,MCU1,23*%
%TO.N,GND*%
X250070000Y-192380000D03*
%TO.P,MCU1,24*%
%TO.N,RAW*%
X247530000Y-192380000D03*
%TO.P,MCU1,31*%
%TO.N,P101*%
X270390000Y-205080000D03*
%TO.P,MCU1,32*%
%TO.N,P102*%
X270390000Y-202540000D03*
%TO.P,MCU1,33*%
%TO.N,P107*%
X270390000Y-200000000D03*
%TD*%
D14*
%TO.P,D1,1*%
%TO.N,P031*%
X362190000Y-205000000D03*
D15*
X364350000Y-205000000D03*
%TO.P,D1,2*%
%TO.N,mirror_macro_space*%
X367650000Y-205000000D03*
D16*
X369810000Y-205000000D03*
%TD*%
D14*
%TO.P,D33,1*%
%TO.N,P002*%
X248190000Y-148000000D03*
D15*
X250350000Y-148000000D03*
%TO.P,D33,2*%
%TO.N,mirror_inner_home*%
X253650000Y-148000000D03*
D16*
X255810000Y-148000000D03*
%TD*%
D14*
%TO.P,D26,1*%
%TO.N,P031*%
X267190000Y-180000000D03*
D15*
X269350000Y-180000000D03*
%TO.P,D26,2*%
%TO.N,mirror_index_space*%
X272650000Y-180000000D03*
D16*
X274810000Y-180000000D03*
%TD*%
D13*
%TO.P,S35,1*%
%TO.N,P017*%
X244915000Y-102460000D03*
%TO.P,S35,2*%
%TO.N,mirror_inner_num*%
X257842000Y-99920000D03*
%TD*%
%TO.P,S4,1*%
%TO.N,P104*%
X358915000Y-140460000D03*
%TO.P,S4,2*%
%TO.N,mirror_macro_top*%
X371842000Y-137920000D03*
%TD*%
%TO.P,S20,1*%
%TO.N,P024*%
X301915000Y-96460000D03*
%TO.P,S20,2*%
%TO.N,mirror_ring_num*%
X314842000Y-93920000D03*
%TD*%
D14*
%TO.P,D15,1*%
%TO.N,P113*%
X324190000Y-126000000D03*
D15*
X326350000Y-126000000D03*
%TO.P,D15,2*%
%TO.N,mirror_pinky_num*%
X329650000Y-126000000D03*
D16*
X331810000Y-126000000D03*
%TD*%
D13*
%TO.P,S6,1*%
%TO.N,P011*%
X339915000Y-197460000D03*
%TO.P,S6,2*%
%TO.N,mirror_outer_space*%
X352842000Y-194920000D03*
%TD*%
%TO.P,S26,1*%
%TO.N,P020*%
X263915000Y-172460000D03*
%TO.P,S26,2*%
%TO.N,mirror_index_space*%
X276842000Y-169920000D03*
%TD*%
D18*
%TO.P,B1,1*%
%TO.N,GND*%
X242150000Y-186625000D03*
X242150000Y-181375000D03*
%TO.P,B1,2*%
%TO.N,RST*%
X243850000Y-186625000D03*
X243850000Y-181375000D03*
%TD*%
D14*
%TO.P,D3,1*%
%TO.N,P002*%
X362190000Y-167000000D03*
D15*
X364350000Y-167000000D03*
%TO.P,D3,2*%
%TO.N,mirror_macro_home*%
X367650000Y-167000000D03*
D16*
X369810000Y-167000000D03*
%TD*%
D14*
%TO.P,D22,1*%
%TO.N,P029*%
X286190000Y-156000000D03*
D15*
X288350000Y-156000000D03*
%TO.P,D22,2*%
%TO.N,mirror_middle_bottom*%
X291650000Y-156000000D03*
D16*
X293810000Y-156000000D03*
%TD*%
D14*
%TO.P,D11,1*%
%TO.N,P031*%
X324190000Y-202000000D03*
D15*
X326350000Y-202000000D03*
%TO.P,D11,2*%
%TO.N,mirror_pinky_space*%
X329650000Y-202000000D03*
D16*
X331810000Y-202000000D03*
%TD*%
D13*
%TO.P,S16,1*%
%TO.N,P024*%
X301915000Y-172460000D03*
%TO.P,S16,2*%
%TO.N,mirror_ring_space*%
X314842000Y-169920000D03*
%TD*%
%TO.P,S14,1*%
%TO.N,P100*%
X320915000Y-137460000D03*
%TO.P,S14,2*%
%TO.N,mirror_pinky_top*%
X333842000Y-134920000D03*
%TD*%
D14*
%TO.P,D25,1*%
%TO.N,P113*%
X286190000Y-99000000D03*
D15*
X288350000Y-99000000D03*
%TO.P,D25,2*%
%TO.N,mirror_middle_num*%
X291650000Y-99000000D03*
D16*
X293810000Y-99000000D03*
%TD*%
D13*
%TO.P,S3,1*%
%TO.N,P104*%
X358915000Y-159460000D03*
%TO.P,S3,2*%
%TO.N,mirror_macro_home*%
X371842000Y-156920000D03*
%TD*%
D14*
%TO.P,D10,1*%
%TO.N,P113*%
X343190000Y-129000000D03*
D15*
X345350000Y-129000000D03*
%TO.P,D10,2*%
%TO.N,mirror_outer_num*%
X348650000Y-129000000D03*
D16*
X350810000Y-129000000D03*
%TD*%
D13*
%TO.P,S13,1*%
%TO.N,P100*%
X320915000Y-156460000D03*
%TO.P,S13,2*%
%TO.N,mirror_pinky_home*%
X333842000Y-153920000D03*
%TD*%
D14*
%TO.P,D7,1*%
%TO.N,P029*%
X343190000Y-186000000D03*
D15*
X345350000Y-186000000D03*
%TO.P,D7,2*%
%TO.N,mirror_outer_bottom*%
X348650000Y-186000000D03*
D16*
X350810000Y-186000000D03*
%TD*%
D13*
%TO.P,S1,1*%
%TO.N,P104*%
X358915000Y-197460000D03*
%TO.P,S1,2*%
%TO.N,mirror_macro_space*%
X371842000Y-194920000D03*
%TD*%
D14*
%TO.P,D9,1*%
%TO.N,P115*%
X343190000Y-148000000D03*
D15*
X345350000Y-148000000D03*
%TO.P,D9,2*%
%TO.N,mirror_outer_top*%
X348650000Y-148000000D03*
D16*
X350810000Y-148000000D03*
%TD*%
D14*
%TO.P,D21,1*%
%TO.N,P031*%
X286190000Y-175000000D03*
D15*
X288350000Y-175000000D03*
%TO.P,D21,2*%
%TO.N,mirror_middle_space*%
X291650000Y-175000000D03*
D16*
X293810000Y-175000000D03*
%TD*%
D14*
%TO.P,D27,1*%
%TO.N,P029*%
X267190000Y-161000000D03*
D15*
X269350000Y-161000000D03*
%TO.P,D27,2*%
%TO.N,mirror_index_bottom*%
X272650000Y-161000000D03*
D16*
X274810000Y-161000000D03*
%TD*%
D13*
%TO.P,S10,1*%
%TO.N,P011*%
X339915000Y-121460000D03*
%TO.P,S10,2*%
%TO.N,mirror_outer_num*%
X352842000Y-118920000D03*
%TD*%
D14*
%TO.P,D32,1*%
%TO.N,P029*%
X248190000Y-167000000D03*
D15*
X250350000Y-167000000D03*
%TO.P,D32,2*%
%TO.N,mirror_inner_bottom*%
X253650000Y-167000000D03*
D16*
X255810000Y-167000000D03*
%TD*%
D13*
%TO.P,S29,1*%
%TO.N,P020*%
X263915000Y-115460000D03*
%TO.P,S29,2*%
%TO.N,mirror_index_top*%
X276842000Y-112920000D03*
%TD*%
D14*
%TO.P,D5,1*%
%TO.N,P113*%
X362190000Y-129000000D03*
D15*
X364350000Y-129000000D03*
%TO.P,D5,2*%
%TO.N,mirror_macro_num*%
X367650000Y-129000000D03*
D16*
X369810000Y-129000000D03*
%TD*%
D13*
%TO.P,S15,1*%
%TO.N,P100*%
X320915000Y-118460000D03*
%TO.P,S15,2*%
%TO.N,mirror_pinky_num*%
X333842000Y-115920000D03*
%TD*%
%TO.P,S22,1*%
%TO.N,P022*%
X282915000Y-148460000D03*
%TO.P,S22,2*%
%TO.N,mirror_middle_bottom*%
X295842000Y-145920000D03*
%TD*%
D14*
%TO.P,D2,1*%
%TO.N,P029*%
X362190000Y-186000000D03*
D15*
X364350000Y-186000000D03*
%TO.P,D2,2*%
%TO.N,mirror_macro_bottom*%
X367650000Y-186000000D03*
D16*
X369810000Y-186000000D03*
%TD*%
D13*
%TO.P,S7,1*%
%TO.N,P011*%
X339915000Y-178460000D03*
%TO.P,S7,2*%
%TO.N,mirror_outer_bottom*%
X352842000Y-175920000D03*
%TD*%
%TO.P,S17,1*%
%TO.N,P024*%
X301915000Y-153460000D03*
%TO.P,S17,2*%
%TO.N,mirror_ring_bottom*%
X314842000Y-150920000D03*
%TD*%
%TO.P,S8,1*%
%TO.N,P011*%
X339915000Y-159460000D03*
%TO.P,S8,2*%
%TO.N,mirror_outer_home*%
X352842000Y-156920000D03*
%TD*%
%TO.P,S31,1*%
%TO.N,P017*%
X244915000Y-178460000D03*
%TO.P,S31,2*%
%TO.N,mirror_inner_space*%
X257842000Y-175920000D03*
%TD*%
%TO.P,S32,1*%
%TO.N,P017*%
X244915000Y-159460000D03*
%TO.P,S32,2*%
%TO.N,mirror_inner_bottom*%
X257842000Y-156920000D03*
%TD*%
D14*
%TO.P,D34,1*%
%TO.N,P115*%
X248190000Y-129000000D03*
D15*
X250350000Y-129000000D03*
%TO.P,D34,2*%
%TO.N,mirror_inner_top*%
X253650000Y-129000000D03*
D16*
X255810000Y-129000000D03*
%TD*%
D14*
%TO.P,D29,1*%
%TO.N,P115*%
X267190000Y-123000000D03*
D15*
X269350000Y-123000000D03*
%TO.P,D29,2*%
%TO.N,mirror_index_top*%
X272650000Y-123000000D03*
D16*
X274810000Y-123000000D03*
%TD*%
D13*
%TO.P,S30,1*%
%TO.N,P020*%
X263915000Y-96460000D03*
%TO.P,S30,2*%
%TO.N,mirror_index_num*%
X276842000Y-93920000D03*
%TD*%
D14*
%TO.P,D17,1*%
%TO.N,P029*%
X305190000Y-161000000D03*
D15*
X307350000Y-161000000D03*
%TO.P,D17,2*%
%TO.N,mirror_ring_bottom*%
X310650000Y-161000000D03*
D16*
X312810000Y-161000000D03*
%TD*%
D14*
%TO.P,D23,1*%
%TO.N,P002*%
X286190000Y-137000000D03*
D15*
X288350000Y-137000000D03*
%TO.P,D23,2*%
%TO.N,mirror_middle_home*%
X291650000Y-137000000D03*
D16*
X293810000Y-137000000D03*
%TD*%
D14*
%TO.P,D4,1*%
%TO.N,P115*%
X362190000Y-148000000D03*
D15*
X364350000Y-148000000D03*
%TO.P,D4,2*%
%TO.N,mirror_macro_top*%
X367650000Y-148000000D03*
D16*
X369810000Y-148000000D03*
%TD*%
D13*
%TO.P,S34,1*%
%TO.N,P017*%
X244915000Y-121460000D03*
%TO.P,S34,2*%
%TO.N,mirror_inner_top*%
X257842000Y-118920000D03*
%TD*%
D14*
%TO.P,D19,1*%
%TO.N,P115*%
X305190000Y-123000000D03*
D15*
X307350000Y-123000000D03*
%TO.P,D19,2*%
%TO.N,mirror_ring_top*%
X310650000Y-123000000D03*
D16*
X312810000Y-123000000D03*
%TD*%
D13*
%TO.P,S18,1*%
%TO.N,P024*%
X301915000Y-134460000D03*
%TO.P,S18,2*%
%TO.N,mirror_ring_home*%
X314842000Y-131920000D03*
%TD*%
D19*
%TO.P,JST1,1*%
%TO.N,pos*%
X252000000Y-172500000D03*
D20*
%TO.P,JST1,2*%
%TO.N,GND*%
X252000000Y-170500000D03*
%TD*%
D14*
%TO.P,D24,1*%
%TO.N,P115*%
X286190000Y-118000000D03*
D15*
X288350000Y-118000000D03*
%TO.P,D24,2*%
%TO.N,mirror_middle_top*%
X291650000Y-118000000D03*
D16*
X293810000Y-118000000D03*
%TD*%
D14*
%TO.P,D31,1*%
%TO.N,P031*%
X248190000Y-186000000D03*
D15*
X250350000Y-186000000D03*
%TO.P,D31,2*%
%TO.N,mirror_inner_space*%
X253650000Y-186000000D03*
D16*
X255810000Y-186000000D03*
%TD*%
D14*
%TO.P,D6,1*%
%TO.N,P031*%
X343190000Y-205000000D03*
D15*
X345350000Y-205000000D03*
%TO.P,D6,2*%
%TO.N,mirror_outer_space*%
X348650000Y-205000000D03*
D16*
X350810000Y-205000000D03*
%TD*%
D13*
%TO.P,S2,1*%
%TO.N,P104*%
X358915000Y-178460000D03*
%TO.P,S2,2*%
%TO.N,mirror_macro_bottom*%
X371842000Y-175920000D03*
%TD*%
%TO.P,S28,1*%
%TO.N,P020*%
X263915000Y-134460000D03*
%TO.P,S28,2*%
%TO.N,mirror_index_home*%
X276842000Y-131920000D03*
%TD*%
%TO.P,S25,1*%
%TO.N,P022*%
X282915000Y-91460000D03*
%TO.P,S25,2*%
%TO.N,mirror_middle_num*%
X295842000Y-88920000D03*
%TD*%
%TO.P,S9,1*%
%TO.N,P011*%
X339915000Y-140460000D03*
%TO.P,S9,2*%
%TO.N,mirror_outer_top*%
X352842000Y-137920000D03*
%TD*%
D14*
%TO.P,D12,1*%
%TO.N,P029*%
X324190000Y-183000000D03*
D15*
X326350000Y-183000000D03*
%TO.P,D12,2*%
%TO.N,mirror_pinky_bottom*%
X329650000Y-183000000D03*
D16*
X331810000Y-183000000D03*
%TD*%
D14*
%TO.P,D30,1*%
%TO.N,P113*%
X267190000Y-104000000D03*
D15*
X269350000Y-104000000D03*
%TO.P,D30,2*%
%TO.N,mirror_index_num*%
X272650000Y-104000000D03*
D16*
X274810000Y-104000000D03*
%TD*%
D14*
%TO.P,D8,1*%
%TO.N,P002*%
X343190000Y-167000000D03*
D15*
X345350000Y-167000000D03*
%TO.P,D8,2*%
%TO.N,mirror_outer_home*%
X348650000Y-167000000D03*
D16*
X350810000Y-167000000D03*
%TD*%
D13*
%TO.P,S23,1*%
%TO.N,P022*%
X282915000Y-129460000D03*
%TO.P,S23,2*%
%TO.N,mirror_middle_home*%
X295842000Y-126920000D03*
%TD*%
D14*
%TO.P,D35,1*%
%TO.N,P113*%
X248190000Y-110000000D03*
D15*
X250350000Y-110000000D03*
%TO.P,D35,2*%
%TO.N,mirror_inner_num*%
X253650000Y-110000000D03*
D16*
X255810000Y-110000000D03*
%TD*%
D14*
%TO.P,D14,1*%
%TO.N,P115*%
X324190000Y-145000000D03*
D15*
X326350000Y-145000000D03*
%TO.P,D14,2*%
%TO.N,mirror_pinky_top*%
X329650000Y-145000000D03*
D16*
X331810000Y-145000000D03*
%TD*%
D14*
%TO.P,D18,1*%
%TO.N,P002*%
X305190000Y-142000000D03*
D15*
X307350000Y-142000000D03*
%TO.P,D18,2*%
%TO.N,mirror_ring_home*%
X310650000Y-142000000D03*
D16*
X312810000Y-142000000D03*
%TD*%
D14*
%TO.P,D16,1*%
%TO.N,P031*%
X305190000Y-180000000D03*
D15*
X307350000Y-180000000D03*
%TO.P,D16,2*%
%TO.N,mirror_ring_space*%
X310650000Y-180000000D03*
D16*
X312810000Y-180000000D03*
%TD*%
D14*
%TO.P,D20,1*%
%TO.N,P113*%
X305190000Y-104000000D03*
D15*
X307350000Y-104000000D03*
%TO.P,D20,2*%
%TO.N,mirror_ring_num*%
X310650000Y-104000000D03*
D16*
X312810000Y-104000000D03*
%TD*%
D13*
%TO.P,S19,1*%
%TO.N,P024*%
X301915000Y-115460000D03*
%TO.P,S19,2*%
%TO.N,mirror_ring_top*%
X314842000Y-112920000D03*
%TD*%
%TO.P,S5,1*%
%TO.N,P104*%
X358915000Y-121460000D03*
%TO.P,S5,2*%
%TO.N,mirror_macro_num*%
X371842000Y-118920000D03*
%TD*%
%TO.N,pos*%
D21*
X245950000Y-169575000D02*
X245275000Y-170250000D01*
X252000000Y-172500000D02*
X253175000Y-171325000D01*
X252633148Y-169575000D02*
X245950000Y-169575000D01*
X253175000Y-171325000D02*
X253175000Y-170116852D01*
X253175000Y-170116852D02*
X252633148Y-169575000D01*
%TO.N,RAW*%
X245275000Y-168591727D02*
X242941727Y-170925000D01*
X240875000Y-187275000D02*
X245980000Y-192380000D01*
X242941727Y-170925000D02*
X242941727Y-176621877D01*
X245275000Y-167250000D02*
X245275000Y-168591727D01*
X240875000Y-178688604D02*
X240875000Y-187275000D01*
X245980000Y-192380000D02*
X247530000Y-192380000D01*
X242941727Y-176621877D02*
X240875000Y-178688604D01*
%TO.N,P022*%
X282915000Y-91460000D02*
X282925000Y-91470000D01*
X282915000Y-148460000D02*
X282915000Y-167460000D01*
X282915000Y-180696105D02*
X271728700Y-191882405D01*
X282915000Y-129460000D02*
X282915000Y-148460000D01*
X282915000Y-110460000D02*
X282915000Y-129460000D01*
X271728700Y-196962405D02*
X262770000Y-205921105D01*
X282925000Y-91470000D02*
X282925000Y-110450000D01*
X282915000Y-167460000D02*
X282915000Y-180696105D01*
X271728700Y-191882405D02*
X271728700Y-196962405D01*
X262770000Y-205921105D02*
X262770000Y-207620000D01*
X282925000Y-110450000D02*
X282915000Y-110460000D01*
%TO.N,mirror_middle_top*%
X295842000Y-107920000D02*
X293810000Y-109952000D01*
X291650000Y-118000000D02*
X293810000Y-118000000D01*
X293810000Y-109952000D02*
X293810000Y-118000000D01*
%TO.N,P002*%
X267190000Y-142000000D02*
X269350000Y-142000000D01*
X343190000Y-167000000D02*
X345350000Y-167000000D01*
X364350000Y-167000000D02*
X362190000Y-167000000D01*
X326350000Y-164000000D02*
X324190000Y-164000000D01*
X305190000Y-142000000D02*
X307350000Y-142000000D01*
X248190000Y-148000000D02*
X250350000Y-148000000D01*
X288350000Y-137000000D02*
X286190000Y-137000000D01*
%TO.N,mirror_index_home*%
X274810000Y-142000000D02*
X272650000Y-142000000D01*
X274810000Y-133952000D02*
X274810000Y-142000000D01*
X276842000Y-131920000D02*
X274810000Y-133952000D01*
%TO.N,P020*%
X261568700Y-190931300D02*
X261568700Y-206281300D01*
X264000000Y-172545000D02*
X264000000Y-186500000D01*
X263915000Y-134460000D02*
X263915000Y-115460000D01*
X263915000Y-172460000D02*
X263915000Y-153460000D01*
X263915000Y-115460000D02*
X263915000Y-96460000D01*
X261568700Y-206281300D02*
X260230000Y-207620000D01*
X263915000Y-172460000D02*
X264000000Y-172545000D01*
X263915000Y-134460000D02*
X263915000Y-153460000D01*
X264000000Y-186500000D02*
X262000000Y-188500000D01*
X262000000Y-188500000D02*
X262000000Y-190500000D01*
X262000000Y-190500000D02*
X261568700Y-190931300D01*
%TO.N,mirror_index_bottom*%
X276842000Y-150920000D02*
X274810000Y-152952000D01*
X274810000Y-152952000D02*
X274810000Y-161000000D01*
X272650000Y-161000000D02*
X274810000Y-161000000D01*
%TO.N,P017*%
X244915000Y-180728684D02*
X248000000Y-183813684D01*
X253625000Y-168575000D02*
X253625000Y-172975000D01*
X244915000Y-102460000D02*
X244915000Y-121460000D01*
X253811300Y-187761300D02*
X253811300Y-203741300D01*
X246790000Y-176585000D02*
X244915000Y-178460000D01*
X244915000Y-159460000D02*
X244915000Y-161728684D01*
X248000000Y-183813684D02*
X249863684Y-183813684D01*
X253811300Y-203741300D02*
X257690000Y-207620000D01*
X244915000Y-140460000D02*
X244915000Y-121460000D01*
X249550000Y-164500000D02*
X253625000Y-168575000D01*
X244915000Y-161728684D02*
X247686316Y-164500000D01*
X244915000Y-159460000D02*
X244915000Y-140460000D01*
X249863684Y-183813684D02*
X253811300Y-187761300D01*
X244915000Y-178460000D02*
X244915000Y-180728684D01*
X253625000Y-172975000D02*
X250015000Y-176585000D01*
X247686316Y-164500000D02*
X249550000Y-164500000D01*
X250015000Y-176585000D02*
X246790000Y-176585000D01*
%TO.N,mirror_inner_home*%
X255810000Y-148000000D02*
X255810000Y-139952000D01*
X253650000Y-148000000D02*
X255810000Y-148000000D01*
X255810000Y-139952000D02*
X257842000Y-137920000D01*
%TO.N,mirror_middle_space*%
X291650000Y-175000000D02*
X293810000Y-175000000D01*
X293810000Y-166952000D02*
X293810000Y-175000000D01*
X295842000Y-164920000D02*
X293810000Y-166952000D01*
%TO.N,P100*%
X320915000Y-175460000D02*
X320915000Y-194460000D01*
X276382645Y-198882646D02*
X276382645Y-200786250D01*
X320915000Y-194460000D02*
X280805291Y-194460000D01*
X280805291Y-194460000D02*
X276382645Y-198882646D01*
X270887595Y-206281300D02*
X269188700Y-206281300D01*
X320915000Y-137460000D02*
X320915000Y-156460000D01*
X320915000Y-118460000D02*
X320915000Y-137460000D01*
X320915000Y-156460000D02*
X320915000Y-175460000D01*
X269188700Y-206281300D02*
X267850000Y-207620000D01*
X276382645Y-200786250D02*
X270887595Y-206281300D01*
%TO.N,mirror_pinky_space*%
X331810000Y-202000000D02*
X329650000Y-202000000D01*
X331810000Y-193952000D02*
X333842000Y-191920000D01*
X331810000Y-202000000D02*
X331810000Y-193952000D01*
%TO.N,mirror_pinky_home*%
X331810000Y-155952000D02*
X331810000Y-164000000D01*
X329650000Y-164000000D02*
X331810000Y-164000000D01*
X333842000Y-153920000D02*
X331810000Y-155952000D01*
%TO.N,mirror_pinky_bottom*%
X329650000Y-183000000D02*
X331810000Y-183000000D01*
X331810000Y-174952000D02*
X331810000Y-183000000D01*
X333842000Y-172920000D02*
X331810000Y-174952000D01*
%TO.N,GND*%
X242150000Y-181375000D02*
X242150000Y-178050000D01*
X255150000Y-207620000D02*
X252610000Y-207620000D01*
X250070000Y-192380000D02*
X245415000Y-187725000D01*
X243025000Y-187725000D02*
X242150000Y-186850000D01*
X242375000Y-181600000D02*
X242375000Y-186400000D01*
X245415000Y-187725000D02*
X243025000Y-187725000D01*
X250070000Y-205080000D02*
X252610000Y-207620000D01*
X242150000Y-178050000D02*
X249700000Y-170500000D01*
X249700000Y-170500000D02*
X252000000Y-170500000D01*
X242150000Y-186850000D02*
X242150000Y-186625000D01*
X242375000Y-186400000D02*
X242150000Y-186625000D01*
X242150000Y-181375000D02*
X242375000Y-181600000D01*
X250070000Y-192380000D02*
X250070000Y-205080000D01*
%TO.N,P024*%
X301915000Y-96460000D02*
X301915000Y-115460000D01*
X301925000Y-134470000D02*
X301915000Y-134460000D01*
X301915000Y-172460000D02*
X301915000Y-172713895D01*
X301915000Y-153460000D02*
X301915000Y-172460000D01*
X301915000Y-134460000D02*
X301915000Y-115460000D01*
X301925000Y-153450000D02*
X301925000Y-134470000D01*
X301915000Y-153460000D02*
X301925000Y-153450000D01*
X269188700Y-203741300D02*
X265310000Y-207620000D01*
X270887595Y-203741300D02*
X269188700Y-203741300D01*
X301915000Y-172713895D02*
X270887595Y-203741300D01*
%TO.N,P011*%
X332339158Y-203277500D02*
X338156658Y-197460000D01*
X313910000Y-194910000D02*
X322277500Y-203277500D01*
X339915000Y-159460000D02*
X339915000Y-140460000D01*
X339915000Y-197460000D02*
X339915000Y-178460000D01*
X338156658Y-197460000D02*
X339915000Y-197460000D01*
X339915000Y-178460000D02*
X339915000Y-159460000D01*
X322277500Y-203277500D02*
X332339158Y-203277500D01*
X270390000Y-207620000D02*
X283100000Y-194910000D01*
X339915000Y-140460000D02*
X339915000Y-121460000D01*
X283100000Y-194910000D02*
X313910000Y-194910000D01*
%TO.N,P104*%
X358925000Y-197450000D02*
X358915000Y-197460000D01*
X313723604Y-195360000D02*
X324641104Y-206277500D01*
X358925000Y-178470000D02*
X358925000Y-197450000D01*
X285190000Y-195360000D02*
X313723604Y-195360000D01*
X358925000Y-121470000D02*
X358925000Y-140450000D01*
X358915000Y-178460000D02*
X358925000Y-178470000D01*
X358915000Y-159460000D02*
X358915000Y-178460000D01*
X324641104Y-206277500D02*
X351597500Y-206277500D01*
X358925000Y-140450000D02*
X358915000Y-140460000D01*
X358915000Y-198960000D02*
X358915000Y-197460000D01*
X358915000Y-121460000D02*
X358925000Y-121470000D01*
X358915000Y-140460000D02*
X358915000Y-159460000D01*
X351597500Y-206277500D02*
X358915000Y-198960000D01*
X272930000Y-207620000D02*
X285190000Y-195360000D01*
%TO.N,P113*%
X343190000Y-129000000D02*
X345350000Y-129000000D01*
X362190000Y-129000000D02*
X364350000Y-129000000D01*
X324190000Y-126000000D02*
X326350000Y-126000000D01*
X267190000Y-104000000D02*
X269350000Y-104000000D01*
X305190000Y-104000000D02*
X307350000Y-104000000D01*
X248190000Y-110000000D02*
X250350000Y-110000000D01*
X286190000Y-99000000D02*
X288350000Y-99000000D01*
%TO.N,P115*%
X326350000Y-145000000D02*
X324190000Y-145000000D01*
X305190000Y-123000000D02*
X307350000Y-123000000D01*
X286190000Y-118000000D02*
X288350000Y-118000000D01*
X364350000Y-148000000D02*
X362190000Y-148000000D01*
X343190000Y-148000000D02*
X345350000Y-148000000D01*
X267190000Y-123000000D02*
X269350000Y-123000000D01*
X250350000Y-129000000D02*
X248190000Y-129000000D01*
%TO.N,P029*%
X326350000Y-183000000D02*
X324190000Y-183000000D01*
X305190000Y-161000000D02*
X307350000Y-161000000D01*
X288350000Y-156000000D02*
X286190000Y-156000000D01*
X364350000Y-186000000D02*
X362190000Y-186000000D01*
X248190000Y-167000000D02*
X250350000Y-167000000D01*
X267190000Y-161000000D02*
X269350000Y-161000000D01*
X343190000Y-186000000D02*
X345350000Y-186000000D01*
%TO.N,P031*%
X345350000Y-205000000D02*
X343190000Y-205000000D01*
X362190000Y-205000000D02*
X364350000Y-205000000D01*
X267190000Y-180000000D02*
X269350000Y-180000000D01*
X286190000Y-175000000D02*
X288350000Y-175000000D01*
X248190000Y-186000000D02*
X250350000Y-186000000D01*
X326350000Y-202000000D02*
X324190000Y-202000000D01*
X305190000Y-180000000D02*
X307350000Y-180000000D01*
%TO.N,RST*%
X243625000Y-181600000D02*
X243625000Y-186400000D01*
X243850000Y-181375000D02*
X243625000Y-181600000D01*
X243625000Y-186400000D02*
X243850000Y-186625000D01*
X244500000Y-187275000D02*
X247505000Y-187275000D01*
X243850000Y-186625000D02*
X244500000Y-187275000D01*
X247505000Y-187275000D02*
X252610000Y-192380000D01*
%TO.N,mirror_macro_space*%
X369810000Y-205000000D02*
X369810000Y-196952000D01*
X367650000Y-205000000D02*
X369810000Y-205000000D01*
X369810000Y-196952000D02*
X371842000Y-194920000D01*
%TO.N,mirror_index_space*%
X272650000Y-180000000D02*
X274810000Y-180000000D01*
X276842000Y-169920000D02*
X274810000Y-171952000D01*
X274810000Y-171952000D02*
X274810000Y-180000000D01*
%TO.N,mirror_inner_num*%
X255810000Y-101952000D02*
X257842000Y-99920000D01*
X255810000Y-110000000D02*
X255810000Y-101952000D01*
X253650000Y-110000000D02*
X255810000Y-110000000D01*
%TO.N,mirror_macro_top*%
X369810000Y-139952000D02*
X369810000Y-148000000D01*
X371842000Y-137920000D02*
X369810000Y-139952000D01*
X367650000Y-148000000D02*
X369810000Y-148000000D01*
%TO.N,mirror_ring_num*%
X310650000Y-104000000D02*
X312810000Y-104000000D01*
X312810000Y-95952000D02*
X312810000Y-104000000D01*
X314842000Y-93920000D02*
X312810000Y-95952000D01*
%TO.N,mirror_pinky_num*%
X331810000Y-117952000D02*
X331810000Y-126000000D01*
X333842000Y-115920000D02*
X331810000Y-117952000D01*
X329650000Y-126000000D02*
X331810000Y-126000000D01*
%TO.N,mirror_outer_space*%
X350810000Y-205000000D02*
X350810000Y-196952000D01*
X350810000Y-196952000D02*
X352842000Y-194920000D01*
X350810000Y-205000000D02*
X348650000Y-205000000D01*
%TO.N,mirror_macro_home*%
X369810000Y-158952000D02*
X369810000Y-167000000D01*
X371842000Y-156920000D02*
X369810000Y-158952000D01*
X367650000Y-167000000D02*
X369810000Y-167000000D01*
%TO.N,mirror_middle_bottom*%
X295842000Y-145920000D02*
X293810000Y-147952000D01*
X291650000Y-156000000D02*
X293810000Y-156000000D01*
X293810000Y-147952000D02*
X293810000Y-156000000D01*
%TO.N,mirror_ring_space*%
X314842000Y-169920000D02*
X312810000Y-171952000D01*
X310650000Y-180000000D02*
X312810000Y-180000000D01*
X312810000Y-171952000D02*
X312810000Y-180000000D01*
%TO.N,mirror_pinky_top*%
X329650000Y-145000000D02*
X331810000Y-145000000D01*
X333842000Y-134920000D02*
X331810000Y-136952000D01*
X331810000Y-136952000D02*
X331810000Y-145000000D01*
%TO.N,mirror_middle_num*%
X291650000Y-99000000D02*
X293810000Y-99000000D01*
X293810000Y-90952000D02*
X293810000Y-99000000D01*
X295842000Y-88920000D02*
X293810000Y-90952000D01*
%TO.N,mirror_outer_num*%
X352842000Y-118920000D02*
X350810000Y-120952000D01*
X350810000Y-120952000D02*
X350810000Y-129000000D01*
X348650000Y-129000000D02*
X350810000Y-129000000D01*
%TO.N,mirror_outer_bottom*%
X350810000Y-186000000D02*
X348650000Y-186000000D01*
X350810000Y-177952000D02*
X350810000Y-186000000D01*
X352842000Y-175920000D02*
X350810000Y-177952000D01*
%TO.N,mirror_outer_top*%
X350810000Y-139952000D02*
X352842000Y-137920000D01*
X348650000Y-148000000D02*
X350810000Y-148000000D01*
X350810000Y-148000000D02*
X350810000Y-139952000D01*
%TO.N,mirror_inner_bottom*%
X257842000Y-156920000D02*
X255810000Y-158952000D01*
X253650000Y-167000000D02*
X255810000Y-167000000D01*
X255810000Y-158952000D02*
X255810000Y-167000000D01*
%TO.N,mirror_index_top*%
X272650000Y-123000000D02*
X274810000Y-123000000D01*
X274810000Y-114952000D02*
X274810000Y-123000000D01*
X276842000Y-112920000D02*
X274810000Y-114952000D01*
%TO.N,mirror_macro_num*%
X369810000Y-120952000D02*
X369810000Y-129000000D01*
X371842000Y-118920000D02*
X369810000Y-120952000D01*
X367650000Y-129000000D02*
X369810000Y-129000000D01*
%TO.N,mirror_macro_bottom*%
X367650000Y-186000000D02*
X369810000Y-186000000D01*
X369810000Y-177952000D02*
X369810000Y-186000000D01*
X371842000Y-175920000D02*
X369810000Y-177952000D01*
%TO.N,mirror_ring_bottom*%
X312810000Y-161000000D02*
X312810000Y-152952000D01*
X312810000Y-161000000D02*
X310650000Y-161000000D01*
X312810000Y-152952000D02*
X314842000Y-150920000D01*
%TO.N,mirror_outer_home*%
X352842000Y-156920000D02*
X350810000Y-158952000D01*
X350810000Y-158952000D02*
X350810000Y-167000000D01*
X348650000Y-167000000D02*
X350810000Y-167000000D01*
%TO.N,mirror_inner_space*%
X255810000Y-177952000D02*
X255810000Y-186000000D01*
X253650000Y-186000000D02*
X255810000Y-186000000D01*
X257842000Y-175920000D02*
X255810000Y-177952000D01*
%TO.N,mirror_inner_top*%
X255810000Y-120952000D02*
X255810000Y-129000000D01*
X253650000Y-129000000D02*
X255810000Y-129000000D01*
X257842000Y-118920000D02*
X255810000Y-120952000D01*
%TO.N,mirror_index_num*%
X276842000Y-93920000D02*
X274810000Y-95952000D01*
X274810000Y-95952000D02*
X274810000Y-104000000D01*
X272650000Y-104000000D02*
X274810000Y-104000000D01*
%TO.N,mirror_middle_home*%
X295842000Y-126920000D02*
X293810000Y-128952000D01*
X293810000Y-137000000D02*
X291650000Y-137000000D01*
X293810000Y-128952000D02*
X293810000Y-137000000D01*
%TO.N,mirror_ring_top*%
X310650000Y-123000000D02*
X312810000Y-123000000D01*
X312810000Y-114952000D02*
X314842000Y-112920000D01*
X312810000Y-123000000D02*
X312810000Y-114952000D01*
%TO.N,mirror_ring_home*%
X312810000Y-133952000D02*
X312810000Y-142000000D01*
X314842000Y-131920000D02*
X312810000Y-133952000D01*
X312810000Y-142000000D02*
X310650000Y-142000000D01*
%TD*%
M02*
